%TF.GenerationSoftware,KiCad,Pcbnew,9.0.4*%
%TF.CreationDate,2026-03-08T23:27:07+08:00*%
%TF.ProjectId,Potentiometer+MUX,506f7465-6e74-4696-9f6d-657465722b4d,rev?*%
%TF.SameCoordinates,Original*%
%TF.FileFunction,Legend,Top*%
%TF.FilePolarity,Positive*%
%FSLAX46Y46*%
G04 Gerber Fmt 4.6, Leading zero omitted, Abs format (unit mm)*
G04 Created by KiCad (PCBNEW 9.0.4) date 2026-03-08 23:27:07*
%MOMM*%
%LPD*%
G01*
G04 APERTURE LIST*
%ADD10C,0.150000*%
%ADD11C,0.250000*%
%ADD12C,0.120000*%
G04 APERTURE END LIST*
D10*
X127241541Y-46314819D02*
X127860588Y-46314819D01*
X127860588Y-46314819D02*
X127527255Y-46695771D01*
X127527255Y-46695771D02*
X127670112Y-46695771D01*
X127670112Y-46695771D02*
X127765350Y-46743390D01*
X127765350Y-46743390D02*
X127812969Y-46791009D01*
X127812969Y-46791009D02*
X127860588Y-46886247D01*
X127860588Y-46886247D02*
X127860588Y-47124342D01*
X127860588Y-47124342D02*
X127812969Y-47219580D01*
X127812969Y-47219580D02*
X127765350Y-47267200D01*
X127765350Y-47267200D02*
X127670112Y-47314819D01*
X127670112Y-47314819D02*
X127384398Y-47314819D01*
X127384398Y-47314819D02*
X127289160Y-47267200D01*
X127289160Y-47267200D02*
X127241541Y-47219580D01*
X128289160Y-47219580D02*
X128336779Y-47267200D01*
X128336779Y-47267200D02*
X128289160Y-47314819D01*
X128289160Y-47314819D02*
X128241541Y-47267200D01*
X128241541Y-47267200D02*
X128289160Y-47219580D01*
X128289160Y-47219580D02*
X128289160Y-47314819D01*
X128670112Y-46314819D02*
X129289159Y-46314819D01*
X129289159Y-46314819D02*
X128955826Y-46695771D01*
X128955826Y-46695771D02*
X129098683Y-46695771D01*
X129098683Y-46695771D02*
X129193921Y-46743390D01*
X129193921Y-46743390D02*
X129241540Y-46791009D01*
X129241540Y-46791009D02*
X129289159Y-46886247D01*
X129289159Y-46886247D02*
X129289159Y-47124342D01*
X129289159Y-47124342D02*
X129241540Y-47219580D01*
X129241540Y-47219580D02*
X129193921Y-47267200D01*
X129193921Y-47267200D02*
X129098683Y-47314819D01*
X129098683Y-47314819D02*
X128812969Y-47314819D01*
X128812969Y-47314819D02*
X128717731Y-47267200D01*
X128717731Y-47267200D02*
X128670112Y-47219580D01*
X129574874Y-46314819D02*
X129908207Y-47314819D01*
X129908207Y-47314819D02*
X130241540Y-46314819D01*
D11*
X98635282Y-95770752D02*
X100049496Y-94356538D01*
X99443404Y-96578874D02*
X99645435Y-95164660D01*
X100857618Y-95164660D02*
X99241374Y-95164660D01*
X100992305Y-96242156D02*
X100049496Y-97184965D01*
X100857618Y-96376843D02*
X100992305Y-96376843D01*
X100992305Y-96376843D02*
X101194335Y-96444187D01*
X101194335Y-96444187D02*
X101396366Y-96646217D01*
X101396366Y-96646217D02*
X101463709Y-96848248D01*
X101463709Y-96848248D02*
X101396366Y-97050278D01*
X101396366Y-97050278D02*
X100655587Y-97791057D01*
X101531053Y-98666523D02*
X101463709Y-98464492D01*
X101463709Y-98464492D02*
X101463709Y-98329805D01*
X101463709Y-98329805D02*
X101531053Y-98127775D01*
X101531053Y-98127775D02*
X101935114Y-97723714D01*
X101935114Y-97723714D02*
X102137144Y-97656370D01*
X102137144Y-97656370D02*
X102271831Y-97656370D01*
X102271831Y-97656370D02*
X102473862Y-97723714D01*
X102473862Y-97723714D02*
X102675892Y-97925744D01*
X102675892Y-97925744D02*
X102743236Y-98127775D01*
X102743236Y-98127775D02*
X102743236Y-98262462D01*
X102743236Y-98262462D02*
X102675892Y-98464492D01*
X102675892Y-98464492D02*
X102271831Y-98868553D01*
X102271831Y-98868553D02*
X102069801Y-98935897D01*
X102069801Y-98935897D02*
X101935114Y-98935897D01*
X101935114Y-98935897D02*
X101733083Y-98868553D01*
X101733083Y-98868553D02*
X101531053Y-98666523D01*
X102608549Y-99744019D02*
X104022763Y-98329805D01*
X103484015Y-98868553D02*
X103686045Y-98935897D01*
X103686045Y-98935897D02*
X103955419Y-99205271D01*
X103955419Y-99205271D02*
X104022763Y-99407301D01*
X104022763Y-99407301D02*
X104022763Y-99541988D01*
X104022763Y-99541988D02*
X103955419Y-99744019D01*
X103955419Y-99744019D02*
X103551358Y-100148080D01*
X103551358Y-100148080D02*
X103349328Y-100215423D01*
X103349328Y-100215423D02*
X103214641Y-100215423D01*
X103214641Y-100215423D02*
X103012610Y-100148080D01*
X103012610Y-100148080D02*
X102743236Y-99878706D01*
X102743236Y-99878706D02*
X102675893Y-99676675D01*
X106245099Y-100552141D02*
X107187908Y-101494950D01*
X107187908Y-101494950D02*
X105167603Y-102303072D01*
D10*
X128789160Y-38837200D02*
X128932017Y-38884819D01*
X128932017Y-38884819D02*
X129170112Y-38884819D01*
X129170112Y-38884819D02*
X129265350Y-38837200D01*
X129265350Y-38837200D02*
X129312969Y-38789580D01*
X129312969Y-38789580D02*
X129360588Y-38694342D01*
X129360588Y-38694342D02*
X129360588Y-38599104D01*
X129360588Y-38599104D02*
X129312969Y-38503866D01*
X129312969Y-38503866D02*
X129265350Y-38456247D01*
X129265350Y-38456247D02*
X129170112Y-38408628D01*
X129170112Y-38408628D02*
X128979636Y-38361009D01*
X128979636Y-38361009D02*
X128884398Y-38313390D01*
X128884398Y-38313390D02*
X128836779Y-38265771D01*
X128836779Y-38265771D02*
X128789160Y-38170533D01*
X128789160Y-38170533D02*
X128789160Y-38075295D01*
X128789160Y-38075295D02*
X128836779Y-37980057D01*
X128836779Y-37980057D02*
X128884398Y-37932438D01*
X128884398Y-37932438D02*
X128979636Y-37884819D01*
X128979636Y-37884819D02*
X129217731Y-37884819D01*
X129217731Y-37884819D02*
X129360588Y-37932438D01*
X130312969Y-38884819D02*
X129741541Y-38884819D01*
X130027255Y-38884819D02*
X130027255Y-37884819D01*
X130027255Y-37884819D02*
X129932017Y-38027676D01*
X129932017Y-38027676D02*
X129836779Y-38122914D01*
X129836779Y-38122914D02*
X129741541Y-38170533D01*
X128789160Y-41337200D02*
X128932017Y-41384819D01*
X128932017Y-41384819D02*
X129170112Y-41384819D01*
X129170112Y-41384819D02*
X129265350Y-41337200D01*
X129265350Y-41337200D02*
X129312969Y-41289580D01*
X129312969Y-41289580D02*
X129360588Y-41194342D01*
X129360588Y-41194342D02*
X129360588Y-41099104D01*
X129360588Y-41099104D02*
X129312969Y-41003866D01*
X129312969Y-41003866D02*
X129265350Y-40956247D01*
X129265350Y-40956247D02*
X129170112Y-40908628D01*
X129170112Y-40908628D02*
X128979636Y-40861009D01*
X128979636Y-40861009D02*
X128884398Y-40813390D01*
X128884398Y-40813390D02*
X128836779Y-40765771D01*
X128836779Y-40765771D02*
X128789160Y-40670533D01*
X128789160Y-40670533D02*
X128789160Y-40575295D01*
X128789160Y-40575295D02*
X128836779Y-40480057D01*
X128836779Y-40480057D02*
X128884398Y-40432438D01*
X128884398Y-40432438D02*
X128979636Y-40384819D01*
X128979636Y-40384819D02*
X129217731Y-40384819D01*
X129217731Y-40384819D02*
X129360588Y-40432438D01*
X129979636Y-40384819D02*
X130074874Y-40384819D01*
X130074874Y-40384819D02*
X130170112Y-40432438D01*
X130170112Y-40432438D02*
X130217731Y-40480057D01*
X130217731Y-40480057D02*
X130265350Y-40575295D01*
X130265350Y-40575295D02*
X130312969Y-40765771D01*
X130312969Y-40765771D02*
X130312969Y-41003866D01*
X130312969Y-41003866D02*
X130265350Y-41194342D01*
X130265350Y-41194342D02*
X130217731Y-41289580D01*
X130217731Y-41289580D02*
X130170112Y-41337200D01*
X130170112Y-41337200D02*
X130074874Y-41384819D01*
X130074874Y-41384819D02*
X129979636Y-41384819D01*
X129979636Y-41384819D02*
X129884398Y-41337200D01*
X129884398Y-41337200D02*
X129836779Y-41289580D01*
X129836779Y-41289580D02*
X129789160Y-41194342D01*
X129789160Y-41194342D02*
X129741541Y-41003866D01*
X129741541Y-41003866D02*
X129741541Y-40765771D01*
X129741541Y-40765771D02*
X129789160Y-40575295D01*
X129789160Y-40575295D02*
X129836779Y-40480057D01*
X129836779Y-40480057D02*
X129884398Y-40432438D01*
X129884398Y-40432438D02*
X129979636Y-40384819D01*
D11*
X128642726Y-66315872D02*
X130056940Y-64901658D01*
X129450848Y-67123994D02*
X129652879Y-65709780D01*
X130865062Y-65709780D02*
X129248818Y-65709780D01*
X130999749Y-66787276D02*
X130056940Y-67730085D01*
X130865062Y-66921963D02*
X130999749Y-66921963D01*
X130999749Y-66921963D02*
X131201779Y-66989307D01*
X131201779Y-66989307D02*
X131403810Y-67191337D01*
X131403810Y-67191337D02*
X131471153Y-67393368D01*
X131471153Y-67393368D02*
X131403810Y-67595398D01*
X131403810Y-67595398D02*
X130663031Y-68336177D01*
X131538497Y-69211643D02*
X131471153Y-69009612D01*
X131471153Y-69009612D02*
X131471153Y-68874925D01*
X131471153Y-68874925D02*
X131538497Y-68672894D01*
X131538497Y-68672894D02*
X131942558Y-68268833D01*
X131942558Y-68268833D02*
X132144588Y-68201490D01*
X132144588Y-68201490D02*
X132279275Y-68201490D01*
X132279275Y-68201490D02*
X132481306Y-68268833D01*
X132481306Y-68268833D02*
X132683336Y-68470864D01*
X132683336Y-68470864D02*
X132750680Y-68672894D01*
X132750680Y-68672894D02*
X132750680Y-68807581D01*
X132750680Y-68807581D02*
X132683336Y-69009612D01*
X132683336Y-69009612D02*
X132279275Y-69413673D01*
X132279275Y-69413673D02*
X132077245Y-69481017D01*
X132077245Y-69481017D02*
X131942558Y-69481017D01*
X131942558Y-69481017D02*
X131740527Y-69413673D01*
X131740527Y-69413673D02*
X131538497Y-69211643D01*
X132615993Y-70289139D02*
X134030207Y-68874925D01*
X133491459Y-69413673D02*
X133693489Y-69481017D01*
X133693489Y-69481017D02*
X133962863Y-69750391D01*
X133962863Y-69750391D02*
X134030207Y-69952421D01*
X134030207Y-69952421D02*
X134030207Y-70087108D01*
X134030207Y-70087108D02*
X133962863Y-70289139D01*
X133962863Y-70289139D02*
X133558802Y-70693200D01*
X133558802Y-70693200D02*
X133356772Y-70760543D01*
X133356772Y-70760543D02*
X133222085Y-70760543D01*
X133222085Y-70760543D02*
X133020054Y-70693200D01*
X133020054Y-70693200D02*
X132750680Y-70423826D01*
X132750680Y-70423826D02*
X132683337Y-70221795D01*
X135713795Y-73386940D02*
X134905673Y-72578818D01*
X135309734Y-72982879D02*
X136723947Y-71568666D01*
X136723947Y-71568666D02*
X136387230Y-71636009D01*
X136387230Y-71636009D02*
X136117856Y-71636009D01*
X136117856Y-71636009D02*
X135915825Y-71568666D01*
D10*
X127860588Y-48862438D02*
X127765350Y-48814819D01*
X127765350Y-48814819D02*
X127622493Y-48814819D01*
X127622493Y-48814819D02*
X127479636Y-48862438D01*
X127479636Y-48862438D02*
X127384398Y-48957676D01*
X127384398Y-48957676D02*
X127336779Y-49052914D01*
X127336779Y-49052914D02*
X127289160Y-49243390D01*
X127289160Y-49243390D02*
X127289160Y-49386247D01*
X127289160Y-49386247D02*
X127336779Y-49576723D01*
X127336779Y-49576723D02*
X127384398Y-49671961D01*
X127384398Y-49671961D02*
X127479636Y-49767200D01*
X127479636Y-49767200D02*
X127622493Y-49814819D01*
X127622493Y-49814819D02*
X127717731Y-49814819D01*
X127717731Y-49814819D02*
X127860588Y-49767200D01*
X127860588Y-49767200D02*
X127908207Y-49719580D01*
X127908207Y-49719580D02*
X127908207Y-49386247D01*
X127908207Y-49386247D02*
X127717731Y-49386247D01*
X128336779Y-49814819D02*
X128336779Y-48814819D01*
X128336779Y-48814819D02*
X128908207Y-49814819D01*
X128908207Y-49814819D02*
X128908207Y-48814819D01*
X129384398Y-49814819D02*
X129384398Y-48814819D01*
X129384398Y-48814819D02*
X129622493Y-48814819D01*
X129622493Y-48814819D02*
X129765350Y-48862438D01*
X129765350Y-48862438D02*
X129860588Y-48957676D01*
X129860588Y-48957676D02*
X129908207Y-49052914D01*
X129908207Y-49052914D02*
X129955826Y-49243390D01*
X129955826Y-49243390D02*
X129955826Y-49386247D01*
X129955826Y-49386247D02*
X129908207Y-49576723D01*
X129908207Y-49576723D02*
X129860588Y-49671961D01*
X129860588Y-49671961D02*
X129765350Y-49767200D01*
X129765350Y-49767200D02*
X129622493Y-49814819D01*
X129622493Y-49814819D02*
X129384398Y-49814819D01*
D11*
X98635282Y-155770752D02*
X100049496Y-154356538D01*
X99443404Y-156578874D02*
X99645435Y-155164660D01*
X100857618Y-155164660D02*
X99241374Y-155164660D01*
X100992305Y-156242156D02*
X100049496Y-157184965D01*
X100857618Y-156376843D02*
X100992305Y-156376843D01*
X100992305Y-156376843D02*
X101194335Y-156444187D01*
X101194335Y-156444187D02*
X101396366Y-156646217D01*
X101396366Y-156646217D02*
X101463709Y-156848248D01*
X101463709Y-156848248D02*
X101396366Y-157050278D01*
X101396366Y-157050278D02*
X100655587Y-157791057D01*
X101531053Y-158666523D02*
X101463709Y-158464492D01*
X101463709Y-158464492D02*
X101463709Y-158329805D01*
X101463709Y-158329805D02*
X101531053Y-158127775D01*
X101531053Y-158127775D02*
X101935114Y-157723714D01*
X101935114Y-157723714D02*
X102137144Y-157656370D01*
X102137144Y-157656370D02*
X102271831Y-157656370D01*
X102271831Y-157656370D02*
X102473862Y-157723714D01*
X102473862Y-157723714D02*
X102675892Y-157925744D01*
X102675892Y-157925744D02*
X102743236Y-158127775D01*
X102743236Y-158127775D02*
X102743236Y-158262462D01*
X102743236Y-158262462D02*
X102675892Y-158464492D01*
X102675892Y-158464492D02*
X102271831Y-158868553D01*
X102271831Y-158868553D02*
X102069801Y-158935897D01*
X102069801Y-158935897D02*
X101935114Y-158935897D01*
X101935114Y-158935897D02*
X101733083Y-158868553D01*
X101733083Y-158868553D02*
X101531053Y-158666523D01*
X102608549Y-159744019D02*
X104022763Y-158329805D01*
X103484015Y-158868553D02*
X103686045Y-158935897D01*
X103686045Y-158935897D02*
X103955419Y-159205271D01*
X103955419Y-159205271D02*
X104022763Y-159407301D01*
X104022763Y-159407301D02*
X104022763Y-159541988D01*
X104022763Y-159541988D02*
X103955419Y-159744019D01*
X103955419Y-159744019D02*
X103551358Y-160148080D01*
X103551358Y-160148080D02*
X103349328Y-160215423D01*
X103349328Y-160215423D02*
X103214641Y-160215423D01*
X103214641Y-160215423D02*
X103012610Y-160148080D01*
X103012610Y-160148080D02*
X102743236Y-159878706D01*
X102743236Y-159878706D02*
X102675893Y-159676675D01*
X107053221Y-161360263D02*
X106379786Y-160686828D01*
X106379786Y-160686828D02*
X105639007Y-161292920D01*
X105639007Y-161292920D02*
X105773694Y-161292920D01*
X105773694Y-161292920D02*
X105975725Y-161360263D01*
X105975725Y-161360263D02*
X106312442Y-161696981D01*
X106312442Y-161696981D02*
X106379786Y-161899011D01*
X106379786Y-161899011D02*
X106379786Y-162033698D01*
X106379786Y-162033698D02*
X106312442Y-162235729D01*
X106312442Y-162235729D02*
X105975725Y-162572446D01*
X105975725Y-162572446D02*
X105773694Y-162639790D01*
X105773694Y-162639790D02*
X105639007Y-162639790D01*
X105639007Y-162639790D02*
X105436977Y-162572446D01*
X105436977Y-162572446D02*
X105100259Y-162235729D01*
X105100259Y-162235729D02*
X105032916Y-162033698D01*
X105032916Y-162033698D02*
X105032916Y-161899011D01*
X128635282Y-96270752D02*
X130049496Y-94856538D01*
X129443404Y-97078874D02*
X129645435Y-95664660D01*
X130857618Y-95664660D02*
X129241374Y-95664660D01*
X130992305Y-96742156D02*
X130049496Y-97684965D01*
X130857618Y-96876843D02*
X130992305Y-96876843D01*
X130992305Y-96876843D02*
X131194335Y-96944187D01*
X131194335Y-96944187D02*
X131396366Y-97146217D01*
X131396366Y-97146217D02*
X131463709Y-97348248D01*
X131463709Y-97348248D02*
X131396366Y-97550278D01*
X131396366Y-97550278D02*
X130655587Y-98291057D01*
X131531053Y-99166523D02*
X131463709Y-98964492D01*
X131463709Y-98964492D02*
X131463709Y-98829805D01*
X131463709Y-98829805D02*
X131531053Y-98627775D01*
X131531053Y-98627775D02*
X131935114Y-98223714D01*
X131935114Y-98223714D02*
X132137144Y-98156370D01*
X132137144Y-98156370D02*
X132271831Y-98156370D01*
X132271831Y-98156370D02*
X132473862Y-98223714D01*
X132473862Y-98223714D02*
X132675892Y-98425744D01*
X132675892Y-98425744D02*
X132743236Y-98627775D01*
X132743236Y-98627775D02*
X132743236Y-98762462D01*
X132743236Y-98762462D02*
X132675892Y-98964492D01*
X132675892Y-98964492D02*
X132271831Y-99368553D01*
X132271831Y-99368553D02*
X132069801Y-99435897D01*
X132069801Y-99435897D02*
X131935114Y-99435897D01*
X131935114Y-99435897D02*
X131733083Y-99368553D01*
X131733083Y-99368553D02*
X131531053Y-99166523D01*
X132608549Y-100244019D02*
X134022763Y-98829805D01*
X133484015Y-99368553D02*
X133686045Y-99435897D01*
X133686045Y-99435897D02*
X133955419Y-99705271D01*
X133955419Y-99705271D02*
X134022763Y-99907301D01*
X134022763Y-99907301D02*
X134022763Y-100041988D01*
X134022763Y-100041988D02*
X133955419Y-100244019D01*
X133955419Y-100244019D02*
X133551358Y-100648080D01*
X133551358Y-100648080D02*
X133349328Y-100715423D01*
X133349328Y-100715423D02*
X133214641Y-100715423D01*
X133214641Y-100715423D02*
X133012610Y-100648080D01*
X133012610Y-100648080D02*
X132743236Y-100378706D01*
X132743236Y-100378706D02*
X132675893Y-100176675D01*
X136177755Y-101254172D02*
X136312442Y-101254172D01*
X136312442Y-101254172D02*
X136514473Y-101321515D01*
X136514473Y-101321515D02*
X136851190Y-101658233D01*
X136851190Y-101658233D02*
X136918534Y-101860263D01*
X136918534Y-101860263D02*
X136918534Y-101994950D01*
X136918534Y-101994950D02*
X136851190Y-102196981D01*
X136851190Y-102196981D02*
X136716503Y-102331668D01*
X136716503Y-102331668D02*
X136447129Y-102466355D01*
X136447129Y-102466355D02*
X134830885Y-102466355D01*
X134830885Y-102466355D02*
X135706351Y-103341820D01*
X128635282Y-156270752D02*
X130049496Y-154856538D01*
X129443404Y-157078874D02*
X129645435Y-155664660D01*
X130857618Y-155664660D02*
X129241374Y-155664660D01*
X130992305Y-156742156D02*
X130049496Y-157684965D01*
X130857618Y-156876843D02*
X130992305Y-156876843D01*
X130992305Y-156876843D02*
X131194335Y-156944187D01*
X131194335Y-156944187D02*
X131396366Y-157146217D01*
X131396366Y-157146217D02*
X131463709Y-157348248D01*
X131463709Y-157348248D02*
X131396366Y-157550278D01*
X131396366Y-157550278D02*
X130655587Y-158291057D01*
X131531053Y-159166523D02*
X131463709Y-158964492D01*
X131463709Y-158964492D02*
X131463709Y-158829805D01*
X131463709Y-158829805D02*
X131531053Y-158627775D01*
X131531053Y-158627775D02*
X131935114Y-158223714D01*
X131935114Y-158223714D02*
X132137144Y-158156370D01*
X132137144Y-158156370D02*
X132271831Y-158156370D01*
X132271831Y-158156370D02*
X132473862Y-158223714D01*
X132473862Y-158223714D02*
X132675892Y-158425744D01*
X132675892Y-158425744D02*
X132743236Y-158627775D01*
X132743236Y-158627775D02*
X132743236Y-158762462D01*
X132743236Y-158762462D02*
X132675892Y-158964492D01*
X132675892Y-158964492D02*
X132271831Y-159368553D01*
X132271831Y-159368553D02*
X132069801Y-159435897D01*
X132069801Y-159435897D02*
X131935114Y-159435897D01*
X131935114Y-159435897D02*
X131733083Y-159368553D01*
X131733083Y-159368553D02*
X131531053Y-159166523D01*
X132608549Y-160244019D02*
X134022763Y-158829805D01*
X133484015Y-159368553D02*
X133686045Y-159435897D01*
X133686045Y-159435897D02*
X133955419Y-159705271D01*
X133955419Y-159705271D02*
X134022763Y-159907301D01*
X134022763Y-159907301D02*
X134022763Y-160041988D01*
X134022763Y-160041988D02*
X133955419Y-160244019D01*
X133955419Y-160244019D02*
X133551358Y-160648080D01*
X133551358Y-160648080D02*
X133349328Y-160715423D01*
X133349328Y-160715423D02*
X133214641Y-160715423D01*
X133214641Y-160715423D02*
X133012610Y-160648080D01*
X133012610Y-160648080D02*
X132743236Y-160378706D01*
X132743236Y-160378706D02*
X132675893Y-160176675D01*
X136514473Y-162264324D02*
X135571664Y-163207133D01*
X136716503Y-161388859D02*
X135369633Y-162062294D01*
X135369633Y-162062294D02*
X136245099Y-162937759D01*
X98635282Y-125770752D02*
X100049496Y-124356538D01*
X99443404Y-126578874D02*
X99645435Y-125164660D01*
X100857618Y-125164660D02*
X99241374Y-125164660D01*
X100992305Y-126242156D02*
X100049496Y-127184965D01*
X100857618Y-126376843D02*
X100992305Y-126376843D01*
X100992305Y-126376843D02*
X101194335Y-126444187D01*
X101194335Y-126444187D02*
X101396366Y-126646217D01*
X101396366Y-126646217D02*
X101463709Y-126848248D01*
X101463709Y-126848248D02*
X101396366Y-127050278D01*
X101396366Y-127050278D02*
X100655587Y-127791057D01*
X101531053Y-128666523D02*
X101463709Y-128464492D01*
X101463709Y-128464492D02*
X101463709Y-128329805D01*
X101463709Y-128329805D02*
X101531053Y-128127775D01*
X101531053Y-128127775D02*
X101935114Y-127723714D01*
X101935114Y-127723714D02*
X102137144Y-127656370D01*
X102137144Y-127656370D02*
X102271831Y-127656370D01*
X102271831Y-127656370D02*
X102473862Y-127723714D01*
X102473862Y-127723714D02*
X102675892Y-127925744D01*
X102675892Y-127925744D02*
X102743236Y-128127775D01*
X102743236Y-128127775D02*
X102743236Y-128262462D01*
X102743236Y-128262462D02*
X102675892Y-128464492D01*
X102675892Y-128464492D02*
X102271831Y-128868553D01*
X102271831Y-128868553D02*
X102069801Y-128935897D01*
X102069801Y-128935897D02*
X101935114Y-128935897D01*
X101935114Y-128935897D02*
X101733083Y-128868553D01*
X101733083Y-128868553D02*
X101531053Y-128666523D01*
X102608549Y-129744019D02*
X104022763Y-128329805D01*
X103484015Y-128868553D02*
X103686045Y-128935897D01*
X103686045Y-128935897D02*
X103955419Y-129205271D01*
X103955419Y-129205271D02*
X104022763Y-129407301D01*
X104022763Y-129407301D02*
X104022763Y-129541988D01*
X104022763Y-129541988D02*
X103955419Y-129744019D01*
X103955419Y-129744019D02*
X103551358Y-130148080D01*
X103551358Y-130148080D02*
X103349328Y-130215423D01*
X103349328Y-130215423D02*
X103214641Y-130215423D01*
X103214641Y-130215423D02*
X103012610Y-130148080D01*
X103012610Y-130148080D02*
X102743236Y-129878706D01*
X102743236Y-129878706D02*
X102675893Y-129676675D01*
X106985877Y-131292920D02*
X106716503Y-131023546D01*
X106716503Y-131023546D02*
X106514473Y-130956202D01*
X106514473Y-130956202D02*
X106379786Y-130956202D01*
X106379786Y-130956202D02*
X106043068Y-131023546D01*
X106043068Y-131023546D02*
X105706351Y-131225576D01*
X105706351Y-131225576D02*
X105167603Y-131764324D01*
X105167603Y-131764324D02*
X105100259Y-131966355D01*
X105100259Y-131966355D02*
X105100259Y-132101042D01*
X105100259Y-132101042D02*
X105167603Y-132303072D01*
X105167603Y-132303072D02*
X105436977Y-132572446D01*
X105436977Y-132572446D02*
X105639007Y-132639790D01*
X105639007Y-132639790D02*
X105773694Y-132639790D01*
X105773694Y-132639790D02*
X105975725Y-132572446D01*
X105975725Y-132572446D02*
X106312442Y-132235729D01*
X106312442Y-132235729D02*
X106379786Y-132033698D01*
X106379786Y-132033698D02*
X106379786Y-131899011D01*
X106379786Y-131899011D02*
X106312442Y-131696981D01*
X106312442Y-131696981D02*
X106043068Y-131427607D01*
X106043068Y-131427607D02*
X105841038Y-131360263D01*
X105841038Y-131360263D02*
X105706351Y-131360263D01*
X105706351Y-131360263D02*
X105504320Y-131427607D01*
X128635282Y-126270752D02*
X130049496Y-124856538D01*
X129443404Y-127078874D02*
X129645435Y-125664660D01*
X130857618Y-125664660D02*
X129241374Y-125664660D01*
X130992305Y-126742156D02*
X130049496Y-127684965D01*
X130857618Y-126876843D02*
X130992305Y-126876843D01*
X130992305Y-126876843D02*
X131194335Y-126944187D01*
X131194335Y-126944187D02*
X131396366Y-127146217D01*
X131396366Y-127146217D02*
X131463709Y-127348248D01*
X131463709Y-127348248D02*
X131396366Y-127550278D01*
X131396366Y-127550278D02*
X130655587Y-128291057D01*
X131531053Y-129166523D02*
X131463709Y-128964492D01*
X131463709Y-128964492D02*
X131463709Y-128829805D01*
X131463709Y-128829805D02*
X131531053Y-128627775D01*
X131531053Y-128627775D02*
X131935114Y-128223714D01*
X131935114Y-128223714D02*
X132137144Y-128156370D01*
X132137144Y-128156370D02*
X132271831Y-128156370D01*
X132271831Y-128156370D02*
X132473862Y-128223714D01*
X132473862Y-128223714D02*
X132675892Y-128425744D01*
X132675892Y-128425744D02*
X132743236Y-128627775D01*
X132743236Y-128627775D02*
X132743236Y-128762462D01*
X132743236Y-128762462D02*
X132675892Y-128964492D01*
X132675892Y-128964492D02*
X132271831Y-129368553D01*
X132271831Y-129368553D02*
X132069801Y-129435897D01*
X132069801Y-129435897D02*
X131935114Y-129435897D01*
X131935114Y-129435897D02*
X131733083Y-129368553D01*
X131733083Y-129368553D02*
X131531053Y-129166523D01*
X132608549Y-130244019D02*
X134022763Y-128829805D01*
X133484015Y-129368553D02*
X133686045Y-129435897D01*
X133686045Y-129435897D02*
X133955419Y-129705271D01*
X133955419Y-129705271D02*
X134022763Y-129907301D01*
X134022763Y-129907301D02*
X134022763Y-130041988D01*
X134022763Y-130041988D02*
X133955419Y-130244019D01*
X133955419Y-130244019D02*
X133551358Y-130648080D01*
X133551358Y-130648080D02*
X133349328Y-130715423D01*
X133349328Y-130715423D02*
X133214641Y-130715423D01*
X133214641Y-130715423D02*
X133012610Y-130648080D01*
X133012610Y-130648080D02*
X132743236Y-130378706D01*
X132743236Y-130378706D02*
X132675893Y-130176675D01*
X136245099Y-131052141D02*
X137120564Y-131927607D01*
X137120564Y-131927607D02*
X136110412Y-131994950D01*
X136110412Y-131994950D02*
X136312442Y-132196981D01*
X136312442Y-132196981D02*
X136379786Y-132399011D01*
X136379786Y-132399011D02*
X136379786Y-132533698D01*
X136379786Y-132533698D02*
X136312442Y-132735729D01*
X136312442Y-132735729D02*
X135975725Y-133072446D01*
X135975725Y-133072446D02*
X135773694Y-133139790D01*
X135773694Y-133139790D02*
X135639007Y-133139790D01*
X135639007Y-133139790D02*
X135436977Y-133072446D01*
X135436977Y-133072446D02*
X135032916Y-132668385D01*
X135032916Y-132668385D02*
X134965572Y-132466355D01*
X134965572Y-132466355D02*
X134965572Y-132331668D01*
D10*
X128289160Y-33837200D02*
X128432017Y-33884819D01*
X128432017Y-33884819D02*
X128670112Y-33884819D01*
X128670112Y-33884819D02*
X128765350Y-33837200D01*
X128765350Y-33837200D02*
X128812969Y-33789580D01*
X128812969Y-33789580D02*
X128860588Y-33694342D01*
X128860588Y-33694342D02*
X128860588Y-33599104D01*
X128860588Y-33599104D02*
X128812969Y-33503866D01*
X128812969Y-33503866D02*
X128765350Y-33456247D01*
X128765350Y-33456247D02*
X128670112Y-33408628D01*
X128670112Y-33408628D02*
X128479636Y-33361009D01*
X128479636Y-33361009D02*
X128384398Y-33313390D01*
X128384398Y-33313390D02*
X128336779Y-33265771D01*
X128336779Y-33265771D02*
X128289160Y-33170533D01*
X128289160Y-33170533D02*
X128289160Y-33075295D01*
X128289160Y-33075295D02*
X128336779Y-32980057D01*
X128336779Y-32980057D02*
X128384398Y-32932438D01*
X128384398Y-32932438D02*
X128479636Y-32884819D01*
X128479636Y-32884819D02*
X128717731Y-32884819D01*
X128717731Y-32884819D02*
X128860588Y-32932438D01*
X129289160Y-33884819D02*
X129289160Y-32884819D01*
X130289159Y-32932438D02*
X130193921Y-32884819D01*
X130193921Y-32884819D02*
X130051064Y-32884819D01*
X130051064Y-32884819D02*
X129908207Y-32932438D01*
X129908207Y-32932438D02*
X129812969Y-33027676D01*
X129812969Y-33027676D02*
X129765350Y-33122914D01*
X129765350Y-33122914D02*
X129717731Y-33313390D01*
X129717731Y-33313390D02*
X129717731Y-33456247D01*
X129717731Y-33456247D02*
X129765350Y-33646723D01*
X129765350Y-33646723D02*
X129812969Y-33741961D01*
X129812969Y-33741961D02*
X129908207Y-33837200D01*
X129908207Y-33837200D02*
X130051064Y-33884819D01*
X130051064Y-33884819D02*
X130146302Y-33884819D01*
X130146302Y-33884819D02*
X130289159Y-33837200D01*
X130289159Y-33837200D02*
X130336778Y-33789580D01*
X130336778Y-33789580D02*
X130336778Y-33456247D01*
X130336778Y-33456247D02*
X130146302Y-33456247D01*
D11*
X98642726Y-65815872D02*
X100056940Y-64401658D01*
X99450848Y-66623994D02*
X99652879Y-65209780D01*
X100865062Y-65209780D02*
X99248818Y-65209780D01*
X100999749Y-66287276D02*
X100056940Y-67230085D01*
X100865062Y-66421963D02*
X100999749Y-66421963D01*
X100999749Y-66421963D02*
X101201779Y-66489307D01*
X101201779Y-66489307D02*
X101403810Y-66691337D01*
X101403810Y-66691337D02*
X101471153Y-66893368D01*
X101471153Y-66893368D02*
X101403810Y-67095398D01*
X101403810Y-67095398D02*
X100663031Y-67836177D01*
X101538497Y-68711643D02*
X101471153Y-68509612D01*
X101471153Y-68509612D02*
X101471153Y-68374925D01*
X101471153Y-68374925D02*
X101538497Y-68172894D01*
X101538497Y-68172894D02*
X101942558Y-67768833D01*
X101942558Y-67768833D02*
X102144588Y-67701490D01*
X102144588Y-67701490D02*
X102279275Y-67701490D01*
X102279275Y-67701490D02*
X102481306Y-67768833D01*
X102481306Y-67768833D02*
X102683336Y-67970864D01*
X102683336Y-67970864D02*
X102750680Y-68172894D01*
X102750680Y-68172894D02*
X102750680Y-68307581D01*
X102750680Y-68307581D02*
X102683336Y-68509612D01*
X102683336Y-68509612D02*
X102279275Y-68913673D01*
X102279275Y-68913673D02*
X102077245Y-68981017D01*
X102077245Y-68981017D02*
X101942558Y-68981017D01*
X101942558Y-68981017D02*
X101740527Y-68913673D01*
X101740527Y-68913673D02*
X101538497Y-68711643D01*
X102615993Y-69789139D02*
X104030207Y-68374925D01*
X103491459Y-68913673D02*
X103693489Y-68981017D01*
X103693489Y-68981017D02*
X103962863Y-69250391D01*
X103962863Y-69250391D02*
X104030207Y-69452421D01*
X104030207Y-69452421D02*
X104030207Y-69587108D01*
X104030207Y-69587108D02*
X103962863Y-69789139D01*
X103962863Y-69789139D02*
X103558802Y-70193200D01*
X103558802Y-70193200D02*
X103356772Y-70260543D01*
X103356772Y-70260543D02*
X103222085Y-70260543D01*
X103222085Y-70260543D02*
X103020054Y-70193200D01*
X103020054Y-70193200D02*
X102750680Y-69923826D01*
X102750680Y-69923826D02*
X102683337Y-69721795D01*
X105983169Y-71540070D02*
X105915825Y-71338040D01*
X105915825Y-71338040D02*
X105915825Y-71203353D01*
X105915825Y-71203353D02*
X105983169Y-71001322D01*
X105983169Y-71001322D02*
X106050512Y-70933979D01*
X106050512Y-70933979D02*
X106252543Y-70866635D01*
X106252543Y-70866635D02*
X106387230Y-70866635D01*
X106387230Y-70866635D02*
X106589260Y-70933979D01*
X106589260Y-70933979D02*
X106858634Y-71203353D01*
X106858634Y-71203353D02*
X106925978Y-71405383D01*
X106925978Y-71405383D02*
X106925978Y-71540070D01*
X106925978Y-71540070D02*
X106858634Y-71742101D01*
X106858634Y-71742101D02*
X106791291Y-71809444D01*
X106791291Y-71809444D02*
X106589260Y-71876788D01*
X106589260Y-71876788D02*
X106454573Y-71876788D01*
X106454573Y-71876788D02*
X106252543Y-71809444D01*
X106252543Y-71809444D02*
X105983169Y-71540070D01*
X105983169Y-71540070D02*
X105781138Y-71472727D01*
X105781138Y-71472727D02*
X105646451Y-71472727D01*
X105646451Y-71472727D02*
X105444421Y-71540070D01*
X105444421Y-71540070D02*
X105175047Y-71809444D01*
X105175047Y-71809444D02*
X105107703Y-72011475D01*
X105107703Y-72011475D02*
X105107703Y-72146162D01*
X105107703Y-72146162D02*
X105175047Y-72348192D01*
X105175047Y-72348192D02*
X105444421Y-72617566D01*
X105444421Y-72617566D02*
X105646451Y-72684910D01*
X105646451Y-72684910D02*
X105781138Y-72684910D01*
X105781138Y-72684910D02*
X105983169Y-72617566D01*
X105983169Y-72617566D02*
X106252543Y-72348192D01*
X106252543Y-72348192D02*
X106319886Y-72146162D01*
X106319886Y-72146162D02*
X106319886Y-72011475D01*
X106319886Y-72011475D02*
X106252543Y-71809444D01*
D10*
X128789160Y-36337200D02*
X128932017Y-36384819D01*
X128932017Y-36384819D02*
X129170112Y-36384819D01*
X129170112Y-36384819D02*
X129265350Y-36337200D01*
X129265350Y-36337200D02*
X129312969Y-36289580D01*
X129312969Y-36289580D02*
X129360588Y-36194342D01*
X129360588Y-36194342D02*
X129360588Y-36099104D01*
X129360588Y-36099104D02*
X129312969Y-36003866D01*
X129312969Y-36003866D02*
X129265350Y-35956247D01*
X129265350Y-35956247D02*
X129170112Y-35908628D01*
X129170112Y-35908628D02*
X128979636Y-35861009D01*
X128979636Y-35861009D02*
X128884398Y-35813390D01*
X128884398Y-35813390D02*
X128836779Y-35765771D01*
X128836779Y-35765771D02*
X128789160Y-35670533D01*
X128789160Y-35670533D02*
X128789160Y-35575295D01*
X128789160Y-35575295D02*
X128836779Y-35480057D01*
X128836779Y-35480057D02*
X128884398Y-35432438D01*
X128884398Y-35432438D02*
X128979636Y-35384819D01*
X128979636Y-35384819D02*
X129217731Y-35384819D01*
X129217731Y-35384819D02*
X129360588Y-35432438D01*
X129741541Y-35480057D02*
X129789160Y-35432438D01*
X129789160Y-35432438D02*
X129884398Y-35384819D01*
X129884398Y-35384819D02*
X130122493Y-35384819D01*
X130122493Y-35384819D02*
X130217731Y-35432438D01*
X130217731Y-35432438D02*
X130265350Y-35480057D01*
X130265350Y-35480057D02*
X130312969Y-35575295D01*
X130312969Y-35575295D02*
X130312969Y-35670533D01*
X130312969Y-35670533D02*
X130265350Y-35813390D01*
X130265350Y-35813390D02*
X129693922Y-36384819D01*
X129693922Y-36384819D02*
X130312969Y-36384819D01*
X114724820Y-47333333D02*
X115439105Y-47333333D01*
X115439105Y-47333333D02*
X115581962Y-47380952D01*
X115581962Y-47380952D02*
X115677201Y-47476190D01*
X115677201Y-47476190D02*
X115724820Y-47619047D01*
X115724820Y-47619047D02*
X115724820Y-47714285D01*
X114724820Y-46952380D02*
X114724820Y-46333333D01*
X114724820Y-46333333D02*
X115105772Y-46666666D01*
X115105772Y-46666666D02*
X115105772Y-46523809D01*
X115105772Y-46523809D02*
X115153391Y-46428571D01*
X115153391Y-46428571D02*
X115201010Y-46380952D01*
X115201010Y-46380952D02*
X115296248Y-46333333D01*
X115296248Y-46333333D02*
X115534343Y-46333333D01*
X115534343Y-46333333D02*
X115629581Y-46380952D01*
X115629581Y-46380952D02*
X115677201Y-46428571D01*
X115677201Y-46428571D02*
X115724820Y-46523809D01*
X115724820Y-46523809D02*
X115724820Y-46809523D01*
X115724820Y-46809523D02*
X115677201Y-46904761D01*
X115677201Y-46904761D02*
X115629581Y-46952380D01*
X137206666Y-30365248D02*
X137206666Y-31079533D01*
X137206666Y-31079533D02*
X137159047Y-31222390D01*
X137159047Y-31222390D02*
X137063809Y-31317629D01*
X137063809Y-31317629D02*
X136920952Y-31365248D01*
X136920952Y-31365248D02*
X136825714Y-31365248D01*
X138206666Y-31365248D02*
X137635238Y-31365248D01*
X137920952Y-31365248D02*
X137920952Y-30365248D01*
X137920952Y-30365248D02*
X137825714Y-30508105D01*
X137825714Y-30508105D02*
X137730476Y-30603343D01*
X137730476Y-30603343D02*
X137635238Y-30650962D01*
X129259644Y-116101438D02*
X128687224Y-116000423D01*
X128855583Y-116505499D02*
X128148476Y-115798392D01*
X128148476Y-115798392D02*
X128417850Y-115529018D01*
X128417850Y-115529018D02*
X128518866Y-115495347D01*
X128518866Y-115495347D02*
X128586209Y-115495347D01*
X128586209Y-115495347D02*
X128687224Y-115529018D01*
X128687224Y-115529018D02*
X128788240Y-115630034D01*
X128788240Y-115630034D02*
X128821911Y-115731049D01*
X128821911Y-115731049D02*
X128821911Y-115798392D01*
X128821911Y-115798392D02*
X128788240Y-115899408D01*
X128788240Y-115899408D02*
X128518866Y-116168782D01*
X128754568Y-115192301D02*
X129697377Y-115663705D01*
X129697377Y-115663705D02*
X129225972Y-114720896D01*
X129495347Y-114586209D02*
X129495347Y-114518866D01*
X129495347Y-114518866D02*
X129529018Y-114417850D01*
X129529018Y-114417850D02*
X129697377Y-114249492D01*
X129697377Y-114249492D02*
X129798392Y-114215820D01*
X129798392Y-114215820D02*
X129865736Y-114215820D01*
X129865736Y-114215820D02*
X129966751Y-114249492D01*
X129966751Y-114249492D02*
X130034095Y-114316835D01*
X130034095Y-114316835D02*
X130101438Y-114451522D01*
X130101438Y-114451522D02*
X130101438Y-115259644D01*
X130101438Y-115259644D02*
X130539171Y-114821911D01*
X99306142Y-146126009D02*
X98733722Y-146024994D01*
X98902081Y-146530070D02*
X98194974Y-145822963D01*
X98194974Y-145822963D02*
X98464348Y-145553589D01*
X98464348Y-145553589D02*
X98565364Y-145519918D01*
X98565364Y-145519918D02*
X98632707Y-145519918D01*
X98632707Y-145519918D02*
X98733722Y-145553589D01*
X98733722Y-145553589D02*
X98834738Y-145654605D01*
X98834738Y-145654605D02*
X98868409Y-145755620D01*
X98868409Y-145755620D02*
X98868409Y-145822963D01*
X98868409Y-145822963D02*
X98834738Y-145923979D01*
X98834738Y-145923979D02*
X98565364Y-146193353D01*
X98801066Y-145216872D02*
X99743875Y-145688276D01*
X99743875Y-145688276D02*
X99272470Y-144745467D01*
X99811219Y-144206719D02*
X99676532Y-144341406D01*
X99676532Y-144341406D02*
X99642860Y-144442421D01*
X99642860Y-144442421D02*
X99642860Y-144509765D01*
X99642860Y-144509765D02*
X99676532Y-144678124D01*
X99676532Y-144678124D02*
X99777547Y-144846482D01*
X99777547Y-144846482D02*
X100046921Y-145115856D01*
X100046921Y-145115856D02*
X100147936Y-145149528D01*
X100147936Y-145149528D02*
X100215280Y-145149528D01*
X100215280Y-145149528D02*
X100316295Y-145115856D01*
X100316295Y-145115856D02*
X100450982Y-144981169D01*
X100450982Y-144981169D02*
X100484654Y-144880154D01*
X100484654Y-144880154D02*
X100484654Y-144812811D01*
X100484654Y-144812811D02*
X100450982Y-144711795D01*
X100450982Y-144711795D02*
X100282623Y-144543437D01*
X100282623Y-144543437D02*
X100181608Y-144509765D01*
X100181608Y-144509765D02*
X100114264Y-144509765D01*
X100114264Y-144509765D02*
X100013249Y-144543437D01*
X100013249Y-144543437D02*
X99878562Y-144678124D01*
X99878562Y-144678124D02*
X99844890Y-144779139D01*
X99844890Y-144779139D02*
X99844890Y-144846482D01*
X99844890Y-144846482D02*
X99878562Y-144947498D01*
X129259644Y-176101438D02*
X128687224Y-176000423D01*
X128855583Y-176505499D02*
X128148476Y-175798392D01*
X128148476Y-175798392D02*
X128417850Y-175529018D01*
X128417850Y-175529018D02*
X128518866Y-175495347D01*
X128518866Y-175495347D02*
X128586209Y-175495347D01*
X128586209Y-175495347D02*
X128687224Y-175529018D01*
X128687224Y-175529018D02*
X128788240Y-175630034D01*
X128788240Y-175630034D02*
X128821911Y-175731049D01*
X128821911Y-175731049D02*
X128821911Y-175798392D01*
X128821911Y-175798392D02*
X128788240Y-175899408D01*
X128788240Y-175899408D02*
X128518866Y-176168782D01*
X128754568Y-175192301D02*
X129697377Y-175663705D01*
X129697377Y-175663705D02*
X129225972Y-174720896D01*
X130000423Y-174417850D02*
X130471827Y-174889255D01*
X129562690Y-174316835D02*
X129899408Y-174990270D01*
X129899408Y-174990270D02*
X130337140Y-174552537D01*
X98900708Y-176101438D02*
X98328288Y-176000423D01*
X98496647Y-176505499D02*
X97789540Y-175798392D01*
X97789540Y-175798392D02*
X98058914Y-175529018D01*
X98058914Y-175529018D02*
X98159930Y-175495347D01*
X98159930Y-175495347D02*
X98227273Y-175495347D01*
X98227273Y-175495347D02*
X98328288Y-175529018D01*
X98328288Y-175529018D02*
X98429304Y-175630034D01*
X98429304Y-175630034D02*
X98462975Y-175731049D01*
X98462975Y-175731049D02*
X98462975Y-175798392D01*
X98462975Y-175798392D02*
X98429304Y-175899408D01*
X98429304Y-175899408D02*
X98159930Y-176168782D01*
X98395632Y-175192301D02*
X99338441Y-175663705D01*
X99338441Y-175663705D02*
X98867036Y-174720896D01*
X99439456Y-174148476D02*
X99102739Y-174485194D01*
X99102739Y-174485194D02*
X99405785Y-174855583D01*
X99405785Y-174855583D02*
X99405785Y-174788240D01*
X99405785Y-174788240D02*
X99439456Y-174687224D01*
X99439456Y-174687224D02*
X99607815Y-174518866D01*
X99607815Y-174518866D02*
X99708830Y-174485194D01*
X99708830Y-174485194D02*
X99776174Y-174485194D01*
X99776174Y-174485194D02*
X99877189Y-174518866D01*
X99877189Y-174518866D02*
X100045548Y-174687224D01*
X100045548Y-174687224D02*
X100079220Y-174788240D01*
X100079220Y-174788240D02*
X100079220Y-174855583D01*
X100079220Y-174855583D02*
X100045548Y-174956598D01*
X100045548Y-174956598D02*
X99877189Y-175124957D01*
X99877189Y-175124957D02*
X99776174Y-175158629D01*
X99776174Y-175158629D02*
X99708830Y-175158629D01*
X118583333Y-41599581D02*
X118535714Y-41647201D01*
X118535714Y-41647201D02*
X118392857Y-41694820D01*
X118392857Y-41694820D02*
X118297619Y-41694820D01*
X118297619Y-41694820D02*
X118154762Y-41647201D01*
X118154762Y-41647201D02*
X118059524Y-41551962D01*
X118059524Y-41551962D02*
X118011905Y-41456724D01*
X118011905Y-41456724D02*
X117964286Y-41266248D01*
X117964286Y-41266248D02*
X117964286Y-41123391D01*
X117964286Y-41123391D02*
X118011905Y-40932915D01*
X118011905Y-40932915D02*
X118059524Y-40837677D01*
X118059524Y-40837677D02*
X118154762Y-40742439D01*
X118154762Y-40742439D02*
X118297619Y-40694820D01*
X118297619Y-40694820D02*
X118392857Y-40694820D01*
X118392857Y-40694820D02*
X118535714Y-40742439D01*
X118535714Y-40742439D02*
X118583333Y-40790058D01*
X119535714Y-41694820D02*
X118964286Y-41694820D01*
X119250000Y-41694820D02*
X119250000Y-40694820D01*
X119250000Y-40694820D02*
X119154762Y-40837677D01*
X119154762Y-40837677D02*
X119059524Y-40932915D01*
X119059524Y-40932915D02*
X118964286Y-40980534D01*
X99306142Y-116126009D02*
X98733722Y-116024994D01*
X98902081Y-116530070D02*
X98194974Y-115822963D01*
X98194974Y-115822963D02*
X98464348Y-115553589D01*
X98464348Y-115553589D02*
X98565364Y-115519918D01*
X98565364Y-115519918D02*
X98632707Y-115519918D01*
X98632707Y-115519918D02*
X98733722Y-115553589D01*
X98733722Y-115553589D02*
X98834738Y-115654605D01*
X98834738Y-115654605D02*
X98868409Y-115755620D01*
X98868409Y-115755620D02*
X98868409Y-115822963D01*
X98868409Y-115822963D02*
X98834738Y-115923979D01*
X98834738Y-115923979D02*
X98565364Y-116193353D01*
X98801066Y-115216872D02*
X99743875Y-115688276D01*
X99743875Y-115688276D02*
X99272470Y-114745467D01*
X99440829Y-114577108D02*
X99912234Y-114105704D01*
X99912234Y-114105704D02*
X100316295Y-115115856D01*
X137160168Y-44135248D02*
X137160168Y-44849533D01*
X137160168Y-44849533D02*
X137112549Y-44992390D01*
X137112549Y-44992390D02*
X137017311Y-45087629D01*
X137017311Y-45087629D02*
X136874454Y-45135248D01*
X136874454Y-45135248D02*
X136779216Y-45135248D01*
X137588740Y-44230486D02*
X137636359Y-44182867D01*
X137636359Y-44182867D02*
X137731597Y-44135248D01*
X137731597Y-44135248D02*
X137969692Y-44135248D01*
X137969692Y-44135248D02*
X138064930Y-44182867D01*
X138064930Y-44182867D02*
X138112549Y-44230486D01*
X138112549Y-44230486D02*
X138160168Y-44325724D01*
X138160168Y-44325724D02*
X138160168Y-44420962D01*
X138160168Y-44420962D02*
X138112549Y-44563819D01*
X138112549Y-44563819D02*
X137541121Y-45135248D01*
X137541121Y-45135248D02*
X138160168Y-45135248D01*
X99306142Y-86126009D02*
X98733722Y-86024994D01*
X98902081Y-86530070D02*
X98194974Y-85822963D01*
X98194974Y-85822963D02*
X98464348Y-85553589D01*
X98464348Y-85553589D02*
X98565364Y-85519918D01*
X98565364Y-85519918D02*
X98632707Y-85519918D01*
X98632707Y-85519918D02*
X98733722Y-85553589D01*
X98733722Y-85553589D02*
X98834738Y-85654605D01*
X98834738Y-85654605D02*
X98868409Y-85755620D01*
X98868409Y-85755620D02*
X98868409Y-85822963D01*
X98868409Y-85822963D02*
X98834738Y-85923979D01*
X98834738Y-85923979D02*
X98565364Y-86193353D01*
X98801066Y-85216872D02*
X99743875Y-85688276D01*
X99743875Y-85688276D02*
X99272470Y-84745467D01*
X99912234Y-84711795D02*
X99811219Y-84745467D01*
X99811219Y-84745467D02*
X99743875Y-84745467D01*
X99743875Y-84745467D02*
X99642860Y-84711795D01*
X99642860Y-84711795D02*
X99609188Y-84678124D01*
X99609188Y-84678124D02*
X99575516Y-84577108D01*
X99575516Y-84577108D02*
X99575516Y-84509765D01*
X99575516Y-84509765D02*
X99609188Y-84408750D01*
X99609188Y-84408750D02*
X99743875Y-84274063D01*
X99743875Y-84274063D02*
X99844890Y-84240391D01*
X99844890Y-84240391D02*
X99912234Y-84240391D01*
X99912234Y-84240391D02*
X100013249Y-84274063D01*
X100013249Y-84274063D02*
X100046921Y-84307734D01*
X100046921Y-84307734D02*
X100080593Y-84408750D01*
X100080593Y-84408750D02*
X100080593Y-84476093D01*
X100080593Y-84476093D02*
X100046921Y-84577108D01*
X100046921Y-84577108D02*
X99912234Y-84711795D01*
X99912234Y-84711795D02*
X99878562Y-84812811D01*
X99878562Y-84812811D02*
X99878562Y-84880154D01*
X99878562Y-84880154D02*
X99912234Y-84981169D01*
X99912234Y-84981169D02*
X100046921Y-85115856D01*
X100046921Y-85115856D02*
X100147936Y-85149528D01*
X100147936Y-85149528D02*
X100215280Y-85149528D01*
X100215280Y-85149528D02*
X100316295Y-85115856D01*
X100316295Y-85115856D02*
X100450982Y-84981169D01*
X100450982Y-84981169D02*
X100484654Y-84880154D01*
X100484654Y-84880154D02*
X100484654Y-84812811D01*
X100484654Y-84812811D02*
X100450982Y-84711795D01*
X100450982Y-84711795D02*
X100316295Y-84577108D01*
X100316295Y-84577108D02*
X100215280Y-84543437D01*
X100215280Y-84543437D02*
X100147936Y-84543437D01*
X100147936Y-84543437D02*
X100046921Y-84577108D01*
X129259644Y-146101438D02*
X128687224Y-146000423D01*
X128855583Y-146505499D02*
X128148476Y-145798392D01*
X128148476Y-145798392D02*
X128417850Y-145529018D01*
X128417850Y-145529018D02*
X128518866Y-145495347D01*
X128518866Y-145495347D02*
X128586209Y-145495347D01*
X128586209Y-145495347D02*
X128687224Y-145529018D01*
X128687224Y-145529018D02*
X128788240Y-145630034D01*
X128788240Y-145630034D02*
X128821911Y-145731049D01*
X128821911Y-145731049D02*
X128821911Y-145798392D01*
X128821911Y-145798392D02*
X128788240Y-145899408D01*
X128788240Y-145899408D02*
X128518866Y-146168782D01*
X128754568Y-145192301D02*
X129697377Y-145663705D01*
X129697377Y-145663705D02*
X129225972Y-144720896D01*
X129394331Y-144552537D02*
X129832064Y-144114805D01*
X129832064Y-144114805D02*
X129865736Y-144619881D01*
X129865736Y-144619881D02*
X129966751Y-144518866D01*
X129966751Y-144518866D02*
X130067766Y-144485194D01*
X130067766Y-144485194D02*
X130135110Y-144485194D01*
X130135110Y-144485194D02*
X130236125Y-144518866D01*
X130236125Y-144518866D02*
X130404484Y-144687224D01*
X130404484Y-144687224D02*
X130438156Y-144788240D01*
X130438156Y-144788240D02*
X130438156Y-144855583D01*
X130438156Y-144855583D02*
X130404484Y-144956598D01*
X130404484Y-144956598D02*
X130202453Y-145158629D01*
X130202453Y-145158629D02*
X130101438Y-145192301D01*
X130101438Y-145192301D02*
X130034095Y-145192301D01*
X81634819Y-62548333D02*
X82349104Y-62548333D01*
X82349104Y-62548333D02*
X82491961Y-62595952D01*
X82491961Y-62595952D02*
X82587200Y-62691190D01*
X82587200Y-62691190D02*
X82634819Y-62834047D01*
X82634819Y-62834047D02*
X82634819Y-62929285D01*
X81968152Y-61643571D02*
X82634819Y-61643571D01*
X81587200Y-61881666D02*
X82301485Y-62119761D01*
X82301485Y-62119761D02*
X82301485Y-61500714D01*
X129306142Y-86126009D02*
X128733722Y-86024994D01*
X128902081Y-86530070D02*
X128194974Y-85822963D01*
X128194974Y-85822963D02*
X128464348Y-85553589D01*
X128464348Y-85553589D02*
X128565364Y-85519918D01*
X128565364Y-85519918D02*
X128632707Y-85519918D01*
X128632707Y-85519918D02*
X128733722Y-85553589D01*
X128733722Y-85553589D02*
X128834738Y-85654605D01*
X128834738Y-85654605D02*
X128868409Y-85755620D01*
X128868409Y-85755620D02*
X128868409Y-85822963D01*
X128868409Y-85822963D02*
X128834738Y-85923979D01*
X128834738Y-85923979D02*
X128565364Y-86193353D01*
X128801066Y-85216872D02*
X129743875Y-85688276D01*
X129743875Y-85688276D02*
X129272470Y-84745467D01*
X130585669Y-84846482D02*
X130181608Y-85250543D01*
X130383638Y-85048513D02*
X129676532Y-84341406D01*
X129676532Y-84341406D02*
X129710203Y-84509765D01*
X129710203Y-84509765D02*
X129710203Y-84644452D01*
X129710203Y-84644452D02*
X129676532Y-84745467D01*
D12*
%TO.C,J3*%
X93730001Y-45620001D02*
X93730001Y-48379999D01*
X111620001Y-45620000D02*
X93730001Y-45620001D01*
X111620001Y-45620000D02*
X111620001Y-48380000D01*
X111620001Y-48380000D02*
X93730001Y-48379999D01*
X112890001Y-45620001D02*
X114270001Y-45620000D01*
X114270001Y-45620000D02*
X114270000Y-47000000D01*
%TO.C,J1*%
X130891498Y-31935000D02*
X132161498Y-31935000D01*
X130891498Y-33205000D02*
X130891498Y-31935000D01*
X133238856Y-35315000D02*
X133551498Y-35315000D01*
X133238856Y-36175000D02*
X133551498Y-36175000D01*
X133238856Y-37855000D02*
X133551498Y-37855000D01*
X133238856Y-38715000D02*
X133551498Y-38715000D01*
X133238856Y-40395000D02*
X133551498Y-40395000D01*
X133238856Y-41255000D02*
X133551498Y-41255000D01*
X133321498Y-32775000D02*
X133551498Y-32775000D01*
X133321498Y-33635000D02*
X133551498Y-33635000D01*
X133551498Y-31825000D02*
X133551498Y-42205000D01*
X133551498Y-34475000D02*
X136311498Y-34475000D01*
X133551498Y-37015000D02*
X136311498Y-37015000D01*
X133551498Y-39555000D02*
X136311498Y-39555000D01*
X133551498Y-42205000D02*
X136311498Y-42205000D01*
X136311498Y-31825000D02*
X133551498Y-31825000D01*
X136311498Y-35315000D02*
X142311498Y-35315000D01*
X136311498Y-37855000D02*
X142311498Y-37855000D01*
X136311498Y-40395000D02*
X142311498Y-40395000D01*
X136311498Y-42205000D02*
X136311498Y-31825000D01*
X142311498Y-35315000D02*
X142311498Y-36175000D01*
X142311498Y-36175000D02*
X136311498Y-36175000D01*
X142311498Y-37855000D02*
X142311498Y-38715000D01*
X142311498Y-38715000D02*
X136311498Y-38715000D01*
X142311498Y-40395000D02*
X142311498Y-41255000D01*
X142311498Y-41255000D02*
X136311498Y-41255000D01*
X136311498Y-32775000D02*
X142311498Y-32775000D01*
X142311498Y-33635000D01*
X136311498Y-33635000D01*
X136311498Y-32775000D01*
G36*
X136311498Y-32775000D02*
G01*
X142311498Y-32775000D01*
X142311498Y-33635000D01*
X136311498Y-33635000D01*
X136311498Y-32775000D01*
G37*
%TO.C,RV2*%
X114583940Y-104310393D02*
X122298475Y-96595858D01*
X126689608Y-116416061D02*
X134404143Y-108701526D01*
X134404143Y-108701526D02*
X122298475Y-96595858D01*
X129196774Y-110363227D02*
G75*
G02*
X112076774Y-110363227I-8560000J0D01*
G01*
X112076774Y-110363227D02*
G75*
G02*
X129196774Y-110363227I8560000J0D01*
G01*
%TO.C,RV6*%
X84630438Y-134334964D02*
X92344973Y-126620429D01*
X96736106Y-146440632D02*
X104450641Y-138726097D01*
X104450641Y-138726097D02*
X92344973Y-126620429D01*
X99243272Y-140387798D02*
G75*
G02*
X82123272Y-140387798I-8560000J0D01*
G01*
X82123272Y-140387798D02*
G75*
G02*
X99243272Y-140387798I8560000J0D01*
G01*
%TO.C,RV4*%
X114583940Y-164310393D02*
X122298475Y-156595858D01*
X126689608Y-176416061D02*
X134404143Y-168701526D01*
X134404143Y-168701526D02*
X122298475Y-156595858D01*
X129196774Y-170363227D02*
G75*
G02*
X112076774Y-170363227I-8560000J0D01*
G01*
X112076774Y-170363227D02*
G75*
G02*
X129196774Y-170363227I8560000J0D01*
G01*
%TO.C,RV5*%
X84583940Y-164310393D02*
X92298475Y-156595858D01*
X96689608Y-176416061D02*
X104404143Y-168701526D01*
X104404143Y-168701526D02*
X92298475Y-156595858D01*
X99196774Y-170363227D02*
G75*
G02*
X82076774Y-170363227I-8560000J0D01*
G01*
X82076774Y-170363227D02*
G75*
G02*
X99196774Y-170363227I8560000J0D01*
G01*
%TO.C,C1*%
X116130000Y-42370000D02*
X121370000Y-42370000D01*
X116130000Y-45110000D02*
X116130000Y-42370000D01*
X121370000Y-42370000D02*
X121370000Y-45110000D01*
X121370000Y-45110000D02*
X116130000Y-45110000D01*
%TO.C,RV7*%
X84630438Y-104334964D02*
X92344973Y-96620429D01*
X96736106Y-116440632D02*
X104450641Y-108726097D01*
X104450641Y-108726097D02*
X92344973Y-96620429D01*
X99243272Y-110387798D02*
G75*
G02*
X82123272Y-110387798I-8560000J0D01*
G01*
X82123272Y-110387798D02*
G75*
G02*
X99243272Y-110387798I8560000J0D01*
G01*
%TO.C,J2*%
X130845000Y-45705000D02*
X132115000Y-45705000D01*
X130845000Y-46975000D02*
X130845000Y-45705000D01*
X133192358Y-49085000D02*
X133505000Y-49085000D01*
X133192358Y-49945000D02*
X133505000Y-49945000D01*
X133275000Y-46545000D02*
X133505000Y-46545000D01*
X133275000Y-47405000D02*
X133505000Y-47405000D01*
X133505000Y-45595000D02*
X133505000Y-50895000D01*
X133505000Y-48245000D02*
X136265000Y-48245000D01*
X133505000Y-50895000D02*
X136265000Y-50895000D01*
X136265000Y-45595000D02*
X133505000Y-45595000D01*
X136265000Y-49085000D02*
X142265000Y-49085000D01*
X136265000Y-50895000D02*
X136265000Y-45595000D01*
X142265000Y-49085000D02*
X142265000Y-49945000D01*
X142265000Y-49945000D02*
X136265000Y-49945000D01*
X136265000Y-46545000D02*
X142265000Y-46545000D01*
X142265000Y-47405000D01*
X136265000Y-47405000D01*
X136265000Y-46545000D01*
G36*
X136265000Y-46545000D02*
G01*
X142265000Y-46545000D01*
X142265000Y-47405000D01*
X136265000Y-47405000D01*
X136265000Y-46545000D01*
G37*
%TO.C,RV8*%
X84630438Y-74334964D02*
X92344973Y-66620429D01*
X96736106Y-86440632D02*
X104450641Y-78726097D01*
X104450641Y-78726097D02*
X92344973Y-66620429D01*
X99243272Y-80387798D02*
G75*
G02*
X82123272Y-80387798I-8560000J0D01*
G01*
X82123272Y-80387798D02*
G75*
G02*
X99243272Y-80387798I8560000J0D01*
G01*
%TO.C,RV3*%
X114583940Y-134310393D02*
X122298475Y-126595858D01*
X126689608Y-146416061D02*
X134404143Y-138701526D01*
X134404143Y-138701526D02*
X122298475Y-126595858D01*
X129196774Y-140363227D02*
G75*
G02*
X112076774Y-140363227I-8560000J0D01*
G01*
X112076774Y-140363227D02*
G75*
G02*
X129196774Y-140363227I8560000J0D01*
G01*
%TO.C,J4*%
X83620000Y-60885000D02*
X84950000Y-60885000D01*
X83620000Y-62215000D02*
X83620000Y-60885000D01*
X86220001Y-60885000D02*
X124379999Y-60885000D01*
X86220001Y-63545000D02*
X86220001Y-60885000D01*
X86220001Y-63545000D02*
X124379999Y-63545000D01*
X124379999Y-63545000D02*
X124379999Y-60885000D01*
%TO.C,RV1*%
X114630438Y-74334964D02*
X122344973Y-66620429D01*
X126736106Y-86440632D02*
X134450641Y-78726097D01*
X134450641Y-78726097D02*
X122344973Y-66620429D01*
X129243272Y-80387798D02*
G75*
G02*
X112123272Y-80387798I-8560000J0D01*
G01*
X112123272Y-80387798D02*
G75*
G02*
X129243272Y-80387798I8560000J0D01*
G01*
%TD*%
M02*
