M48
; DRILL file {KiCad 9.0.4} date 2026-03-08T23:29:43+0800
; FORMAT={-:-/ absolute / metric / decimal}
; #@! TF.CreationDate,2026-03-08T23:29:43+08:00
; #@! TF.GenerationSoftware,Kicad,Pcbnew,9.0.4
; #@! TF.FileFunction,Plated,1,2,PTH
FMAT,2
METRIC
; #@! TA.AperFunction,Plated,PTH,ComponentDrill
T1C0.800
; #@! TA.AperFunction,Plated,PTH,ComponentDrill
T2C1.000
; #@! TA.AperFunction,Plated,PTH,ComponentDrill
T3C1.300
; #@! TA.AperFunction,Plated,PTH,ComponentDrill
T4C3.200
%
G90
G05
T1
X117.5Y-43.74
X120.0Y-43.74
T2
X84.95Y-62.215
X87.49Y-62.215
X90.03Y-62.215
X92.57Y-62.215
X95.11Y-47.0
X95.11Y-62.215
X97.65Y-62.215
X97.65Y-47.0
X100.19Y-62.215
X100.19Y-47.0
X102.73Y-47.0
X102.73Y-62.215
X105.27Y-62.215
X105.27Y-47.0
X107.81Y-62.215
X107.81Y-47.0
X110.35Y-62.215
X110.35Y-47.0
X112.89Y-62.215
X112.89Y-47.0
X115.43Y-62.215
X117.97Y-62.215
X120.51Y-62.215
X123.05Y-62.215
X132.115Y-46.975
X132.115Y-49.515
X132.161Y-33.205
X132.161Y-35.745
X132.161Y-38.285
X132.161Y-40.825
T3
X95.975Y-157.954
X96.022Y-67.978
X96.022Y-97.978
X96.022Y-127.978
X99.511Y-161.489
X99.557Y-71.514
X99.557Y-101.514
X99.557Y-131.514
X103.046Y-165.025
X103.093Y-75.049
X103.093Y-105.049
X103.093Y-135.049
X125.975Y-97.954
X125.975Y-127.954
X125.975Y-157.954
X126.022Y-67.978
X129.511Y-101.489
X129.511Y-131.489
X129.511Y-161.489
X129.557Y-71.514
X133.046Y-105.025
X133.046Y-135.025
X133.046Y-165.025
X133.093Y-75.049
T4
X83.0Y-36.0
X83.0Y-181.0
X137.0Y-181.0
M30
