%TF.GenerationSoftware,KiCad,Pcbnew,9.0.4*%
%TF.CreationDate,2026-03-08T23:27:07+08:00*%
%TF.ProjectId,Potentiometer+MUX,506f7465-6e74-4696-9f6d-657465722b4d,rev?*%
%TF.SameCoordinates,Original*%
%TF.FileFunction,Copper,L2,Bot*%
%TF.FilePolarity,Positive*%
%FSLAX46Y46*%
G04 Gerber Fmt 4.6, Leading zero omitted, Abs format (unit mm)*
G04 Created by KiCad (PCBNEW 9.0.4) date 2026-03-08 23:27:07*
%MOMM*%
%LPD*%
G01*
G04 APERTURE LIST*
%TA.AperFunction,ComponentPad*%
%ADD10R,1.700000X1.700000*%
%TD*%
%TA.AperFunction,ComponentPad*%
%ADD11C,1.700000*%
%TD*%
%TA.AperFunction,ComponentPad*%
%ADD12C,2.340000*%
%TD*%
%TA.AperFunction,ComponentPad*%
%ADD13C,3.600000*%
%TD*%
%TA.AperFunction,ConnectorPad*%
%ADD14C,5.700000*%
%TD*%
%TA.AperFunction,ComponentPad*%
%ADD15C,1.600000*%
%TD*%
G04 APERTURE END LIST*
D10*
%TO.P,J3,1,Pin_1*%
%TO.N,GND*%
X112890001Y-47000000D03*
D11*
%TO.P,J3,2,Pin_2*%
%TO.N,+3.3V*%
X110350001Y-47000000D03*
%TO.P,J3,3,Pin_3*%
%TO.N,GND*%
X107810002Y-47000000D03*
%TO.P,J3,4,Pin_4*%
%TO.N,Net-(J1-Pin_4)*%
X105270001Y-47000000D03*
%TO.P,J3,5,Pin_5*%
%TO.N,Net-(J1-Pin_3)*%
X102730001Y-47000000D03*
%TO.P,J3,6,Pin_6*%
%TO.N,Net-(J1-Pin_2)*%
X100190001Y-47000000D03*
%TO.P,J3,7,Pin_7*%
%TO.N,unconnected-(J3-Pin_7-Pad7)*%
X97650001Y-47000000D03*
%TO.P,J3,8,Pin_8*%
%TO.N,Net-(J1-Pin_1)*%
X95110000Y-47000000D03*
%TD*%
D10*
%TO.P,J1,1,Pin_1*%
%TO.N,Net-(J1-Pin_1)*%
X132161498Y-33205000D03*
D11*
%TO.P,J1,2,Pin_2*%
%TO.N,Net-(J1-Pin_2)*%
X132161498Y-35745000D03*
%TO.P,J1,3,Pin_3*%
%TO.N,Net-(J1-Pin_3)*%
X132161498Y-38285000D03*
%TO.P,J1,4,Pin_4*%
%TO.N,Net-(J1-Pin_4)*%
X132161498Y-40825000D03*
%TD*%
D12*
%TO.P,RV2,1,1*%
%TO.N,+3.3V*%
X125975430Y-97953503D03*
%TO.P,RV2,2,2*%
%TO.N,Net-(J4-Pin_15)*%
X129510964Y-101489037D03*
%TO.P,RV2,3,3*%
%TO.N,GND*%
X133046498Y-105024571D03*
%TD*%
%TO.P,RV6,1,1*%
%TO.N,+3.3V*%
X96021928Y-127978074D03*
%TO.P,RV6,2,2*%
%TO.N,Net-(J4-Pin_11)*%
X99557462Y-131513608D03*
%TO.P,RV6,3,3*%
%TO.N,GND*%
X103092996Y-135049142D03*
%TD*%
%TO.P,RV4,1,1*%
%TO.N,+3.3V*%
X125975430Y-157953503D03*
%TO.P,RV4,2,2*%
%TO.N,Net-(J4-Pin_13)*%
X129510964Y-161489037D03*
%TO.P,RV4,3,3*%
%TO.N,GND*%
X133046498Y-165024571D03*
%TD*%
D13*
%TO.P,REF\u002A\u002A,1*%
%TO.N,N/C*%
X83000000Y-181000000D03*
D14*
X83000000Y-181000000D03*
%TD*%
D12*
%TO.P,RV5,1,1*%
%TO.N,+3.3V*%
X95975430Y-157953503D03*
%TO.P,RV5,2,2*%
%TO.N,Net-(J4-Pin_12)*%
X99510964Y-161489037D03*
%TO.P,RV5,3,3*%
%TO.N,GND*%
X103046498Y-165024571D03*
%TD*%
D15*
%TO.P,C1,1*%
%TO.N,+3.3V*%
X117500000Y-43740000D03*
%TO.P,C1,2*%
%TO.N,GND*%
X120000000Y-43740000D03*
%TD*%
D12*
%TO.P,RV7,1,1*%
%TO.N,+3.3V*%
X96021928Y-97978074D03*
%TO.P,RV7,2,2*%
%TO.N,Net-(J4-Pin_10)*%
X99557462Y-101513608D03*
%TO.P,RV7,3,3*%
%TO.N,GND*%
X103092996Y-105049142D03*
%TD*%
D10*
%TO.P,J2,1,Pin_1*%
%TO.N,+3.3V*%
X132115000Y-46975000D03*
D11*
%TO.P,J2,2,Pin_2*%
%TO.N,GND*%
X132115000Y-49515000D03*
%TD*%
D13*
%TO.P,REF\u002A\u002A,1*%
%TO.N,N/C*%
X83000000Y-36000000D03*
D14*
X83000000Y-36000000D03*
%TD*%
D12*
%TO.P,RV8,1,1*%
%TO.N,+3.3V*%
X96021928Y-67978074D03*
%TO.P,RV8,2,2*%
%TO.N,Net-(J4-Pin_9)*%
X99557462Y-71513608D03*
%TO.P,RV8,3,3*%
%TO.N,GND*%
X103092996Y-75049142D03*
%TD*%
%TO.P,RV3,1,1*%
%TO.N,+3.3V*%
X125975430Y-127953503D03*
%TO.P,RV3,2,2*%
%TO.N,Net-(J4-Pin_14)*%
X129510964Y-131489037D03*
%TO.P,RV3,3,3*%
%TO.N,GND*%
X133046498Y-135024571D03*
%TD*%
D10*
%TO.P,J4,1,Pin_1*%
%TO.N,unconnected-(J4-Pin_1-Pad1)*%
X84950000Y-62215000D03*
D11*
%TO.P,J4,2,Pin_2*%
%TO.N,unconnected-(J4-Pin_2-Pad2)*%
X87490000Y-62215000D03*
%TO.P,J4,3,Pin_3*%
%TO.N,unconnected-(J4-Pin_3-Pad3)*%
X90029999Y-62215000D03*
%TO.P,J4,4,Pin_4*%
%TO.N,unconnected-(J4-Pin_4-Pad4)*%
X92570000Y-62215000D03*
%TO.P,J4,5,Pin_5*%
%TO.N,unconnected-(J4-Pin_5-Pad5)*%
X95110000Y-62215000D03*
%TO.P,J4,6,Pin_6*%
%TO.N,unconnected-(J4-Pin_6-Pad6)*%
X97650000Y-62215000D03*
%TO.P,J4,7,Pin_7*%
%TO.N,unconnected-(J4-Pin_7-Pad7)*%
X100190000Y-62215000D03*
%TO.P,J4,8,Pin_8*%
%TO.N,unconnected-(J4-Pin_8-Pad8)*%
X102730001Y-62215000D03*
%TO.P,J4,9,Pin_9*%
%TO.N,Net-(J4-Pin_9)*%
X105270000Y-62215000D03*
%TO.P,J4,10,Pin_10*%
%TO.N,Net-(J4-Pin_10)*%
X107810000Y-62215000D03*
%TO.P,J4,11,Pin_11*%
%TO.N,Net-(J4-Pin_11)*%
X110350000Y-62215000D03*
%TO.P,J4,12,Pin_12*%
%TO.N,Net-(J4-Pin_12)*%
X112889999Y-62215000D03*
%TO.P,J4,13,Pin_13*%
%TO.N,Net-(J4-Pin_13)*%
X115430000Y-62215000D03*
%TO.P,J4,14,Pin_14*%
%TO.N,Net-(J4-Pin_14)*%
X117970000Y-62215000D03*
%TO.P,J4,15,Pin_15*%
%TO.N,Net-(J4-Pin_15)*%
X120510000Y-62215000D03*
%TO.P,J4,16,Pin_16*%
%TO.N,Net-(J4-Pin_16)*%
X123049999Y-62215000D03*
%TD*%
D13*
%TO.P,REF\u002A\u002A,1*%
%TO.N,N/C*%
X137000000Y-181000000D03*
D14*
X137000000Y-181000000D03*
%TD*%
D12*
%TO.P,RV1,1,1*%
%TO.N,+3.3V*%
X126021928Y-67978074D03*
%TO.P,RV1,2,2*%
%TO.N,Net-(J4-Pin_16)*%
X129557462Y-71513608D03*
%TO.P,RV1,3,3*%
%TO.N,GND*%
X133092996Y-75049142D03*
%TD*%
%TA.AperFunction,Conductor*%
%TO.N,GND*%
G36*
X142442539Y-30520185D02*
G01*
X142488294Y-30572989D01*
X142499500Y-30624500D01*
X142499500Y-174876000D01*
X142479815Y-174943039D01*
X142427011Y-174988794D01*
X142375500Y-175000000D01*
X131000000Y-175000000D01*
X131000000Y-186375500D01*
X130980315Y-186442539D01*
X130927511Y-186488294D01*
X130876000Y-186499500D01*
X89124000Y-186499500D01*
X89056961Y-186479815D01*
X89011206Y-186427011D01*
X89000000Y-186375500D01*
X89000000Y-175000000D01*
X77624500Y-175000000D01*
X77557461Y-174980315D01*
X77511706Y-174927511D01*
X77500500Y-174876000D01*
X77500500Y-164774570D01*
X101395001Y-164774570D01*
X101395002Y-164774571D01*
X102446497Y-164774571D01*
X102421477Y-164834973D01*
X102396498Y-164960552D01*
X102396498Y-165088590D01*
X102421477Y-165214169D01*
X102446497Y-165274571D01*
X101395001Y-165274571D01*
X101405071Y-165351065D01*
X101405072Y-165351070D01*
X101461732Y-165562527D01*
X101545502Y-165764769D01*
X101545510Y-165764785D01*
X101654960Y-165954356D01*
X101654971Y-165954372D01*
X101788230Y-166128039D01*
X101788236Y-166128046D01*
X101943022Y-166282832D01*
X101943029Y-166282838D01*
X102116696Y-166416097D01*
X102116712Y-166416108D01*
X102306283Y-166525558D01*
X102306299Y-166525566D01*
X102508541Y-166609336D01*
X102719998Y-166665996D01*
X102720003Y-166665997D01*
X102796497Y-166676067D01*
X102796498Y-166676067D01*
X102796498Y-165624572D01*
X102856900Y-165649592D01*
X102982479Y-165674571D01*
X103110517Y-165674571D01*
X103236096Y-165649592D01*
X103296498Y-165624572D01*
X103296498Y-166676067D01*
X103372992Y-166665997D01*
X103372997Y-166665996D01*
X103584454Y-166609336D01*
X103786696Y-166525566D01*
X103786712Y-166525558D01*
X103976283Y-166416108D01*
X103976299Y-166416097D01*
X104149966Y-166282838D01*
X104149973Y-166282832D01*
X104304759Y-166128046D01*
X104304765Y-166128039D01*
X104438024Y-165954372D01*
X104438035Y-165954356D01*
X104547485Y-165764785D01*
X104547493Y-165764769D01*
X104631263Y-165562527D01*
X104687923Y-165351070D01*
X104687924Y-165351065D01*
X104697995Y-165274571D01*
X103646499Y-165274571D01*
X103671519Y-165214169D01*
X103696498Y-165088590D01*
X103696498Y-164960552D01*
X103671519Y-164834973D01*
X103646499Y-164774571D01*
X104697994Y-164774571D01*
X104697994Y-164774570D01*
X131395001Y-164774570D01*
X131395002Y-164774571D01*
X132446497Y-164774571D01*
X132421477Y-164834973D01*
X132396498Y-164960552D01*
X132396498Y-165088590D01*
X132421477Y-165214169D01*
X132446497Y-165274571D01*
X131395001Y-165274571D01*
X131405071Y-165351065D01*
X131405072Y-165351070D01*
X131461732Y-165562527D01*
X131545502Y-165764769D01*
X131545510Y-165764785D01*
X131654960Y-165954356D01*
X131654971Y-165954372D01*
X131788230Y-166128039D01*
X131788236Y-166128046D01*
X131943022Y-166282832D01*
X131943029Y-166282838D01*
X132116696Y-166416097D01*
X132116712Y-166416108D01*
X132306283Y-166525558D01*
X132306299Y-166525566D01*
X132508541Y-166609336D01*
X132719998Y-166665996D01*
X132720003Y-166665997D01*
X132796497Y-166676067D01*
X132796498Y-166676067D01*
X132796498Y-165624572D01*
X132856900Y-165649592D01*
X132982479Y-165674571D01*
X133110517Y-165674571D01*
X133236096Y-165649592D01*
X133296498Y-165624572D01*
X133296498Y-166676067D01*
X133372992Y-166665997D01*
X133372997Y-166665996D01*
X133584454Y-166609336D01*
X133786696Y-166525566D01*
X133786712Y-166525558D01*
X133976283Y-166416108D01*
X133976299Y-166416097D01*
X134149966Y-166282838D01*
X134149973Y-166282832D01*
X134304759Y-166128046D01*
X134304765Y-166128039D01*
X134438024Y-165954372D01*
X134438035Y-165954356D01*
X134547485Y-165764785D01*
X134547493Y-165764769D01*
X134631263Y-165562527D01*
X134687923Y-165351070D01*
X134687924Y-165351065D01*
X134697995Y-165274571D01*
X133646499Y-165274571D01*
X133671519Y-165214169D01*
X133696498Y-165088590D01*
X133696498Y-164960552D01*
X133671519Y-164834973D01*
X133646499Y-164774571D01*
X134697994Y-164774571D01*
X134697994Y-164774570D01*
X134687924Y-164698076D01*
X134687923Y-164698071D01*
X134631263Y-164486614D01*
X134547493Y-164284372D01*
X134547485Y-164284356D01*
X134438035Y-164094785D01*
X134438024Y-164094769D01*
X134304765Y-163921102D01*
X134304759Y-163921095D01*
X134149973Y-163766309D01*
X134149966Y-163766303D01*
X133976299Y-163633044D01*
X133976283Y-163633033D01*
X133786712Y-163523583D01*
X133786696Y-163523575D01*
X133584454Y-163439805D01*
X133372997Y-163383145D01*
X133372990Y-163383144D01*
X133296498Y-163373072D01*
X133296498Y-164424569D01*
X133236096Y-164399550D01*
X133110517Y-164374571D01*
X132982479Y-164374571D01*
X132856900Y-164399550D01*
X132796498Y-164424569D01*
X132796498Y-163373072D01*
X132720005Y-163383144D01*
X132719998Y-163383145D01*
X132508541Y-163439805D01*
X132306299Y-163523575D01*
X132306283Y-163523583D01*
X132116712Y-163633033D01*
X132116696Y-163633044D01*
X131943029Y-163766303D01*
X131943022Y-163766309D01*
X131788236Y-163921095D01*
X131788230Y-163921102D01*
X131654971Y-164094769D01*
X131654960Y-164094785D01*
X131545510Y-164284356D01*
X131545502Y-164284372D01*
X131461732Y-164486614D01*
X131405072Y-164698071D01*
X131405071Y-164698076D01*
X131395001Y-164774570D01*
X104697994Y-164774570D01*
X104687924Y-164698076D01*
X104687923Y-164698071D01*
X104631263Y-164486614D01*
X104547493Y-164284372D01*
X104547485Y-164284356D01*
X104438035Y-164094785D01*
X104438024Y-164094769D01*
X104304765Y-163921102D01*
X104304759Y-163921095D01*
X104149973Y-163766309D01*
X104149966Y-163766303D01*
X103976299Y-163633044D01*
X103976283Y-163633033D01*
X103786712Y-163523583D01*
X103786696Y-163523575D01*
X103584454Y-163439805D01*
X103372997Y-163383145D01*
X103372990Y-163383144D01*
X103296498Y-163373072D01*
X103296498Y-164424569D01*
X103236096Y-164399550D01*
X103110517Y-164374571D01*
X102982479Y-164374571D01*
X102856900Y-164399550D01*
X102796498Y-164424569D01*
X102796498Y-163373072D01*
X102720005Y-163383144D01*
X102719998Y-163383145D01*
X102508541Y-163439805D01*
X102306299Y-163523575D01*
X102306283Y-163523583D01*
X102116712Y-163633033D01*
X102116696Y-163633044D01*
X101943029Y-163766303D01*
X101943022Y-163766309D01*
X101788236Y-163921095D01*
X101788230Y-163921102D01*
X101654971Y-164094769D01*
X101654960Y-164094785D01*
X101545510Y-164284356D01*
X101545502Y-164284372D01*
X101461732Y-164486614D01*
X101405072Y-164698071D01*
X101405071Y-164698076D01*
X101395001Y-164774570D01*
X77500500Y-164774570D01*
X77500500Y-161379539D01*
X97840464Y-161379539D01*
X97840464Y-161598534D01*
X97864270Y-161779351D01*
X97869047Y-161815635D01*
X97925723Y-162027154D01*
X98009524Y-162229465D01*
X98009526Y-162229470D01*
X98009529Y-162229475D01*
X98119013Y-162419107D01*
X98252319Y-162592835D01*
X98252325Y-162592842D01*
X98407158Y-162747675D01*
X98407165Y-162747681D01*
X98580893Y-162880987D01*
X98770525Y-162990471D01*
X98770527Y-162990471D01*
X98770536Y-162990477D01*
X98972847Y-163074278D01*
X99184366Y-163130954D01*
X99401474Y-163159537D01*
X99401481Y-163159537D01*
X99620447Y-163159537D01*
X99620454Y-163159537D01*
X99837562Y-163130954D01*
X100049081Y-163074278D01*
X100251392Y-162990477D01*
X100441035Y-162880987D01*
X100614764Y-162747680D01*
X100769607Y-162592837D01*
X100902914Y-162419108D01*
X101012404Y-162229465D01*
X101096205Y-162027154D01*
X101152881Y-161815635D01*
X101181464Y-161598527D01*
X101181464Y-161379547D01*
X101181463Y-161379539D01*
X127840464Y-161379539D01*
X127840464Y-161598534D01*
X127864270Y-161779351D01*
X127869047Y-161815635D01*
X127925723Y-162027154D01*
X128009524Y-162229465D01*
X128009526Y-162229470D01*
X128009529Y-162229475D01*
X128119013Y-162419107D01*
X128252319Y-162592835D01*
X128252325Y-162592842D01*
X128407158Y-162747675D01*
X128407165Y-162747681D01*
X128580893Y-162880987D01*
X128770525Y-162990471D01*
X128770527Y-162990471D01*
X128770536Y-162990477D01*
X128972847Y-163074278D01*
X129184366Y-163130954D01*
X129401474Y-163159537D01*
X129401481Y-163159537D01*
X129620447Y-163159537D01*
X129620454Y-163159537D01*
X129837562Y-163130954D01*
X130049081Y-163074278D01*
X130251392Y-162990477D01*
X130441035Y-162880987D01*
X130614764Y-162747680D01*
X130769607Y-162592837D01*
X130902914Y-162419108D01*
X131012404Y-162229465D01*
X131096205Y-162027154D01*
X131152881Y-161815635D01*
X131181464Y-161598527D01*
X131181464Y-161379547D01*
X131152881Y-161162439D01*
X131096205Y-160950920D01*
X131012404Y-160748609D01*
X130902914Y-160558966D01*
X130769607Y-160385237D01*
X130769602Y-160385231D01*
X130614769Y-160230398D01*
X130614762Y-160230392D01*
X130441034Y-160097086D01*
X130251402Y-159987602D01*
X130251397Y-159987599D01*
X130251392Y-159987597D01*
X130049081Y-159903796D01*
X130049082Y-159903796D01*
X130049079Y-159903795D01*
X129943321Y-159875458D01*
X129837562Y-159847120D01*
X129801278Y-159842343D01*
X129620461Y-159818537D01*
X129620454Y-159818537D01*
X129401474Y-159818537D01*
X129401466Y-159818537D01*
X129194817Y-159845744D01*
X129184366Y-159847120D01*
X129139663Y-159859097D01*
X128972848Y-159903795D01*
X128854338Y-159952884D01*
X128770536Y-159987597D01*
X128770533Y-159987598D01*
X128770525Y-159987602D01*
X128580893Y-160097086D01*
X128407165Y-160230392D01*
X128407158Y-160230398D01*
X128252325Y-160385231D01*
X128252319Y-160385238D01*
X128119013Y-160558966D01*
X128009529Y-160748598D01*
X128009524Y-160748610D01*
X127925722Y-160950921D01*
X127869048Y-161162436D01*
X127869046Y-161162447D01*
X127840464Y-161379539D01*
X101181463Y-161379539D01*
X101152881Y-161162439D01*
X101096205Y-160950920D01*
X101012404Y-160748609D01*
X100902914Y-160558966D01*
X100769607Y-160385237D01*
X100769602Y-160385231D01*
X100614769Y-160230398D01*
X100614762Y-160230392D01*
X100441034Y-160097086D01*
X100251402Y-159987602D01*
X100251397Y-159987599D01*
X100251392Y-159987597D01*
X100049081Y-159903796D01*
X100049082Y-159903796D01*
X100049079Y-159903795D01*
X99943321Y-159875458D01*
X99837562Y-159847120D01*
X99801278Y-159842343D01*
X99620461Y-159818537D01*
X99620454Y-159818537D01*
X99401474Y-159818537D01*
X99401466Y-159818537D01*
X99194817Y-159845744D01*
X99184366Y-159847120D01*
X99139663Y-159859097D01*
X98972848Y-159903795D01*
X98854338Y-159952884D01*
X98770536Y-159987597D01*
X98770533Y-159987598D01*
X98770525Y-159987602D01*
X98580893Y-160097086D01*
X98407165Y-160230392D01*
X98407158Y-160230398D01*
X98252325Y-160385231D01*
X98252319Y-160385238D01*
X98119013Y-160558966D01*
X98009529Y-160748598D01*
X98009524Y-160748610D01*
X97925722Y-160950921D01*
X97869048Y-161162436D01*
X97869046Y-161162447D01*
X97840464Y-161379539D01*
X77500500Y-161379539D01*
X77500500Y-157844005D01*
X94304930Y-157844005D01*
X94304930Y-158063000D01*
X94328736Y-158243817D01*
X94333513Y-158280101D01*
X94390189Y-158491620D01*
X94473990Y-158693931D01*
X94473992Y-158693936D01*
X94473995Y-158693941D01*
X94583479Y-158883573D01*
X94716785Y-159057301D01*
X94716791Y-159057308D01*
X94871624Y-159212141D01*
X94871631Y-159212147D01*
X95045359Y-159345453D01*
X95234991Y-159454937D01*
X95234993Y-159454937D01*
X95235002Y-159454943D01*
X95437313Y-159538744D01*
X95648832Y-159595420D01*
X95865940Y-159624003D01*
X95865947Y-159624003D01*
X96084913Y-159624003D01*
X96084920Y-159624003D01*
X96302028Y-159595420D01*
X96513547Y-159538744D01*
X96715858Y-159454943D01*
X96905501Y-159345453D01*
X97079230Y-159212146D01*
X97234073Y-159057303D01*
X97367380Y-158883574D01*
X97476870Y-158693931D01*
X97560671Y-158491620D01*
X97617347Y-158280101D01*
X97645930Y-158062993D01*
X97645930Y-157844013D01*
X97645929Y-157844005D01*
X124304930Y-157844005D01*
X124304930Y-158063000D01*
X124328736Y-158243817D01*
X124333513Y-158280101D01*
X124390189Y-158491620D01*
X124473990Y-158693931D01*
X124473992Y-158693936D01*
X124473995Y-158693941D01*
X124583479Y-158883573D01*
X124716785Y-159057301D01*
X124716791Y-159057308D01*
X124871624Y-159212141D01*
X124871631Y-159212147D01*
X125045359Y-159345453D01*
X125234991Y-159454937D01*
X125234993Y-159454937D01*
X125235002Y-159454943D01*
X125437313Y-159538744D01*
X125648832Y-159595420D01*
X125865940Y-159624003D01*
X125865947Y-159624003D01*
X126084913Y-159624003D01*
X126084920Y-159624003D01*
X126302028Y-159595420D01*
X126513547Y-159538744D01*
X126715858Y-159454943D01*
X126905501Y-159345453D01*
X127079230Y-159212146D01*
X127234073Y-159057303D01*
X127367380Y-158883574D01*
X127476870Y-158693931D01*
X127560671Y-158491620D01*
X127617347Y-158280101D01*
X127645930Y-158062993D01*
X127645930Y-157844013D01*
X127617347Y-157626905D01*
X127560671Y-157415386D01*
X127476870Y-157213075D01*
X127367380Y-157023432D01*
X127234073Y-156849703D01*
X127234068Y-156849697D01*
X127079235Y-156694864D01*
X127079228Y-156694858D01*
X126905500Y-156561552D01*
X126715868Y-156452068D01*
X126715863Y-156452065D01*
X126715858Y-156452063D01*
X126513547Y-156368262D01*
X126513548Y-156368262D01*
X126513545Y-156368261D01*
X126407787Y-156339924D01*
X126302028Y-156311586D01*
X126265744Y-156306809D01*
X126084927Y-156283003D01*
X126084920Y-156283003D01*
X125865940Y-156283003D01*
X125865932Y-156283003D01*
X125659283Y-156310210D01*
X125648832Y-156311586D01*
X125604129Y-156323563D01*
X125437314Y-156368261D01*
X125318804Y-156417350D01*
X125235002Y-156452063D01*
X125234999Y-156452064D01*
X125234991Y-156452068D01*
X125045359Y-156561552D01*
X124871631Y-156694858D01*
X124871624Y-156694864D01*
X124716791Y-156849697D01*
X124716785Y-156849704D01*
X124583479Y-157023432D01*
X124473995Y-157213064D01*
X124473990Y-157213076D01*
X124390188Y-157415387D01*
X124333514Y-157626902D01*
X124333512Y-157626913D01*
X124304930Y-157844005D01*
X97645929Y-157844005D01*
X97617347Y-157626905D01*
X97560671Y-157415386D01*
X97476870Y-157213075D01*
X97367380Y-157023432D01*
X97234073Y-156849703D01*
X97234068Y-156849697D01*
X97079235Y-156694864D01*
X97079228Y-156694858D01*
X96905500Y-156561552D01*
X96715868Y-156452068D01*
X96715863Y-156452065D01*
X96715858Y-156452063D01*
X96513547Y-156368262D01*
X96513548Y-156368262D01*
X96513545Y-156368261D01*
X96407787Y-156339924D01*
X96302028Y-156311586D01*
X96265744Y-156306809D01*
X96084927Y-156283003D01*
X96084920Y-156283003D01*
X95865940Y-156283003D01*
X95865932Y-156283003D01*
X95659283Y-156310210D01*
X95648832Y-156311586D01*
X95604129Y-156323563D01*
X95437314Y-156368261D01*
X95318804Y-156417350D01*
X95235002Y-156452063D01*
X95234999Y-156452064D01*
X95234991Y-156452068D01*
X95045359Y-156561552D01*
X94871631Y-156694858D01*
X94871624Y-156694864D01*
X94716791Y-156849697D01*
X94716785Y-156849704D01*
X94583479Y-157023432D01*
X94473995Y-157213064D01*
X94473990Y-157213076D01*
X94390188Y-157415387D01*
X94333514Y-157626902D01*
X94333512Y-157626913D01*
X94304930Y-157844005D01*
X77500500Y-157844005D01*
X77500500Y-134799141D01*
X101441499Y-134799141D01*
X101441500Y-134799142D01*
X102492995Y-134799142D01*
X102467975Y-134859544D01*
X102442996Y-134985123D01*
X102442996Y-135113161D01*
X102467975Y-135238740D01*
X102492995Y-135299142D01*
X101441499Y-135299142D01*
X101451569Y-135375636D01*
X101451570Y-135375641D01*
X101508230Y-135587098D01*
X101592000Y-135789340D01*
X101592008Y-135789356D01*
X101701458Y-135978927D01*
X101701469Y-135978943D01*
X101834728Y-136152610D01*
X101834734Y-136152617D01*
X101989520Y-136307403D01*
X101989527Y-136307409D01*
X102163194Y-136440668D01*
X102163210Y-136440679D01*
X102352781Y-136550129D01*
X102352797Y-136550137D01*
X102555039Y-136633907D01*
X102766496Y-136690567D01*
X102766501Y-136690568D01*
X102842995Y-136700638D01*
X102842996Y-136700638D01*
X102842996Y-135649143D01*
X102903398Y-135674163D01*
X103028977Y-135699142D01*
X103157015Y-135699142D01*
X103282594Y-135674163D01*
X103342996Y-135649143D01*
X103342996Y-136700638D01*
X103419490Y-136690568D01*
X103419495Y-136690567D01*
X103630952Y-136633907D01*
X103833194Y-136550137D01*
X103833210Y-136550129D01*
X104022781Y-136440679D01*
X104022797Y-136440668D01*
X104196464Y-136307409D01*
X104196471Y-136307403D01*
X104351257Y-136152617D01*
X104351263Y-136152610D01*
X104484522Y-135978943D01*
X104484533Y-135978927D01*
X104593983Y-135789356D01*
X104593991Y-135789340D01*
X104677761Y-135587098D01*
X104734421Y-135375641D01*
X104734422Y-135375636D01*
X104744493Y-135299142D01*
X103692997Y-135299142D01*
X103718017Y-135238740D01*
X103742996Y-135113161D01*
X103742996Y-134985123D01*
X103718017Y-134859544D01*
X103692997Y-134799142D01*
X104744492Y-134799142D01*
X104744492Y-134799141D01*
X104741257Y-134774570D01*
X131395001Y-134774570D01*
X131395002Y-134774571D01*
X132446497Y-134774571D01*
X132421477Y-134834973D01*
X132396498Y-134960552D01*
X132396498Y-135088590D01*
X132421477Y-135214169D01*
X132446497Y-135274571D01*
X131395001Y-135274571D01*
X131405071Y-135351065D01*
X131405072Y-135351070D01*
X131461732Y-135562527D01*
X131545502Y-135764769D01*
X131545510Y-135764785D01*
X131654960Y-135954356D01*
X131654971Y-135954372D01*
X131788230Y-136128039D01*
X131788236Y-136128046D01*
X131943022Y-136282832D01*
X131943029Y-136282838D01*
X132116696Y-136416097D01*
X132116712Y-136416108D01*
X132306283Y-136525558D01*
X132306299Y-136525566D01*
X132508541Y-136609336D01*
X132719998Y-136665996D01*
X132720003Y-136665997D01*
X132796497Y-136676067D01*
X132796498Y-136676067D01*
X132796498Y-135624572D01*
X132856900Y-135649592D01*
X132982479Y-135674571D01*
X133110517Y-135674571D01*
X133236096Y-135649592D01*
X133296498Y-135624572D01*
X133296498Y-136676067D01*
X133372992Y-136665997D01*
X133372997Y-136665996D01*
X133584454Y-136609336D01*
X133786696Y-136525566D01*
X133786712Y-136525558D01*
X133976283Y-136416108D01*
X133976299Y-136416097D01*
X134149966Y-136282838D01*
X134149973Y-136282832D01*
X134304759Y-136128046D01*
X134304765Y-136128039D01*
X134438024Y-135954372D01*
X134438035Y-135954356D01*
X134547485Y-135764785D01*
X134547493Y-135764769D01*
X134631263Y-135562527D01*
X134687923Y-135351070D01*
X134687924Y-135351065D01*
X134697995Y-135274571D01*
X133646499Y-135274571D01*
X133671519Y-135214169D01*
X133696498Y-135088590D01*
X133696498Y-134960552D01*
X133671519Y-134834973D01*
X133646499Y-134774571D01*
X134697994Y-134774571D01*
X134697994Y-134774570D01*
X134687924Y-134698076D01*
X134687923Y-134698071D01*
X134631263Y-134486614D01*
X134547493Y-134284372D01*
X134547485Y-134284356D01*
X134438035Y-134094785D01*
X134438024Y-134094769D01*
X134304765Y-133921102D01*
X134304759Y-133921095D01*
X134149973Y-133766309D01*
X134149966Y-133766303D01*
X133976299Y-133633044D01*
X133976283Y-133633033D01*
X133786712Y-133523583D01*
X133786696Y-133523575D01*
X133584454Y-133439805D01*
X133372997Y-133383145D01*
X133372990Y-133383144D01*
X133296498Y-133373072D01*
X133296498Y-134424569D01*
X133236096Y-134399550D01*
X133110517Y-134374571D01*
X132982479Y-134374571D01*
X132856900Y-134399550D01*
X132796498Y-134424569D01*
X132796498Y-133373072D01*
X132720005Y-133383144D01*
X132719998Y-133383145D01*
X132508541Y-133439805D01*
X132306299Y-133523575D01*
X132306283Y-133523583D01*
X132116712Y-133633033D01*
X132116696Y-133633044D01*
X131943029Y-133766303D01*
X131943022Y-133766309D01*
X131788236Y-133921095D01*
X131788230Y-133921102D01*
X131654971Y-134094769D01*
X131654960Y-134094785D01*
X131545510Y-134284356D01*
X131545502Y-134284372D01*
X131461732Y-134486614D01*
X131405072Y-134698071D01*
X131405071Y-134698076D01*
X131395001Y-134774570D01*
X104741257Y-134774570D01*
X104734422Y-134722649D01*
X104734421Y-134722642D01*
X104677761Y-134511185D01*
X104593991Y-134308943D01*
X104593983Y-134308927D01*
X104484533Y-134119356D01*
X104484522Y-134119340D01*
X104351263Y-133945673D01*
X104351257Y-133945666D01*
X104196471Y-133790880D01*
X104196464Y-133790874D01*
X104022797Y-133657615D01*
X104022781Y-133657604D01*
X103833210Y-133548154D01*
X103833194Y-133548146D01*
X103630952Y-133464376D01*
X103419495Y-133407716D01*
X103419488Y-133407715D01*
X103342996Y-133397643D01*
X103342996Y-134449140D01*
X103282594Y-134424121D01*
X103157015Y-134399142D01*
X103028977Y-134399142D01*
X102903398Y-134424121D01*
X102842996Y-134449140D01*
X102842996Y-133397643D01*
X102766503Y-133407715D01*
X102766496Y-133407716D01*
X102555039Y-133464376D01*
X102352797Y-133548146D01*
X102352781Y-133548154D01*
X102163210Y-133657604D01*
X102163194Y-133657615D01*
X101989527Y-133790874D01*
X101989520Y-133790880D01*
X101834734Y-133945666D01*
X101834728Y-133945673D01*
X101701469Y-134119340D01*
X101701458Y-134119356D01*
X101592008Y-134308927D01*
X101592000Y-134308943D01*
X101508230Y-134511185D01*
X101451570Y-134722642D01*
X101451569Y-134722647D01*
X101441499Y-134799141D01*
X77500500Y-134799141D01*
X77500500Y-131404110D01*
X97886962Y-131404110D01*
X97886962Y-131623105D01*
X97910768Y-131803922D01*
X97915545Y-131840206D01*
X97915546Y-131840208D01*
X97965636Y-132027152D01*
X97972221Y-132051725D01*
X98056022Y-132254036D01*
X98056024Y-132254041D01*
X98056027Y-132254046D01*
X98165511Y-132443678D01*
X98298817Y-132617406D01*
X98298823Y-132617413D01*
X98453656Y-132772246D01*
X98453663Y-132772252D01*
X98627391Y-132905558D01*
X98817023Y-133015042D01*
X98817025Y-133015042D01*
X98817034Y-133015048D01*
X99019345Y-133098849D01*
X99230864Y-133155525D01*
X99447972Y-133184108D01*
X99447979Y-133184108D01*
X99666945Y-133184108D01*
X99666952Y-133184108D01*
X99884060Y-133155525D01*
X100095579Y-133098849D01*
X100297890Y-133015048D01*
X100487533Y-132905558D01*
X100661262Y-132772251D01*
X100816105Y-132617408D01*
X100949412Y-132443679D01*
X101058902Y-132254036D01*
X101142703Y-132051725D01*
X101199379Y-131840206D01*
X101227962Y-131623098D01*
X101227962Y-131404118D01*
X101227402Y-131399866D01*
X101226324Y-131391672D01*
X101224727Y-131379539D01*
X127840464Y-131379539D01*
X127840464Y-131598534D01*
X127864270Y-131779351D01*
X127869047Y-131815635D01*
X127925723Y-132027154D01*
X128009524Y-132229465D01*
X128009526Y-132229470D01*
X128009529Y-132229475D01*
X128119013Y-132419107D01*
X128252319Y-132592835D01*
X128252325Y-132592842D01*
X128407158Y-132747675D01*
X128407165Y-132747681D01*
X128580893Y-132880987D01*
X128770525Y-132990471D01*
X128770527Y-132990471D01*
X128770536Y-132990477D01*
X128972847Y-133074278D01*
X129184366Y-133130954D01*
X129401474Y-133159537D01*
X129401481Y-133159537D01*
X129620447Y-133159537D01*
X129620454Y-133159537D01*
X129837562Y-133130954D01*
X130049081Y-133074278D01*
X130251392Y-132990477D01*
X130441035Y-132880987D01*
X130614764Y-132747680D01*
X130769607Y-132592837D01*
X130902914Y-132419108D01*
X131012404Y-132229465D01*
X131096205Y-132027154D01*
X131152881Y-131815635D01*
X131181464Y-131598527D01*
X131181464Y-131379547D01*
X131152881Y-131162439D01*
X131096205Y-130950920D01*
X131012404Y-130748609D01*
X130902914Y-130558966D01*
X130788461Y-130409808D01*
X130769608Y-130385238D01*
X130769602Y-130385231D01*
X130614769Y-130230398D01*
X130614762Y-130230392D01*
X130441034Y-130097086D01*
X130251402Y-129987602D01*
X130251397Y-129987599D01*
X130251392Y-129987597D01*
X130049081Y-129903796D01*
X130049082Y-129903796D01*
X130049079Y-129903795D01*
X129943321Y-129875458D01*
X129837562Y-129847120D01*
X129801278Y-129842343D01*
X129620461Y-129818537D01*
X129620454Y-129818537D01*
X129401474Y-129818537D01*
X129401466Y-129818537D01*
X129194817Y-129845744D01*
X129184366Y-129847120D01*
X129139663Y-129859097D01*
X128972848Y-129903795D01*
X128854338Y-129952884D01*
X128770536Y-129987597D01*
X128770533Y-129987598D01*
X128770525Y-129987602D01*
X128580893Y-130097086D01*
X128407165Y-130230392D01*
X128407158Y-130230398D01*
X128252325Y-130385231D01*
X128252319Y-130385238D01*
X128119013Y-130558966D01*
X128009529Y-130748598D01*
X128009525Y-130748606D01*
X128009524Y-130748609D01*
X127999346Y-130773181D01*
X127925722Y-130950921D01*
X127869048Y-131162436D01*
X127869046Y-131162447D01*
X127840464Y-131379539D01*
X101224727Y-131379539D01*
X101216994Y-131320808D01*
X101199379Y-131187010D01*
X101142703Y-130975491D01*
X101058902Y-130773180D01*
X100949412Y-130583537D01*
X100816105Y-130409808D01*
X100816100Y-130409802D01*
X100661267Y-130254969D01*
X100661260Y-130254963D01*
X100487532Y-130121657D01*
X100297900Y-130012173D01*
X100297895Y-130012170D01*
X100297890Y-130012168D01*
X100095579Y-129928367D01*
X100095580Y-129928367D01*
X100095577Y-129928366D01*
X99989819Y-129900029D01*
X99884060Y-129871691D01*
X99847776Y-129866914D01*
X99666959Y-129843108D01*
X99666952Y-129843108D01*
X99447972Y-129843108D01*
X99447964Y-129843108D01*
X99241315Y-129870315D01*
X99230864Y-129871691D01*
X99186161Y-129883668D01*
X99019346Y-129928366D01*
X98900836Y-129977455D01*
X98817034Y-130012168D01*
X98817031Y-130012169D01*
X98817023Y-130012173D01*
X98627391Y-130121657D01*
X98453663Y-130254963D01*
X98453656Y-130254969D01*
X98298823Y-130409802D01*
X98298817Y-130409809D01*
X98165511Y-130583537D01*
X98056027Y-130773169D01*
X98056022Y-130773181D01*
X97972220Y-130975492D01*
X97915546Y-131187007D01*
X97915544Y-131187018D01*
X97886962Y-131404110D01*
X77500500Y-131404110D01*
X77500500Y-127868576D01*
X94351428Y-127868576D01*
X94351428Y-128087571D01*
X94375234Y-128268388D01*
X94380011Y-128304672D01*
X94380012Y-128304674D01*
X94430102Y-128491618D01*
X94436687Y-128516191D01*
X94520488Y-128718502D01*
X94520490Y-128718507D01*
X94520493Y-128718512D01*
X94629977Y-128908144D01*
X94763283Y-129081872D01*
X94763289Y-129081879D01*
X94918122Y-129236712D01*
X94918129Y-129236718D01*
X95091857Y-129370024D01*
X95281489Y-129479508D01*
X95281491Y-129479508D01*
X95281500Y-129479514D01*
X95483811Y-129563315D01*
X95695330Y-129619991D01*
X95912438Y-129648574D01*
X95912445Y-129648574D01*
X96131411Y-129648574D01*
X96131418Y-129648574D01*
X96348526Y-129619991D01*
X96560045Y-129563315D01*
X96762356Y-129479514D01*
X96951999Y-129370024D01*
X97125728Y-129236717D01*
X97280571Y-129081874D01*
X97413878Y-128908145D01*
X97523368Y-128718502D01*
X97607169Y-128516191D01*
X97663845Y-128304672D01*
X97692428Y-128087564D01*
X97692428Y-127868584D01*
X97691868Y-127864332D01*
X97690790Y-127856138D01*
X97689193Y-127844005D01*
X124304930Y-127844005D01*
X124304930Y-128063000D01*
X124328736Y-128243817D01*
X124333513Y-128280101D01*
X124390189Y-128491620D01*
X124473990Y-128693931D01*
X124473992Y-128693936D01*
X124473995Y-128693941D01*
X124583479Y-128883573D01*
X124716785Y-129057301D01*
X124716791Y-129057308D01*
X124871624Y-129212141D01*
X124871631Y-129212147D01*
X125045359Y-129345453D01*
X125234991Y-129454937D01*
X125234993Y-129454937D01*
X125235002Y-129454943D01*
X125437313Y-129538744D01*
X125648832Y-129595420D01*
X125865940Y-129624003D01*
X125865947Y-129624003D01*
X126084913Y-129624003D01*
X126084920Y-129624003D01*
X126302028Y-129595420D01*
X126513547Y-129538744D01*
X126715858Y-129454943D01*
X126905501Y-129345453D01*
X127079230Y-129212146D01*
X127234073Y-129057303D01*
X127367380Y-128883574D01*
X127476870Y-128693931D01*
X127560671Y-128491620D01*
X127617347Y-128280101D01*
X127645930Y-128062993D01*
X127645930Y-127844013D01*
X127617347Y-127626905D01*
X127560671Y-127415386D01*
X127476870Y-127213075D01*
X127367380Y-127023432D01*
X127252927Y-126874274D01*
X127234074Y-126849704D01*
X127234068Y-126849697D01*
X127079235Y-126694864D01*
X127079228Y-126694858D01*
X126905500Y-126561552D01*
X126715868Y-126452068D01*
X126715863Y-126452065D01*
X126715858Y-126452063D01*
X126513547Y-126368262D01*
X126513548Y-126368262D01*
X126513545Y-126368261D01*
X126407787Y-126339924D01*
X126302028Y-126311586D01*
X126265744Y-126306809D01*
X126084927Y-126283003D01*
X126084920Y-126283003D01*
X125865940Y-126283003D01*
X125865932Y-126283003D01*
X125659283Y-126310210D01*
X125648832Y-126311586D01*
X125604129Y-126323563D01*
X125437314Y-126368261D01*
X125318804Y-126417350D01*
X125235002Y-126452063D01*
X125234999Y-126452064D01*
X125234991Y-126452068D01*
X125045359Y-126561552D01*
X124871631Y-126694858D01*
X124871624Y-126694864D01*
X124716791Y-126849697D01*
X124716785Y-126849704D01*
X124583479Y-127023432D01*
X124473995Y-127213064D01*
X124473991Y-127213072D01*
X124473990Y-127213075D01*
X124463812Y-127237647D01*
X124390188Y-127415387D01*
X124333514Y-127626902D01*
X124333512Y-127626913D01*
X124304930Y-127844005D01*
X97689193Y-127844005D01*
X97681460Y-127785274D01*
X97663845Y-127651476D01*
X97607169Y-127439957D01*
X97523368Y-127237646D01*
X97413878Y-127048003D01*
X97280571Y-126874274D01*
X97280566Y-126874268D01*
X97125733Y-126719435D01*
X97125726Y-126719429D01*
X96951998Y-126586123D01*
X96762366Y-126476639D01*
X96762361Y-126476636D01*
X96762356Y-126476634D01*
X96560045Y-126392833D01*
X96560046Y-126392833D01*
X96560043Y-126392832D01*
X96454285Y-126364495D01*
X96348526Y-126336157D01*
X96312242Y-126331380D01*
X96131425Y-126307574D01*
X96131418Y-126307574D01*
X95912438Y-126307574D01*
X95912430Y-126307574D01*
X95705781Y-126334781D01*
X95695330Y-126336157D01*
X95650627Y-126348134D01*
X95483812Y-126392832D01*
X95365302Y-126441921D01*
X95281500Y-126476634D01*
X95281497Y-126476635D01*
X95281489Y-126476639D01*
X95091857Y-126586123D01*
X94918129Y-126719429D01*
X94918122Y-126719435D01*
X94763289Y-126874268D01*
X94763283Y-126874275D01*
X94629977Y-127048003D01*
X94520493Y-127237635D01*
X94520488Y-127237647D01*
X94436686Y-127439958D01*
X94380012Y-127651473D01*
X94380010Y-127651484D01*
X94351428Y-127868576D01*
X77500500Y-127868576D01*
X77500500Y-104799141D01*
X101441499Y-104799141D01*
X101441500Y-104799142D01*
X102492995Y-104799142D01*
X102467975Y-104859544D01*
X102442996Y-104985123D01*
X102442996Y-105113161D01*
X102467975Y-105238740D01*
X102492995Y-105299142D01*
X101441499Y-105299142D01*
X101451569Y-105375636D01*
X101451570Y-105375641D01*
X101508230Y-105587098D01*
X101592000Y-105789340D01*
X101592008Y-105789356D01*
X101701458Y-105978927D01*
X101701469Y-105978943D01*
X101834728Y-106152610D01*
X101834734Y-106152617D01*
X101989520Y-106307403D01*
X101989527Y-106307409D01*
X102163194Y-106440668D01*
X102163210Y-106440679D01*
X102352781Y-106550129D01*
X102352797Y-106550137D01*
X102555039Y-106633907D01*
X102766496Y-106690567D01*
X102766501Y-106690568D01*
X102842995Y-106700638D01*
X102842996Y-106700638D01*
X102842996Y-105649143D01*
X102903398Y-105674163D01*
X103028977Y-105699142D01*
X103157015Y-105699142D01*
X103282594Y-105674163D01*
X103342996Y-105649143D01*
X103342996Y-106700638D01*
X103419490Y-106690568D01*
X103419495Y-106690567D01*
X103630952Y-106633907D01*
X103833194Y-106550137D01*
X103833210Y-106550129D01*
X104022781Y-106440679D01*
X104022797Y-106440668D01*
X104196464Y-106307409D01*
X104196471Y-106307403D01*
X104351257Y-106152617D01*
X104351263Y-106152610D01*
X104484522Y-105978943D01*
X104484533Y-105978927D01*
X104593983Y-105789356D01*
X104593991Y-105789340D01*
X104677761Y-105587098D01*
X104734421Y-105375641D01*
X104734422Y-105375636D01*
X104744493Y-105299142D01*
X103692997Y-105299142D01*
X103718017Y-105238740D01*
X103742996Y-105113161D01*
X103742996Y-104985123D01*
X103718017Y-104859544D01*
X103692997Y-104799142D01*
X104744492Y-104799142D01*
X104744492Y-104799141D01*
X104741257Y-104774570D01*
X131395001Y-104774570D01*
X131395002Y-104774571D01*
X132446497Y-104774571D01*
X132421477Y-104834973D01*
X132396498Y-104960552D01*
X132396498Y-105088590D01*
X132421477Y-105214169D01*
X132446497Y-105274571D01*
X131395001Y-105274571D01*
X131405071Y-105351065D01*
X131405072Y-105351070D01*
X131461732Y-105562527D01*
X131545502Y-105764769D01*
X131545510Y-105764785D01*
X131654960Y-105954356D01*
X131654971Y-105954372D01*
X131788230Y-106128039D01*
X131788236Y-106128046D01*
X131943022Y-106282832D01*
X131943029Y-106282838D01*
X132116696Y-106416097D01*
X132116712Y-106416108D01*
X132306283Y-106525558D01*
X132306299Y-106525566D01*
X132508541Y-106609336D01*
X132719998Y-106665996D01*
X132720003Y-106665997D01*
X132796497Y-106676067D01*
X132796498Y-106676067D01*
X132796498Y-105624572D01*
X132856900Y-105649592D01*
X132982479Y-105674571D01*
X133110517Y-105674571D01*
X133236096Y-105649592D01*
X133296498Y-105624572D01*
X133296498Y-106676067D01*
X133372992Y-106665997D01*
X133372997Y-106665996D01*
X133584454Y-106609336D01*
X133786696Y-106525566D01*
X133786712Y-106525558D01*
X133976283Y-106416108D01*
X133976299Y-106416097D01*
X134149966Y-106282838D01*
X134149973Y-106282832D01*
X134304759Y-106128046D01*
X134304765Y-106128039D01*
X134438024Y-105954372D01*
X134438035Y-105954356D01*
X134547485Y-105764785D01*
X134547493Y-105764769D01*
X134631263Y-105562527D01*
X134687923Y-105351070D01*
X134687924Y-105351065D01*
X134697995Y-105274571D01*
X133646499Y-105274571D01*
X133671519Y-105214169D01*
X133696498Y-105088590D01*
X133696498Y-104960552D01*
X133671519Y-104834973D01*
X133646499Y-104774571D01*
X134697994Y-104774571D01*
X134697994Y-104774570D01*
X134687924Y-104698076D01*
X134687923Y-104698071D01*
X134631263Y-104486614D01*
X134547493Y-104284372D01*
X134547485Y-104284356D01*
X134438035Y-104094785D01*
X134438024Y-104094769D01*
X134304765Y-103921102D01*
X134304759Y-103921095D01*
X134149973Y-103766309D01*
X134149966Y-103766303D01*
X133976299Y-103633044D01*
X133976283Y-103633033D01*
X133786712Y-103523583D01*
X133786696Y-103523575D01*
X133584454Y-103439805D01*
X133372997Y-103383145D01*
X133372990Y-103383144D01*
X133296498Y-103373072D01*
X133296498Y-104424569D01*
X133236096Y-104399550D01*
X133110517Y-104374571D01*
X132982479Y-104374571D01*
X132856900Y-104399550D01*
X132796498Y-104424569D01*
X132796498Y-103373072D01*
X132720005Y-103383144D01*
X132719998Y-103383145D01*
X132508541Y-103439805D01*
X132306299Y-103523575D01*
X132306283Y-103523583D01*
X132116712Y-103633033D01*
X132116696Y-103633044D01*
X131943029Y-103766303D01*
X131943022Y-103766309D01*
X131788236Y-103921095D01*
X131788230Y-103921102D01*
X131654971Y-104094769D01*
X131654960Y-104094785D01*
X131545510Y-104284356D01*
X131545502Y-104284372D01*
X131461732Y-104486614D01*
X131405072Y-104698071D01*
X131405071Y-104698076D01*
X131395001Y-104774570D01*
X104741257Y-104774570D01*
X104734422Y-104722649D01*
X104734421Y-104722642D01*
X104677761Y-104511185D01*
X104593991Y-104308943D01*
X104593983Y-104308927D01*
X104484533Y-104119356D01*
X104484522Y-104119340D01*
X104351263Y-103945673D01*
X104351257Y-103945666D01*
X104196471Y-103790880D01*
X104196464Y-103790874D01*
X104022797Y-103657615D01*
X104022781Y-103657604D01*
X103833210Y-103548154D01*
X103833194Y-103548146D01*
X103630952Y-103464376D01*
X103419495Y-103407716D01*
X103419488Y-103407715D01*
X103342996Y-103397643D01*
X103342996Y-104449140D01*
X103282594Y-104424121D01*
X103157015Y-104399142D01*
X103028977Y-104399142D01*
X102903398Y-104424121D01*
X102842996Y-104449140D01*
X102842996Y-103397643D01*
X102766503Y-103407715D01*
X102766496Y-103407716D01*
X102555039Y-103464376D01*
X102352797Y-103548146D01*
X102352781Y-103548154D01*
X102163210Y-103657604D01*
X102163194Y-103657615D01*
X101989527Y-103790874D01*
X101989520Y-103790880D01*
X101834734Y-103945666D01*
X101834728Y-103945673D01*
X101701469Y-104119340D01*
X101701458Y-104119356D01*
X101592008Y-104308927D01*
X101592000Y-104308943D01*
X101508230Y-104511185D01*
X101451570Y-104722642D01*
X101451569Y-104722647D01*
X101441499Y-104799141D01*
X77500500Y-104799141D01*
X77500500Y-101404110D01*
X97886962Y-101404110D01*
X97886962Y-101623105D01*
X97910768Y-101803922D01*
X97915545Y-101840206D01*
X97915546Y-101840208D01*
X97965636Y-102027152D01*
X97972221Y-102051725D01*
X98056022Y-102254036D01*
X98056024Y-102254041D01*
X98056027Y-102254046D01*
X98165511Y-102443678D01*
X98298817Y-102617406D01*
X98298823Y-102617413D01*
X98453656Y-102772246D01*
X98453663Y-102772252D01*
X98627391Y-102905558D01*
X98817023Y-103015042D01*
X98817025Y-103015042D01*
X98817034Y-103015048D01*
X99019345Y-103098849D01*
X99230864Y-103155525D01*
X99447972Y-103184108D01*
X99447979Y-103184108D01*
X99666945Y-103184108D01*
X99666952Y-103184108D01*
X99884060Y-103155525D01*
X100095579Y-103098849D01*
X100297890Y-103015048D01*
X100487533Y-102905558D01*
X100661262Y-102772251D01*
X100816105Y-102617408D01*
X100949412Y-102443679D01*
X101058902Y-102254036D01*
X101142703Y-102051725D01*
X101199379Y-101840206D01*
X101227962Y-101623098D01*
X101227962Y-101404118D01*
X101227402Y-101399866D01*
X101226324Y-101391672D01*
X101224727Y-101379539D01*
X127840464Y-101379539D01*
X127840464Y-101598534D01*
X127864270Y-101779351D01*
X127869047Y-101815635D01*
X127925723Y-102027154D01*
X128009524Y-102229465D01*
X128009526Y-102229470D01*
X128009529Y-102229475D01*
X128119013Y-102419107D01*
X128252319Y-102592835D01*
X128252325Y-102592842D01*
X128407158Y-102747675D01*
X128407165Y-102747681D01*
X128580893Y-102880987D01*
X128770525Y-102990471D01*
X128770527Y-102990471D01*
X128770536Y-102990477D01*
X128972847Y-103074278D01*
X129184366Y-103130954D01*
X129401474Y-103159537D01*
X129401481Y-103159537D01*
X129620447Y-103159537D01*
X129620454Y-103159537D01*
X129837562Y-103130954D01*
X130049081Y-103074278D01*
X130251392Y-102990477D01*
X130441035Y-102880987D01*
X130614764Y-102747680D01*
X130769607Y-102592837D01*
X130902914Y-102419108D01*
X131012404Y-102229465D01*
X131096205Y-102027154D01*
X131152881Y-101815635D01*
X131181464Y-101598527D01*
X131181464Y-101379547D01*
X131152881Y-101162439D01*
X131096205Y-100950920D01*
X131012404Y-100748609D01*
X130902914Y-100558966D01*
X130788461Y-100409808D01*
X130769608Y-100385238D01*
X130769602Y-100385231D01*
X130614769Y-100230398D01*
X130614762Y-100230392D01*
X130441034Y-100097086D01*
X130251402Y-99987602D01*
X130251397Y-99987599D01*
X130251392Y-99987597D01*
X130049081Y-99903796D01*
X130049082Y-99903796D01*
X130049079Y-99903795D01*
X129943321Y-99875458D01*
X129837562Y-99847120D01*
X129801278Y-99842343D01*
X129620461Y-99818537D01*
X129620454Y-99818537D01*
X129401474Y-99818537D01*
X129401466Y-99818537D01*
X129194817Y-99845744D01*
X129184366Y-99847120D01*
X129139663Y-99859097D01*
X128972848Y-99903795D01*
X128854338Y-99952884D01*
X128770536Y-99987597D01*
X128770533Y-99987598D01*
X128770525Y-99987602D01*
X128580893Y-100097086D01*
X128407165Y-100230392D01*
X128407158Y-100230398D01*
X128252325Y-100385231D01*
X128252319Y-100385238D01*
X128119013Y-100558966D01*
X128009529Y-100748598D01*
X128009525Y-100748606D01*
X128009524Y-100748609D01*
X127999346Y-100773181D01*
X127925722Y-100950921D01*
X127869048Y-101162436D01*
X127869046Y-101162447D01*
X127840464Y-101379539D01*
X101224727Y-101379539D01*
X101216994Y-101320808D01*
X101199379Y-101187010D01*
X101142703Y-100975491D01*
X101058902Y-100773180D01*
X100949412Y-100583537D01*
X100816105Y-100409808D01*
X100816100Y-100409802D01*
X100661267Y-100254969D01*
X100661260Y-100254963D01*
X100487532Y-100121657D01*
X100297900Y-100012173D01*
X100297895Y-100012170D01*
X100297890Y-100012168D01*
X100095579Y-99928367D01*
X100095580Y-99928367D01*
X100095577Y-99928366D01*
X99989819Y-99900029D01*
X99884060Y-99871691D01*
X99847776Y-99866914D01*
X99666959Y-99843108D01*
X99666952Y-99843108D01*
X99447972Y-99843108D01*
X99447964Y-99843108D01*
X99241315Y-99870315D01*
X99230864Y-99871691D01*
X99186161Y-99883668D01*
X99019346Y-99928366D01*
X98900836Y-99977455D01*
X98817034Y-100012168D01*
X98817031Y-100012169D01*
X98817023Y-100012173D01*
X98627391Y-100121657D01*
X98453663Y-100254963D01*
X98453656Y-100254969D01*
X98298823Y-100409802D01*
X98298817Y-100409809D01*
X98165511Y-100583537D01*
X98056027Y-100773169D01*
X98056022Y-100773181D01*
X97972220Y-100975492D01*
X97915546Y-101187007D01*
X97915544Y-101187018D01*
X97886962Y-101404110D01*
X77500500Y-101404110D01*
X77500500Y-97868576D01*
X94351428Y-97868576D01*
X94351428Y-98087571D01*
X94375234Y-98268388D01*
X94380011Y-98304672D01*
X94380012Y-98304674D01*
X94430102Y-98491618D01*
X94436687Y-98516191D01*
X94520488Y-98718502D01*
X94520490Y-98718507D01*
X94520493Y-98718512D01*
X94629977Y-98908144D01*
X94763283Y-99081872D01*
X94763289Y-99081879D01*
X94918122Y-99236712D01*
X94918129Y-99236718D01*
X95091857Y-99370024D01*
X95281489Y-99479508D01*
X95281491Y-99479508D01*
X95281500Y-99479514D01*
X95483811Y-99563315D01*
X95695330Y-99619991D01*
X95912438Y-99648574D01*
X95912445Y-99648574D01*
X96131411Y-99648574D01*
X96131418Y-99648574D01*
X96348526Y-99619991D01*
X96560045Y-99563315D01*
X96762356Y-99479514D01*
X96951999Y-99370024D01*
X97125728Y-99236717D01*
X97280571Y-99081874D01*
X97413878Y-98908145D01*
X97523368Y-98718502D01*
X97607169Y-98516191D01*
X97663845Y-98304672D01*
X97692428Y-98087564D01*
X97692428Y-97868584D01*
X97691868Y-97864332D01*
X97690790Y-97856138D01*
X97689193Y-97844005D01*
X124304930Y-97844005D01*
X124304930Y-98063000D01*
X124328736Y-98243817D01*
X124333513Y-98280101D01*
X124390189Y-98491620D01*
X124473990Y-98693931D01*
X124473992Y-98693936D01*
X124473995Y-98693941D01*
X124583479Y-98883573D01*
X124716785Y-99057301D01*
X124716791Y-99057308D01*
X124871624Y-99212141D01*
X124871631Y-99212147D01*
X125045359Y-99345453D01*
X125234991Y-99454937D01*
X125234993Y-99454937D01*
X125235002Y-99454943D01*
X125437313Y-99538744D01*
X125648832Y-99595420D01*
X125865940Y-99624003D01*
X125865947Y-99624003D01*
X126084913Y-99624003D01*
X126084920Y-99624003D01*
X126302028Y-99595420D01*
X126513547Y-99538744D01*
X126715858Y-99454943D01*
X126905501Y-99345453D01*
X127079230Y-99212146D01*
X127234073Y-99057303D01*
X127367380Y-98883574D01*
X127476870Y-98693931D01*
X127560671Y-98491620D01*
X127617347Y-98280101D01*
X127645930Y-98062993D01*
X127645930Y-97844013D01*
X127617347Y-97626905D01*
X127560671Y-97415386D01*
X127476870Y-97213075D01*
X127367380Y-97023432D01*
X127252927Y-96874274D01*
X127234074Y-96849704D01*
X127234068Y-96849697D01*
X127079235Y-96694864D01*
X127079228Y-96694858D01*
X126905500Y-96561552D01*
X126715868Y-96452068D01*
X126715863Y-96452065D01*
X126715858Y-96452063D01*
X126513547Y-96368262D01*
X126513548Y-96368262D01*
X126513545Y-96368261D01*
X126407787Y-96339924D01*
X126302028Y-96311586D01*
X126265744Y-96306809D01*
X126084927Y-96283003D01*
X126084920Y-96283003D01*
X125865940Y-96283003D01*
X125865932Y-96283003D01*
X125659283Y-96310210D01*
X125648832Y-96311586D01*
X125604129Y-96323563D01*
X125437314Y-96368261D01*
X125318804Y-96417350D01*
X125235002Y-96452063D01*
X125234999Y-96452064D01*
X125234991Y-96452068D01*
X125045359Y-96561552D01*
X124871631Y-96694858D01*
X124871624Y-96694864D01*
X124716791Y-96849697D01*
X124716785Y-96849704D01*
X124583479Y-97023432D01*
X124473995Y-97213064D01*
X124473991Y-97213072D01*
X124473990Y-97213075D01*
X124463812Y-97237647D01*
X124390188Y-97415387D01*
X124333514Y-97626902D01*
X124333512Y-97626913D01*
X124304930Y-97844005D01*
X97689193Y-97844005D01*
X97681460Y-97785274D01*
X97663845Y-97651476D01*
X97607169Y-97439957D01*
X97523368Y-97237646D01*
X97413878Y-97048003D01*
X97280571Y-96874274D01*
X97280566Y-96874268D01*
X97125733Y-96719435D01*
X97125726Y-96719429D01*
X96951998Y-96586123D01*
X96762366Y-96476639D01*
X96762361Y-96476636D01*
X96762356Y-96476634D01*
X96560045Y-96392833D01*
X96560046Y-96392833D01*
X96560043Y-96392832D01*
X96454285Y-96364495D01*
X96348526Y-96336157D01*
X96312242Y-96331380D01*
X96131425Y-96307574D01*
X96131418Y-96307574D01*
X95912438Y-96307574D01*
X95912430Y-96307574D01*
X95705781Y-96334781D01*
X95695330Y-96336157D01*
X95650627Y-96348134D01*
X95483812Y-96392832D01*
X95365302Y-96441921D01*
X95281500Y-96476634D01*
X95281497Y-96476635D01*
X95281489Y-96476639D01*
X95091857Y-96586123D01*
X94918129Y-96719429D01*
X94918122Y-96719435D01*
X94763289Y-96874268D01*
X94763283Y-96874275D01*
X94629977Y-97048003D01*
X94520493Y-97237635D01*
X94520488Y-97237647D01*
X94436686Y-97439958D01*
X94380012Y-97651473D01*
X94380010Y-97651484D01*
X94351428Y-97868576D01*
X77500500Y-97868576D01*
X77500500Y-74799141D01*
X101441499Y-74799141D01*
X101441500Y-74799142D01*
X102492995Y-74799142D01*
X102467975Y-74859544D01*
X102442996Y-74985123D01*
X102442996Y-75113161D01*
X102467975Y-75238740D01*
X102492995Y-75299142D01*
X101441499Y-75299142D01*
X101451569Y-75375636D01*
X101451570Y-75375641D01*
X101508230Y-75587098D01*
X101592000Y-75789340D01*
X101592008Y-75789356D01*
X101701458Y-75978927D01*
X101701469Y-75978943D01*
X101834728Y-76152610D01*
X101834734Y-76152617D01*
X101989520Y-76307403D01*
X101989527Y-76307409D01*
X102163194Y-76440668D01*
X102163210Y-76440679D01*
X102352781Y-76550129D01*
X102352797Y-76550137D01*
X102555039Y-76633907D01*
X102766496Y-76690567D01*
X102766501Y-76690568D01*
X102842995Y-76700638D01*
X102842996Y-76700638D01*
X102842996Y-75649143D01*
X102903398Y-75674163D01*
X103028977Y-75699142D01*
X103157015Y-75699142D01*
X103282594Y-75674163D01*
X103342996Y-75649143D01*
X103342996Y-76700638D01*
X103419490Y-76690568D01*
X103419495Y-76690567D01*
X103630952Y-76633907D01*
X103833194Y-76550137D01*
X103833210Y-76550129D01*
X104022781Y-76440679D01*
X104022797Y-76440668D01*
X104196464Y-76307409D01*
X104196471Y-76307403D01*
X104351257Y-76152617D01*
X104351263Y-76152610D01*
X104484522Y-75978943D01*
X104484533Y-75978927D01*
X104593983Y-75789356D01*
X104593991Y-75789340D01*
X104677761Y-75587098D01*
X104734421Y-75375641D01*
X104734422Y-75375636D01*
X104744493Y-75299142D01*
X103692997Y-75299142D01*
X103718017Y-75238740D01*
X103742996Y-75113161D01*
X103742996Y-74985123D01*
X103718017Y-74859544D01*
X103692997Y-74799142D01*
X104744492Y-74799142D01*
X104744492Y-74799141D01*
X131441499Y-74799141D01*
X131441500Y-74799142D01*
X132492995Y-74799142D01*
X132467975Y-74859544D01*
X132442996Y-74985123D01*
X132442996Y-75113161D01*
X132467975Y-75238740D01*
X132492995Y-75299142D01*
X131441499Y-75299142D01*
X131451569Y-75375636D01*
X131451570Y-75375641D01*
X131508230Y-75587098D01*
X131592000Y-75789340D01*
X131592008Y-75789356D01*
X131701458Y-75978927D01*
X131701469Y-75978943D01*
X131834728Y-76152610D01*
X131834734Y-76152617D01*
X131989520Y-76307403D01*
X131989527Y-76307409D01*
X132163194Y-76440668D01*
X132163210Y-76440679D01*
X132352781Y-76550129D01*
X132352797Y-76550137D01*
X132555039Y-76633907D01*
X132766496Y-76690567D01*
X132766501Y-76690568D01*
X132842995Y-76700638D01*
X132842996Y-76700638D01*
X132842996Y-75649143D01*
X132903398Y-75674163D01*
X133028977Y-75699142D01*
X133157015Y-75699142D01*
X133282594Y-75674163D01*
X133342996Y-75649143D01*
X133342996Y-76700638D01*
X133419490Y-76690568D01*
X133419495Y-76690567D01*
X133630952Y-76633907D01*
X133833194Y-76550137D01*
X133833210Y-76550129D01*
X134022781Y-76440679D01*
X134022797Y-76440668D01*
X134196464Y-76307409D01*
X134196471Y-76307403D01*
X134351257Y-76152617D01*
X134351263Y-76152610D01*
X134484522Y-75978943D01*
X134484533Y-75978927D01*
X134593983Y-75789356D01*
X134593991Y-75789340D01*
X134677761Y-75587098D01*
X134734421Y-75375641D01*
X134734422Y-75375636D01*
X134744493Y-75299142D01*
X133692997Y-75299142D01*
X133718017Y-75238740D01*
X133742996Y-75113161D01*
X133742996Y-74985123D01*
X133718017Y-74859544D01*
X133692997Y-74799142D01*
X134744492Y-74799142D01*
X134744492Y-74799141D01*
X134734422Y-74722647D01*
X134734421Y-74722642D01*
X134677761Y-74511185D01*
X134593991Y-74308943D01*
X134593983Y-74308927D01*
X134484533Y-74119356D01*
X134484522Y-74119340D01*
X134351263Y-73945673D01*
X134351257Y-73945666D01*
X134196471Y-73790880D01*
X134196464Y-73790874D01*
X134022797Y-73657615D01*
X134022781Y-73657604D01*
X133833210Y-73548154D01*
X133833194Y-73548146D01*
X133630952Y-73464376D01*
X133419495Y-73407716D01*
X133419488Y-73407715D01*
X133342996Y-73397643D01*
X133342996Y-74449140D01*
X133282594Y-74424121D01*
X133157015Y-74399142D01*
X133028977Y-74399142D01*
X132903398Y-74424121D01*
X132842996Y-74449140D01*
X132842996Y-73397643D01*
X132766503Y-73407715D01*
X132766496Y-73407716D01*
X132555039Y-73464376D01*
X132352797Y-73548146D01*
X132352781Y-73548154D01*
X132163210Y-73657604D01*
X132163194Y-73657615D01*
X131989527Y-73790874D01*
X131989520Y-73790880D01*
X131834734Y-73945666D01*
X131834728Y-73945673D01*
X131701469Y-74119340D01*
X131701458Y-74119356D01*
X131592008Y-74308927D01*
X131592000Y-74308943D01*
X131508230Y-74511185D01*
X131451570Y-74722642D01*
X131451569Y-74722647D01*
X131441499Y-74799141D01*
X104744492Y-74799141D01*
X104734422Y-74722647D01*
X104734421Y-74722642D01*
X104677761Y-74511185D01*
X104593991Y-74308943D01*
X104593983Y-74308927D01*
X104484533Y-74119356D01*
X104484522Y-74119340D01*
X104351263Y-73945673D01*
X104351257Y-73945666D01*
X104196471Y-73790880D01*
X104196464Y-73790874D01*
X104022797Y-73657615D01*
X104022781Y-73657604D01*
X103833210Y-73548154D01*
X103833194Y-73548146D01*
X103630952Y-73464376D01*
X103419495Y-73407716D01*
X103419488Y-73407715D01*
X103342996Y-73397643D01*
X103342996Y-74449140D01*
X103282594Y-74424121D01*
X103157015Y-74399142D01*
X103028977Y-74399142D01*
X102903398Y-74424121D01*
X102842996Y-74449140D01*
X102842996Y-73397643D01*
X102766503Y-73407715D01*
X102766496Y-73407716D01*
X102555039Y-73464376D01*
X102352797Y-73548146D01*
X102352781Y-73548154D01*
X102163210Y-73657604D01*
X102163194Y-73657615D01*
X101989527Y-73790874D01*
X101989520Y-73790880D01*
X101834734Y-73945666D01*
X101834728Y-73945673D01*
X101701469Y-74119340D01*
X101701458Y-74119356D01*
X101592008Y-74308927D01*
X101592000Y-74308943D01*
X101508230Y-74511185D01*
X101451570Y-74722642D01*
X101451569Y-74722647D01*
X101441499Y-74799141D01*
X77500500Y-74799141D01*
X77500500Y-71404110D01*
X97886962Y-71404110D01*
X97886962Y-71623105D01*
X97910768Y-71803922D01*
X97915545Y-71840206D01*
X97972221Y-72051725D01*
X98056022Y-72254036D01*
X98056024Y-72254041D01*
X98056027Y-72254046D01*
X98165511Y-72443678D01*
X98298817Y-72617406D01*
X98298823Y-72617413D01*
X98453656Y-72772246D01*
X98453663Y-72772252D01*
X98627391Y-72905558D01*
X98817023Y-73015042D01*
X98817025Y-73015042D01*
X98817034Y-73015048D01*
X99019345Y-73098849D01*
X99230864Y-73155525D01*
X99447972Y-73184108D01*
X99447979Y-73184108D01*
X99666945Y-73184108D01*
X99666952Y-73184108D01*
X99884060Y-73155525D01*
X100095579Y-73098849D01*
X100297890Y-73015048D01*
X100487533Y-72905558D01*
X100661262Y-72772251D01*
X100816105Y-72617408D01*
X100949412Y-72443679D01*
X101058902Y-72254036D01*
X101142703Y-72051725D01*
X101199379Y-71840206D01*
X101227962Y-71623098D01*
X101227962Y-71404118D01*
X101227961Y-71404110D01*
X127886962Y-71404110D01*
X127886962Y-71623105D01*
X127910768Y-71803922D01*
X127915545Y-71840206D01*
X127972221Y-72051725D01*
X128056022Y-72254036D01*
X128056024Y-72254041D01*
X128056027Y-72254046D01*
X128165511Y-72443678D01*
X128298817Y-72617406D01*
X128298823Y-72617413D01*
X128453656Y-72772246D01*
X128453663Y-72772252D01*
X128627391Y-72905558D01*
X128817023Y-73015042D01*
X128817025Y-73015042D01*
X128817034Y-73015048D01*
X129019345Y-73098849D01*
X129230864Y-73155525D01*
X129447972Y-73184108D01*
X129447979Y-73184108D01*
X129666945Y-73184108D01*
X129666952Y-73184108D01*
X129884060Y-73155525D01*
X130095579Y-73098849D01*
X130297890Y-73015048D01*
X130487533Y-72905558D01*
X130661262Y-72772251D01*
X130816105Y-72617408D01*
X130949412Y-72443679D01*
X131058902Y-72254036D01*
X131142703Y-72051725D01*
X131199379Y-71840206D01*
X131227962Y-71623098D01*
X131227962Y-71404118D01*
X131199379Y-71187010D01*
X131142703Y-70975491D01*
X131058902Y-70773180D01*
X130949412Y-70583537D01*
X130816105Y-70409808D01*
X130816100Y-70409802D01*
X130661267Y-70254969D01*
X130661260Y-70254963D01*
X130487532Y-70121657D01*
X130297900Y-70012173D01*
X130297895Y-70012170D01*
X130297890Y-70012168D01*
X130095579Y-69928367D01*
X130095580Y-69928367D01*
X130095577Y-69928366D01*
X129989819Y-69900029D01*
X129884060Y-69871691D01*
X129847776Y-69866914D01*
X129666959Y-69843108D01*
X129666952Y-69843108D01*
X129447972Y-69843108D01*
X129447964Y-69843108D01*
X129241315Y-69870315D01*
X129230864Y-69871691D01*
X129186161Y-69883668D01*
X129019346Y-69928366D01*
X128900836Y-69977455D01*
X128817034Y-70012168D01*
X128817031Y-70012169D01*
X128817023Y-70012173D01*
X128627391Y-70121657D01*
X128453663Y-70254963D01*
X128453656Y-70254969D01*
X128298823Y-70409802D01*
X128298817Y-70409809D01*
X128165511Y-70583537D01*
X128056027Y-70773169D01*
X128056022Y-70773181D01*
X127972220Y-70975492D01*
X127915546Y-71187007D01*
X127915544Y-71187018D01*
X127886962Y-71404110D01*
X101227961Y-71404110D01*
X101199379Y-71187010D01*
X101142703Y-70975491D01*
X101058902Y-70773180D01*
X100949412Y-70583537D01*
X100816105Y-70409808D01*
X100816100Y-70409802D01*
X100661267Y-70254969D01*
X100661260Y-70254963D01*
X100487532Y-70121657D01*
X100297900Y-70012173D01*
X100297895Y-70012170D01*
X100297890Y-70012168D01*
X100095579Y-69928367D01*
X100095580Y-69928367D01*
X100095577Y-69928366D01*
X99989819Y-69900029D01*
X99884060Y-69871691D01*
X99847776Y-69866914D01*
X99666959Y-69843108D01*
X99666952Y-69843108D01*
X99447972Y-69843108D01*
X99447964Y-69843108D01*
X99241315Y-69870315D01*
X99230864Y-69871691D01*
X99186161Y-69883668D01*
X99019346Y-69928366D01*
X98900836Y-69977455D01*
X98817034Y-70012168D01*
X98817031Y-70012169D01*
X98817023Y-70012173D01*
X98627391Y-70121657D01*
X98453663Y-70254963D01*
X98453656Y-70254969D01*
X98298823Y-70409802D01*
X98298817Y-70409809D01*
X98165511Y-70583537D01*
X98056027Y-70773169D01*
X98056022Y-70773181D01*
X97972220Y-70975492D01*
X97915546Y-71187007D01*
X97915544Y-71187018D01*
X97886962Y-71404110D01*
X77500500Y-71404110D01*
X77500500Y-67868576D01*
X94351428Y-67868576D01*
X94351428Y-68087571D01*
X94375234Y-68268388D01*
X94380011Y-68304672D01*
X94436687Y-68516191D01*
X94520488Y-68718502D01*
X94520490Y-68718507D01*
X94520493Y-68718512D01*
X94629977Y-68908144D01*
X94763283Y-69081872D01*
X94763289Y-69081879D01*
X94918122Y-69236712D01*
X94918129Y-69236718D01*
X95091857Y-69370024D01*
X95281489Y-69479508D01*
X95281491Y-69479508D01*
X95281500Y-69479514D01*
X95483811Y-69563315D01*
X95695330Y-69619991D01*
X95912438Y-69648574D01*
X95912445Y-69648574D01*
X96131411Y-69648574D01*
X96131418Y-69648574D01*
X96348526Y-69619991D01*
X96560045Y-69563315D01*
X96762356Y-69479514D01*
X96951999Y-69370024D01*
X97125728Y-69236717D01*
X97280571Y-69081874D01*
X97413878Y-68908145D01*
X97523368Y-68718502D01*
X97607169Y-68516191D01*
X97663845Y-68304672D01*
X97692428Y-68087564D01*
X97692428Y-67868584D01*
X97692427Y-67868576D01*
X124351428Y-67868576D01*
X124351428Y-68087571D01*
X124375234Y-68268388D01*
X124380011Y-68304672D01*
X124436687Y-68516191D01*
X124520488Y-68718502D01*
X124520490Y-68718507D01*
X124520493Y-68718512D01*
X124629977Y-68908144D01*
X124763283Y-69081872D01*
X124763289Y-69081879D01*
X124918122Y-69236712D01*
X124918129Y-69236718D01*
X125091857Y-69370024D01*
X125281489Y-69479508D01*
X125281491Y-69479508D01*
X125281500Y-69479514D01*
X125483811Y-69563315D01*
X125695330Y-69619991D01*
X125912438Y-69648574D01*
X125912445Y-69648574D01*
X126131411Y-69648574D01*
X126131418Y-69648574D01*
X126348526Y-69619991D01*
X126560045Y-69563315D01*
X126762356Y-69479514D01*
X126951999Y-69370024D01*
X127125728Y-69236717D01*
X127280571Y-69081874D01*
X127413878Y-68908145D01*
X127523368Y-68718502D01*
X127607169Y-68516191D01*
X127663845Y-68304672D01*
X127692428Y-68087564D01*
X127692428Y-67868584D01*
X127663845Y-67651476D01*
X127607169Y-67439957D01*
X127523368Y-67237646D01*
X127413878Y-67048003D01*
X127280571Y-66874274D01*
X127280566Y-66874268D01*
X127125733Y-66719435D01*
X127125726Y-66719429D01*
X126951998Y-66586123D01*
X126762366Y-66476639D01*
X126762361Y-66476636D01*
X126762356Y-66476634D01*
X126560045Y-66392833D01*
X126560046Y-66392833D01*
X126560043Y-66392832D01*
X126454285Y-66364495D01*
X126348526Y-66336157D01*
X126312242Y-66331380D01*
X126131425Y-66307574D01*
X126131418Y-66307574D01*
X125912438Y-66307574D01*
X125912430Y-66307574D01*
X125705781Y-66334781D01*
X125695330Y-66336157D01*
X125650627Y-66348134D01*
X125483812Y-66392832D01*
X125365302Y-66441921D01*
X125281500Y-66476634D01*
X125281497Y-66476635D01*
X125281489Y-66476639D01*
X125091857Y-66586123D01*
X124918129Y-66719429D01*
X124918122Y-66719435D01*
X124763289Y-66874268D01*
X124763283Y-66874275D01*
X124629977Y-67048003D01*
X124520493Y-67237635D01*
X124520488Y-67237647D01*
X124436686Y-67439958D01*
X124380012Y-67651473D01*
X124380010Y-67651484D01*
X124351428Y-67868576D01*
X97692427Y-67868576D01*
X97663845Y-67651476D01*
X97607169Y-67439957D01*
X97523368Y-67237646D01*
X97413878Y-67048003D01*
X97280571Y-66874274D01*
X97280566Y-66874268D01*
X97125733Y-66719435D01*
X97125726Y-66719429D01*
X96951998Y-66586123D01*
X96762366Y-66476639D01*
X96762361Y-66476636D01*
X96762356Y-66476634D01*
X96560045Y-66392833D01*
X96560046Y-66392833D01*
X96560043Y-66392832D01*
X96454285Y-66364495D01*
X96348526Y-66336157D01*
X96312242Y-66331380D01*
X96131425Y-66307574D01*
X96131418Y-66307574D01*
X95912438Y-66307574D01*
X95912430Y-66307574D01*
X95705781Y-66334781D01*
X95695330Y-66336157D01*
X95650627Y-66348134D01*
X95483812Y-66392832D01*
X95365302Y-66441921D01*
X95281500Y-66476634D01*
X95281497Y-66476635D01*
X95281489Y-66476639D01*
X95091857Y-66586123D01*
X94918129Y-66719429D01*
X94918122Y-66719435D01*
X94763289Y-66874268D01*
X94763283Y-66874275D01*
X94629977Y-67048003D01*
X94520493Y-67237635D01*
X94520488Y-67237647D01*
X94436686Y-67439958D01*
X94380012Y-67651473D01*
X94380010Y-67651484D01*
X94351428Y-67868576D01*
X77500500Y-67868576D01*
X77500500Y-61317135D01*
X83599500Y-61317135D01*
X83599500Y-63112870D01*
X83599501Y-63112876D01*
X83605908Y-63172483D01*
X83656202Y-63307328D01*
X83656206Y-63307335D01*
X83742452Y-63422544D01*
X83742455Y-63422547D01*
X83857664Y-63508793D01*
X83857671Y-63508797D01*
X83992517Y-63559091D01*
X83992516Y-63559091D01*
X83999444Y-63559835D01*
X84052127Y-63565500D01*
X85847872Y-63565499D01*
X85907483Y-63559091D01*
X86042331Y-63508796D01*
X86157546Y-63422546D01*
X86243796Y-63307331D01*
X86292810Y-63175916D01*
X86334681Y-63119984D01*
X86400145Y-63095566D01*
X86468418Y-63110417D01*
X86496673Y-63131569D01*
X86610213Y-63245109D01*
X86782179Y-63370048D01*
X86782181Y-63370049D01*
X86782184Y-63370051D01*
X86971588Y-63466557D01*
X87173757Y-63532246D01*
X87383713Y-63565500D01*
X87383714Y-63565500D01*
X87596286Y-63565500D01*
X87596287Y-63565500D01*
X87806243Y-63532246D01*
X88008412Y-63466557D01*
X88197816Y-63370051D01*
X88284138Y-63307335D01*
X88369786Y-63245109D01*
X88369788Y-63245106D01*
X88369792Y-63245104D01*
X88520104Y-63094792D01*
X88520106Y-63094788D01*
X88520109Y-63094786D01*
X88645048Y-62922820D01*
X88645050Y-62922817D01*
X88645051Y-62922816D01*
X88649512Y-62914058D01*
X88697483Y-62863262D01*
X88765303Y-62846464D01*
X88831440Y-62868998D01*
X88870483Y-62914054D01*
X88874948Y-62922817D01*
X88999889Y-63094786D01*
X89150212Y-63245109D01*
X89322178Y-63370048D01*
X89322180Y-63370049D01*
X89322183Y-63370051D01*
X89511587Y-63466557D01*
X89713756Y-63532246D01*
X89923712Y-63565500D01*
X89923713Y-63565500D01*
X90136285Y-63565500D01*
X90136286Y-63565500D01*
X90346242Y-63532246D01*
X90548411Y-63466557D01*
X90737815Y-63370051D01*
X90824137Y-63307335D01*
X90909785Y-63245109D01*
X90909787Y-63245106D01*
X90909791Y-63245104D01*
X91060103Y-63094792D01*
X91060105Y-63094788D01*
X91060108Y-63094786D01*
X91185047Y-62922821D01*
X91185050Y-62922816D01*
X91189512Y-62914056D01*
X91237483Y-62863260D01*
X91305303Y-62846462D01*
X91371439Y-62868996D01*
X91410483Y-62914052D01*
X91414949Y-62922817D01*
X91539890Y-63094786D01*
X91690213Y-63245109D01*
X91862179Y-63370048D01*
X91862181Y-63370049D01*
X91862184Y-63370051D01*
X92051588Y-63466557D01*
X92253757Y-63532246D01*
X92463713Y-63565500D01*
X92463714Y-63565500D01*
X92676286Y-63565500D01*
X92676287Y-63565500D01*
X92886243Y-63532246D01*
X93088412Y-63466557D01*
X93277816Y-63370051D01*
X93364138Y-63307335D01*
X93449786Y-63245109D01*
X93449788Y-63245106D01*
X93449792Y-63245104D01*
X93600104Y-63094792D01*
X93600106Y-63094788D01*
X93600109Y-63094786D01*
X93725048Y-62922820D01*
X93725050Y-62922817D01*
X93725051Y-62922816D01*
X93729514Y-62914054D01*
X93777488Y-62863259D01*
X93845308Y-62846463D01*
X93911444Y-62868999D01*
X93950484Y-62914054D01*
X93954591Y-62922115D01*
X93954951Y-62922820D01*
X94079890Y-63094786D01*
X94230213Y-63245109D01*
X94402179Y-63370048D01*
X94402181Y-63370049D01*
X94402184Y-63370051D01*
X94591588Y-63466557D01*
X94793757Y-63532246D01*
X95003713Y-63565500D01*
X95003714Y-63565500D01*
X95216286Y-63565500D01*
X95216287Y-63565500D01*
X95426243Y-63532246D01*
X95628412Y-63466557D01*
X95817816Y-63370051D01*
X95904138Y-63307335D01*
X95989786Y-63245109D01*
X95989788Y-63245106D01*
X95989792Y-63245104D01*
X96140104Y-63094792D01*
X96140106Y-63094788D01*
X96140109Y-63094786D01*
X96265048Y-62922820D01*
X96265050Y-62922817D01*
X96265051Y-62922816D01*
X96269514Y-62914054D01*
X96317488Y-62863259D01*
X96385308Y-62846463D01*
X96451444Y-62868999D01*
X96490484Y-62914054D01*
X96494591Y-62922115D01*
X96494951Y-62922820D01*
X96619890Y-63094786D01*
X96770213Y-63245109D01*
X96942179Y-63370048D01*
X96942181Y-63370049D01*
X96942184Y-63370051D01*
X97131588Y-63466557D01*
X97333757Y-63532246D01*
X97543713Y-63565500D01*
X97543714Y-63565500D01*
X97756286Y-63565500D01*
X97756287Y-63565500D01*
X97966243Y-63532246D01*
X98168412Y-63466557D01*
X98357816Y-63370051D01*
X98444138Y-63307335D01*
X98529786Y-63245109D01*
X98529788Y-63245106D01*
X98529792Y-63245104D01*
X98680104Y-63094792D01*
X98680106Y-63094788D01*
X98680109Y-63094786D01*
X98805048Y-62922820D01*
X98805050Y-62922817D01*
X98805051Y-62922816D01*
X98809514Y-62914054D01*
X98857488Y-62863259D01*
X98925308Y-62846463D01*
X98991444Y-62868999D01*
X99030484Y-62914054D01*
X99034591Y-62922115D01*
X99034951Y-62922820D01*
X99159890Y-63094786D01*
X99310213Y-63245109D01*
X99482179Y-63370048D01*
X99482181Y-63370049D01*
X99482184Y-63370051D01*
X99671588Y-63466557D01*
X99873757Y-63532246D01*
X100083713Y-63565500D01*
X100083714Y-63565500D01*
X100296286Y-63565500D01*
X100296287Y-63565500D01*
X100506243Y-63532246D01*
X100708412Y-63466557D01*
X100897816Y-63370051D01*
X100984138Y-63307335D01*
X101069786Y-63245109D01*
X101069788Y-63245106D01*
X101069792Y-63245104D01*
X101220104Y-63094792D01*
X101220106Y-63094788D01*
X101220109Y-63094786D01*
X101345048Y-62922821D01*
X101345051Y-62922816D01*
X101349513Y-62914056D01*
X101397484Y-62863260D01*
X101465304Y-62846462D01*
X101531440Y-62868996D01*
X101570484Y-62914052D01*
X101574950Y-62922817D01*
X101699891Y-63094786D01*
X101850214Y-63245109D01*
X102022180Y-63370048D01*
X102022182Y-63370049D01*
X102022185Y-63370051D01*
X102211589Y-63466557D01*
X102413758Y-63532246D01*
X102623714Y-63565500D01*
X102623715Y-63565500D01*
X102836287Y-63565500D01*
X102836288Y-63565500D01*
X103046244Y-63532246D01*
X103248413Y-63466557D01*
X103437817Y-63370051D01*
X103524139Y-63307335D01*
X103609787Y-63245109D01*
X103609789Y-63245106D01*
X103609793Y-63245104D01*
X103760105Y-63094792D01*
X103760107Y-63094788D01*
X103760110Y-63094786D01*
X103885049Y-62922820D01*
X103885051Y-62922817D01*
X103885052Y-62922816D01*
X103889513Y-62914058D01*
X103937484Y-62863262D01*
X104005304Y-62846464D01*
X104071441Y-62868998D01*
X104110484Y-62914054D01*
X104114949Y-62922817D01*
X104239890Y-63094786D01*
X104390213Y-63245109D01*
X104562179Y-63370048D01*
X104562181Y-63370049D01*
X104562184Y-63370051D01*
X104751588Y-63466557D01*
X104953757Y-63532246D01*
X105163713Y-63565500D01*
X105163714Y-63565500D01*
X105376286Y-63565500D01*
X105376287Y-63565500D01*
X105586243Y-63532246D01*
X105788412Y-63466557D01*
X105977816Y-63370051D01*
X106064138Y-63307335D01*
X106149786Y-63245109D01*
X106149788Y-63245106D01*
X106149792Y-63245104D01*
X106300104Y-63094792D01*
X106300106Y-63094788D01*
X106300109Y-63094786D01*
X106425048Y-62922820D01*
X106425050Y-62922817D01*
X106425051Y-62922816D01*
X106429514Y-62914054D01*
X106477488Y-62863259D01*
X106545308Y-62846463D01*
X106611444Y-62868999D01*
X106650484Y-62914054D01*
X106654591Y-62922115D01*
X106654951Y-62922820D01*
X106779890Y-63094786D01*
X106930213Y-63245109D01*
X107102179Y-63370048D01*
X107102181Y-63370049D01*
X107102184Y-63370051D01*
X107291588Y-63466557D01*
X107493757Y-63532246D01*
X107703713Y-63565500D01*
X107703714Y-63565500D01*
X107916286Y-63565500D01*
X107916287Y-63565500D01*
X108126243Y-63532246D01*
X108328412Y-63466557D01*
X108517816Y-63370051D01*
X108604138Y-63307335D01*
X108689786Y-63245109D01*
X108689788Y-63245106D01*
X108689792Y-63245104D01*
X108840104Y-63094792D01*
X108840106Y-63094788D01*
X108840109Y-63094786D01*
X108965048Y-62922820D01*
X108965050Y-62922817D01*
X108965051Y-62922816D01*
X108969514Y-62914054D01*
X109017488Y-62863259D01*
X109085308Y-62846463D01*
X109151444Y-62868999D01*
X109190484Y-62914054D01*
X109194591Y-62922115D01*
X109194951Y-62922820D01*
X109319890Y-63094786D01*
X109470213Y-63245109D01*
X109642179Y-63370048D01*
X109642181Y-63370049D01*
X109642184Y-63370051D01*
X109831588Y-63466557D01*
X110033757Y-63532246D01*
X110243713Y-63565500D01*
X110243714Y-63565500D01*
X110456286Y-63565500D01*
X110456287Y-63565500D01*
X110666243Y-63532246D01*
X110868412Y-63466557D01*
X111057816Y-63370051D01*
X111144138Y-63307335D01*
X111229786Y-63245109D01*
X111229788Y-63245106D01*
X111229792Y-63245104D01*
X111380104Y-63094792D01*
X111380106Y-63094788D01*
X111380109Y-63094786D01*
X111505048Y-62922820D01*
X111505050Y-62922817D01*
X111505051Y-62922816D01*
X111509512Y-62914058D01*
X111557483Y-62863262D01*
X111625303Y-62846464D01*
X111691440Y-62868998D01*
X111730483Y-62914054D01*
X111734948Y-62922817D01*
X111859889Y-63094786D01*
X112010212Y-63245109D01*
X112182178Y-63370048D01*
X112182180Y-63370049D01*
X112182183Y-63370051D01*
X112371587Y-63466557D01*
X112573756Y-63532246D01*
X112783712Y-63565500D01*
X112783713Y-63565500D01*
X112996285Y-63565500D01*
X112996286Y-63565500D01*
X113206242Y-63532246D01*
X113408411Y-63466557D01*
X113597815Y-63370051D01*
X113684137Y-63307335D01*
X113769785Y-63245109D01*
X113769787Y-63245106D01*
X113769791Y-63245104D01*
X113920103Y-63094792D01*
X113920105Y-63094788D01*
X113920108Y-63094786D01*
X114045047Y-62922821D01*
X114045050Y-62922816D01*
X114049512Y-62914056D01*
X114097483Y-62863260D01*
X114165303Y-62846462D01*
X114231439Y-62868996D01*
X114270483Y-62914052D01*
X114274949Y-62922817D01*
X114399890Y-63094786D01*
X114550213Y-63245109D01*
X114722179Y-63370048D01*
X114722181Y-63370049D01*
X114722184Y-63370051D01*
X114911588Y-63466557D01*
X115113757Y-63532246D01*
X115323713Y-63565500D01*
X115323714Y-63565500D01*
X115536286Y-63565500D01*
X115536287Y-63565500D01*
X115746243Y-63532246D01*
X115948412Y-63466557D01*
X116137816Y-63370051D01*
X116224138Y-63307335D01*
X116309786Y-63245109D01*
X116309788Y-63245106D01*
X116309792Y-63245104D01*
X116460104Y-63094792D01*
X116460106Y-63094788D01*
X116460109Y-63094786D01*
X116585048Y-62922820D01*
X116585050Y-62922817D01*
X116585051Y-62922816D01*
X116589514Y-62914054D01*
X116637488Y-62863259D01*
X116705308Y-62846463D01*
X116771444Y-62868999D01*
X116810484Y-62914054D01*
X116814591Y-62922115D01*
X116814951Y-62922820D01*
X116939890Y-63094786D01*
X117090213Y-63245109D01*
X117262179Y-63370048D01*
X117262181Y-63370049D01*
X117262184Y-63370051D01*
X117451588Y-63466557D01*
X117653757Y-63532246D01*
X117863713Y-63565500D01*
X117863714Y-63565500D01*
X118076286Y-63565500D01*
X118076287Y-63565500D01*
X118286243Y-63532246D01*
X118488412Y-63466557D01*
X118677816Y-63370051D01*
X118764138Y-63307335D01*
X118849786Y-63245109D01*
X118849788Y-63245106D01*
X118849792Y-63245104D01*
X119000104Y-63094792D01*
X119000106Y-63094788D01*
X119000109Y-63094786D01*
X119125048Y-62922820D01*
X119125050Y-62922817D01*
X119125051Y-62922816D01*
X119129514Y-62914054D01*
X119177488Y-62863259D01*
X119245308Y-62846463D01*
X119311444Y-62868999D01*
X119350484Y-62914054D01*
X119354591Y-62922115D01*
X119354951Y-62922820D01*
X119479890Y-63094786D01*
X119630213Y-63245109D01*
X119802179Y-63370048D01*
X119802181Y-63370049D01*
X119802184Y-63370051D01*
X119991588Y-63466557D01*
X120193757Y-63532246D01*
X120403713Y-63565500D01*
X120403714Y-63565500D01*
X120616286Y-63565500D01*
X120616287Y-63565500D01*
X120826243Y-63532246D01*
X121028412Y-63466557D01*
X121217816Y-63370051D01*
X121304138Y-63307335D01*
X121389786Y-63245109D01*
X121389788Y-63245106D01*
X121389792Y-63245104D01*
X121540104Y-63094792D01*
X121540106Y-63094788D01*
X121540109Y-63094786D01*
X121665048Y-62922820D01*
X121665050Y-62922817D01*
X121665051Y-62922816D01*
X121669512Y-62914058D01*
X121717483Y-62863262D01*
X121785303Y-62846464D01*
X121851440Y-62868998D01*
X121890483Y-62914054D01*
X121894948Y-62922817D01*
X122019889Y-63094786D01*
X122170212Y-63245109D01*
X122342178Y-63370048D01*
X122342180Y-63370049D01*
X122342183Y-63370051D01*
X122531587Y-63466557D01*
X122733756Y-63532246D01*
X122943712Y-63565500D01*
X122943713Y-63565500D01*
X123156285Y-63565500D01*
X123156286Y-63565500D01*
X123366242Y-63532246D01*
X123568411Y-63466557D01*
X123757815Y-63370051D01*
X123844137Y-63307335D01*
X123929785Y-63245109D01*
X123929787Y-63245106D01*
X123929791Y-63245104D01*
X124080103Y-63094792D01*
X124080105Y-63094788D01*
X124080108Y-63094786D01*
X124205047Y-62922820D01*
X124205049Y-62922817D01*
X124205050Y-62922816D01*
X124301556Y-62733412D01*
X124367245Y-62531243D01*
X124400499Y-62321287D01*
X124400499Y-62108713D01*
X124367245Y-61898757D01*
X124301556Y-61696588D01*
X124205050Y-61507184D01*
X124205048Y-61507181D01*
X124205047Y-61507179D01*
X124080108Y-61335213D01*
X123929785Y-61184890D01*
X123757819Y-61059951D01*
X123568413Y-60963444D01*
X123568412Y-60963443D01*
X123568411Y-60963443D01*
X123366242Y-60897754D01*
X123366240Y-60897753D01*
X123366239Y-60897753D01*
X123204956Y-60872208D01*
X123156286Y-60864500D01*
X122943712Y-60864500D01*
X122895041Y-60872208D01*
X122733759Y-60897753D01*
X122531584Y-60963444D01*
X122342178Y-61059951D01*
X122170212Y-61184890D01*
X122019889Y-61335213D01*
X121894947Y-61507183D01*
X121890481Y-61515949D01*
X121842505Y-61566742D01*
X121774683Y-61583535D01*
X121708549Y-61560995D01*
X121669513Y-61515942D01*
X121665051Y-61507184D01*
X121665049Y-61507181D01*
X121665048Y-61507179D01*
X121540109Y-61335213D01*
X121389786Y-61184890D01*
X121217820Y-61059951D01*
X121028414Y-60963444D01*
X121028413Y-60963443D01*
X121028412Y-60963443D01*
X120826243Y-60897754D01*
X120826241Y-60897753D01*
X120826240Y-60897753D01*
X120664957Y-60872208D01*
X120616287Y-60864500D01*
X120403713Y-60864500D01*
X120355042Y-60872208D01*
X120193760Y-60897753D01*
X119991585Y-60963444D01*
X119802179Y-61059951D01*
X119630213Y-61184890D01*
X119479890Y-61335213D01*
X119354949Y-61507182D01*
X119350484Y-61515946D01*
X119302509Y-61566742D01*
X119234688Y-61583536D01*
X119168553Y-61560998D01*
X119129516Y-61515946D01*
X119125050Y-61507182D01*
X119000109Y-61335213D01*
X118849786Y-61184890D01*
X118677820Y-61059951D01*
X118488414Y-60963444D01*
X118488413Y-60963443D01*
X118488412Y-60963443D01*
X118286243Y-60897754D01*
X118286241Y-60897753D01*
X118286240Y-60897753D01*
X118124957Y-60872208D01*
X118076287Y-60864500D01*
X117863713Y-60864500D01*
X117815042Y-60872208D01*
X117653760Y-60897753D01*
X117451585Y-60963444D01*
X117262179Y-61059951D01*
X117090213Y-61184890D01*
X116939890Y-61335213D01*
X116814949Y-61507182D01*
X116810484Y-61515946D01*
X116762509Y-61566742D01*
X116694688Y-61583536D01*
X116628553Y-61560998D01*
X116589516Y-61515946D01*
X116585050Y-61507182D01*
X116460109Y-61335213D01*
X116309786Y-61184890D01*
X116137820Y-61059951D01*
X115948414Y-60963444D01*
X115948413Y-60963443D01*
X115948412Y-60963443D01*
X115746243Y-60897754D01*
X115746241Y-60897753D01*
X115746240Y-60897753D01*
X115584957Y-60872208D01*
X115536287Y-60864500D01*
X115323713Y-60864500D01*
X115275042Y-60872208D01*
X115113760Y-60897753D01*
X114911585Y-60963444D01*
X114722179Y-61059951D01*
X114550213Y-61184890D01*
X114399890Y-61335213D01*
X114274948Y-61507184D01*
X114274946Y-61507187D01*
X114270481Y-61515950D01*
X114222505Y-61566744D01*
X114154683Y-61583537D01*
X114088549Y-61560997D01*
X114049513Y-61515944D01*
X114049512Y-61515942D01*
X114045050Y-61507184D01*
X114045048Y-61507181D01*
X114045047Y-61507179D01*
X113920108Y-61335213D01*
X113769785Y-61184890D01*
X113597819Y-61059951D01*
X113408413Y-60963444D01*
X113408412Y-60963443D01*
X113408411Y-60963443D01*
X113206242Y-60897754D01*
X113206240Y-60897753D01*
X113206239Y-60897753D01*
X113044956Y-60872208D01*
X112996286Y-60864500D01*
X112783712Y-60864500D01*
X112735041Y-60872208D01*
X112573759Y-60897753D01*
X112371584Y-60963444D01*
X112182178Y-61059951D01*
X112010212Y-61184890D01*
X111859889Y-61335213D01*
X111734947Y-61507183D01*
X111730481Y-61515949D01*
X111682505Y-61566742D01*
X111614683Y-61583535D01*
X111548549Y-61560995D01*
X111509513Y-61515942D01*
X111505051Y-61507184D01*
X111505049Y-61507181D01*
X111505048Y-61507179D01*
X111380109Y-61335213D01*
X111229786Y-61184890D01*
X111057820Y-61059951D01*
X110868414Y-60963444D01*
X110868413Y-60963443D01*
X110868412Y-60963443D01*
X110666243Y-60897754D01*
X110666241Y-60897753D01*
X110666240Y-60897753D01*
X110504957Y-60872208D01*
X110456287Y-60864500D01*
X110243713Y-60864500D01*
X110195042Y-60872208D01*
X110033760Y-60897753D01*
X109831585Y-60963444D01*
X109642179Y-61059951D01*
X109470213Y-61184890D01*
X109319890Y-61335213D01*
X109194949Y-61507182D01*
X109190484Y-61515946D01*
X109142509Y-61566742D01*
X109074688Y-61583536D01*
X109008553Y-61560998D01*
X108969516Y-61515946D01*
X108965050Y-61507182D01*
X108840109Y-61335213D01*
X108689786Y-61184890D01*
X108517820Y-61059951D01*
X108328414Y-60963444D01*
X108328413Y-60963443D01*
X108328412Y-60963443D01*
X108126243Y-60897754D01*
X108126241Y-60897753D01*
X108126240Y-60897753D01*
X107964957Y-60872208D01*
X107916287Y-60864500D01*
X107703713Y-60864500D01*
X107655042Y-60872208D01*
X107493760Y-60897753D01*
X107291585Y-60963444D01*
X107102179Y-61059951D01*
X106930213Y-61184890D01*
X106779890Y-61335213D01*
X106654949Y-61507182D01*
X106650484Y-61515946D01*
X106602509Y-61566742D01*
X106534688Y-61583536D01*
X106468553Y-61560998D01*
X106429516Y-61515946D01*
X106425050Y-61507182D01*
X106300109Y-61335213D01*
X106149786Y-61184890D01*
X105977820Y-61059951D01*
X105788414Y-60963444D01*
X105788413Y-60963443D01*
X105788412Y-60963443D01*
X105586243Y-60897754D01*
X105586241Y-60897753D01*
X105586240Y-60897753D01*
X105424957Y-60872208D01*
X105376287Y-60864500D01*
X105163713Y-60864500D01*
X105115042Y-60872208D01*
X104953760Y-60897753D01*
X104751585Y-60963444D01*
X104562179Y-61059951D01*
X104390213Y-61184890D01*
X104239890Y-61335213D01*
X104114948Y-61507183D01*
X104110482Y-61515949D01*
X104062506Y-61566742D01*
X103994684Y-61583535D01*
X103928550Y-61560995D01*
X103889514Y-61515942D01*
X103885052Y-61507184D01*
X103885050Y-61507181D01*
X103885049Y-61507179D01*
X103760110Y-61335213D01*
X103609787Y-61184890D01*
X103437821Y-61059951D01*
X103248415Y-60963444D01*
X103248414Y-60963443D01*
X103248413Y-60963443D01*
X103046244Y-60897754D01*
X103046242Y-60897753D01*
X103046241Y-60897753D01*
X102884958Y-60872208D01*
X102836288Y-60864500D01*
X102623714Y-60864500D01*
X102575043Y-60872208D01*
X102413761Y-60897753D01*
X102211586Y-60963444D01*
X102022180Y-61059951D01*
X101850214Y-61184890D01*
X101699891Y-61335213D01*
X101574949Y-61507184D01*
X101574947Y-61507187D01*
X101570482Y-61515950D01*
X101522506Y-61566744D01*
X101454684Y-61583537D01*
X101388550Y-61560997D01*
X101349514Y-61515944D01*
X101349513Y-61515942D01*
X101345051Y-61507184D01*
X101345049Y-61507181D01*
X101345048Y-61507179D01*
X101220109Y-61335213D01*
X101069786Y-61184890D01*
X100897820Y-61059951D01*
X100708414Y-60963444D01*
X100708413Y-60963443D01*
X100708412Y-60963443D01*
X100506243Y-60897754D01*
X100506241Y-60897753D01*
X100506240Y-60897753D01*
X100344957Y-60872208D01*
X100296287Y-60864500D01*
X100083713Y-60864500D01*
X100035042Y-60872208D01*
X99873760Y-60897753D01*
X99671585Y-60963444D01*
X99482179Y-61059951D01*
X99310213Y-61184890D01*
X99159890Y-61335213D01*
X99034949Y-61507182D01*
X99030484Y-61515946D01*
X98982509Y-61566742D01*
X98914688Y-61583536D01*
X98848553Y-61560998D01*
X98809516Y-61515946D01*
X98805050Y-61507182D01*
X98680109Y-61335213D01*
X98529786Y-61184890D01*
X98357820Y-61059951D01*
X98168414Y-60963444D01*
X98168413Y-60963443D01*
X98168412Y-60963443D01*
X97966243Y-60897754D01*
X97966241Y-60897753D01*
X97966240Y-60897753D01*
X97804957Y-60872208D01*
X97756287Y-60864500D01*
X97543713Y-60864500D01*
X97495042Y-60872208D01*
X97333760Y-60897753D01*
X97131585Y-60963444D01*
X96942179Y-61059951D01*
X96770213Y-61184890D01*
X96619890Y-61335213D01*
X96494949Y-61507182D01*
X96490484Y-61515946D01*
X96442509Y-61566742D01*
X96374688Y-61583536D01*
X96308553Y-61560998D01*
X96269516Y-61515946D01*
X96265050Y-61507182D01*
X96140109Y-61335213D01*
X95989786Y-61184890D01*
X95817820Y-61059951D01*
X95628414Y-60963444D01*
X95628413Y-60963443D01*
X95628412Y-60963443D01*
X95426243Y-60897754D01*
X95426241Y-60897753D01*
X95426240Y-60897753D01*
X95264957Y-60872208D01*
X95216287Y-60864500D01*
X95003713Y-60864500D01*
X94955042Y-60872208D01*
X94793760Y-60897753D01*
X94591585Y-60963444D01*
X94402179Y-61059951D01*
X94230213Y-61184890D01*
X94079890Y-61335213D01*
X93954949Y-61507182D01*
X93950484Y-61515946D01*
X93902509Y-61566742D01*
X93834688Y-61583536D01*
X93768553Y-61560998D01*
X93729516Y-61515946D01*
X93725050Y-61507182D01*
X93600109Y-61335213D01*
X93449786Y-61184890D01*
X93277820Y-61059951D01*
X93088414Y-60963444D01*
X93088413Y-60963443D01*
X93088412Y-60963443D01*
X92886243Y-60897754D01*
X92886241Y-60897753D01*
X92886240Y-60897753D01*
X92724957Y-60872208D01*
X92676287Y-60864500D01*
X92463713Y-60864500D01*
X92415042Y-60872208D01*
X92253760Y-60897753D01*
X92051585Y-60963444D01*
X91862179Y-61059951D01*
X91690213Y-61184890D01*
X91539890Y-61335213D01*
X91414948Y-61507184D01*
X91414946Y-61507187D01*
X91410481Y-61515950D01*
X91362505Y-61566744D01*
X91294683Y-61583537D01*
X91228549Y-61560997D01*
X91189513Y-61515944D01*
X91189512Y-61515942D01*
X91185050Y-61507184D01*
X91185048Y-61507181D01*
X91185047Y-61507179D01*
X91060108Y-61335213D01*
X90909785Y-61184890D01*
X90737819Y-61059951D01*
X90548413Y-60963444D01*
X90548412Y-60963443D01*
X90548411Y-60963443D01*
X90346242Y-60897754D01*
X90346240Y-60897753D01*
X90346239Y-60897753D01*
X90184956Y-60872208D01*
X90136286Y-60864500D01*
X89923712Y-60864500D01*
X89875041Y-60872208D01*
X89713759Y-60897753D01*
X89511584Y-60963444D01*
X89322178Y-61059951D01*
X89150212Y-61184890D01*
X88999889Y-61335213D01*
X88874947Y-61507183D01*
X88870481Y-61515949D01*
X88822505Y-61566742D01*
X88754683Y-61583535D01*
X88688549Y-61560995D01*
X88649513Y-61515942D01*
X88645051Y-61507184D01*
X88645049Y-61507181D01*
X88645048Y-61507179D01*
X88520109Y-61335213D01*
X88369786Y-61184890D01*
X88197820Y-61059951D01*
X88008414Y-60963444D01*
X88008413Y-60963443D01*
X88008412Y-60963443D01*
X87806243Y-60897754D01*
X87806241Y-60897753D01*
X87806240Y-60897753D01*
X87644957Y-60872208D01*
X87596287Y-60864500D01*
X87383713Y-60864500D01*
X87335042Y-60872208D01*
X87173760Y-60897753D01*
X86971585Y-60963444D01*
X86782179Y-61059951D01*
X86610215Y-61184889D01*
X86496673Y-61298431D01*
X86435350Y-61331915D01*
X86365658Y-61326931D01*
X86309725Y-61285059D01*
X86292810Y-61254082D01*
X86243797Y-61122671D01*
X86243793Y-61122664D01*
X86157547Y-61007455D01*
X86157544Y-61007452D01*
X86042335Y-60921206D01*
X86042328Y-60921202D01*
X85907482Y-60870908D01*
X85907483Y-60870908D01*
X85847883Y-60864501D01*
X85847881Y-60864500D01*
X85847873Y-60864500D01*
X85847864Y-60864500D01*
X84052129Y-60864500D01*
X84052123Y-60864501D01*
X83992516Y-60870908D01*
X83857671Y-60921202D01*
X83857664Y-60921206D01*
X83742455Y-61007452D01*
X83742452Y-61007455D01*
X83656206Y-61122664D01*
X83656202Y-61122671D01*
X83605908Y-61257517D01*
X83599501Y-61317116D01*
X83599500Y-61317135D01*
X77500500Y-61317135D01*
X77500500Y-46893713D01*
X93759500Y-46893713D01*
X93759500Y-47106287D01*
X93792754Y-47316243D01*
X93839999Y-47461649D01*
X93858444Y-47518414D01*
X93954951Y-47707820D01*
X94079890Y-47879786D01*
X94230213Y-48030109D01*
X94402179Y-48155048D01*
X94402181Y-48155049D01*
X94402184Y-48155051D01*
X94591588Y-48251557D01*
X94793757Y-48317246D01*
X95003713Y-48350500D01*
X95003714Y-48350500D01*
X95216286Y-48350500D01*
X95216287Y-48350500D01*
X95426243Y-48317246D01*
X95628412Y-48251557D01*
X95817816Y-48155051D01*
X95904478Y-48092088D01*
X95989786Y-48030109D01*
X95989788Y-48030106D01*
X95989792Y-48030104D01*
X96140104Y-47879792D01*
X96140106Y-47879788D01*
X96140109Y-47879786D01*
X96265048Y-47707821D01*
X96265188Y-47707547D01*
X96269513Y-47699056D01*
X96317484Y-47648260D01*
X96385304Y-47631462D01*
X96451440Y-47653996D01*
X96490484Y-47699052D01*
X96494950Y-47707817D01*
X96619891Y-47879786D01*
X96770214Y-48030109D01*
X96942180Y-48155048D01*
X96942182Y-48155049D01*
X96942185Y-48155051D01*
X97131589Y-48251557D01*
X97333758Y-48317246D01*
X97543714Y-48350500D01*
X97543715Y-48350500D01*
X97756287Y-48350500D01*
X97756288Y-48350500D01*
X97966244Y-48317246D01*
X98168413Y-48251557D01*
X98357817Y-48155051D01*
X98444479Y-48092088D01*
X98529787Y-48030109D01*
X98529789Y-48030106D01*
X98529793Y-48030104D01*
X98680105Y-47879792D01*
X98680107Y-47879788D01*
X98680110Y-47879786D01*
X98805049Y-47707820D01*
X98805051Y-47707817D01*
X98805052Y-47707816D01*
X98809515Y-47699054D01*
X98857489Y-47648259D01*
X98925309Y-47631463D01*
X98991445Y-47653999D01*
X99030485Y-47699054D01*
X99034592Y-47707115D01*
X99034952Y-47707820D01*
X99159891Y-47879786D01*
X99310214Y-48030109D01*
X99482180Y-48155048D01*
X99482182Y-48155049D01*
X99482185Y-48155051D01*
X99671589Y-48251557D01*
X99873758Y-48317246D01*
X100083714Y-48350500D01*
X100083715Y-48350500D01*
X100296287Y-48350500D01*
X100296288Y-48350500D01*
X100506244Y-48317246D01*
X100708413Y-48251557D01*
X100897817Y-48155051D01*
X100984479Y-48092088D01*
X101069787Y-48030109D01*
X101069789Y-48030106D01*
X101069793Y-48030104D01*
X101220105Y-47879792D01*
X101220107Y-47879788D01*
X101220110Y-47879786D01*
X101345049Y-47707820D01*
X101345051Y-47707817D01*
X101345052Y-47707816D01*
X101349515Y-47699054D01*
X101397489Y-47648259D01*
X101465309Y-47631463D01*
X101531445Y-47653999D01*
X101570485Y-47699054D01*
X101574592Y-47707115D01*
X101574952Y-47707820D01*
X101699891Y-47879786D01*
X101850214Y-48030109D01*
X102022180Y-48155048D01*
X102022182Y-48155049D01*
X102022185Y-48155051D01*
X102211589Y-48251557D01*
X102413758Y-48317246D01*
X102623714Y-48350500D01*
X102623715Y-48350500D01*
X102836287Y-48350500D01*
X102836288Y-48350500D01*
X103046244Y-48317246D01*
X103248413Y-48251557D01*
X103437817Y-48155051D01*
X103524479Y-48092088D01*
X103609787Y-48030109D01*
X103609789Y-48030106D01*
X103609793Y-48030104D01*
X103760105Y-47879792D01*
X103760107Y-47879788D01*
X103760110Y-47879786D01*
X103885049Y-47707820D01*
X103885051Y-47707817D01*
X103885052Y-47707816D01*
X103889515Y-47699054D01*
X103937489Y-47648259D01*
X104005309Y-47631463D01*
X104071445Y-47653999D01*
X104110485Y-47699054D01*
X104114592Y-47707115D01*
X104114952Y-47707820D01*
X104239891Y-47879786D01*
X104390214Y-48030109D01*
X104562180Y-48155048D01*
X104562182Y-48155049D01*
X104562185Y-48155051D01*
X104751589Y-48251557D01*
X104953758Y-48317246D01*
X105163714Y-48350500D01*
X105163715Y-48350500D01*
X105376287Y-48350500D01*
X105376288Y-48350500D01*
X105586244Y-48317246D01*
X105788413Y-48251557D01*
X105977817Y-48155051D01*
X106064479Y-48092088D01*
X106149787Y-48030109D01*
X106149789Y-48030106D01*
X106149793Y-48030104D01*
X106300105Y-47879792D01*
X106300107Y-47879788D01*
X106300110Y-47879786D01*
X106425049Y-47707820D01*
X106425051Y-47707817D01*
X106425052Y-47707816D01*
X106429796Y-47698504D01*
X106477768Y-47647708D01*
X106545588Y-47630911D01*
X106611724Y-47653446D01*
X106650767Y-47698503D01*
X106655375Y-47707547D01*
X106694730Y-47761716D01*
X107327039Y-47129408D01*
X107344077Y-47192993D01*
X107409903Y-47307007D01*
X107502995Y-47400099D01*
X107617009Y-47465925D01*
X107680592Y-47482962D01*
X107048284Y-48115269D01*
X107048284Y-48115270D01*
X107102451Y-48154624D01*
X107291784Y-48251095D01*
X107493872Y-48316757D01*
X107703756Y-48350000D01*
X107916248Y-48350000D01*
X108126129Y-48316757D01*
X108126132Y-48316757D01*
X108328219Y-48251095D01*
X108517556Y-48154622D01*
X108571718Y-48115270D01*
X108571719Y-48115270D01*
X107939410Y-47482962D01*
X108002995Y-47465925D01*
X108117009Y-47400099D01*
X108210101Y-47307007D01*
X108275927Y-47192993D01*
X108292964Y-47129409D01*
X108925272Y-47761717D01*
X108925272Y-47761716D01*
X108964625Y-47707553D01*
X108969232Y-47698511D01*
X109017203Y-47647712D01*
X109085023Y-47630912D01*
X109151159Y-47653446D01*
X109190203Y-47698501D01*
X109194950Y-47707817D01*
X109319891Y-47879786D01*
X109470214Y-48030109D01*
X109642180Y-48155048D01*
X109642182Y-48155049D01*
X109642185Y-48155051D01*
X109831589Y-48251557D01*
X110033758Y-48317246D01*
X110243714Y-48350500D01*
X110243715Y-48350500D01*
X110456287Y-48350500D01*
X110456288Y-48350500D01*
X110666244Y-48317246D01*
X110868413Y-48251557D01*
X111057817Y-48155051D01*
X111144479Y-48092088D01*
X111229785Y-48030110D01*
X111229785Y-48030109D01*
X111229793Y-48030104D01*
X111343718Y-47916178D01*
X111405037Y-47882696D01*
X111474729Y-47887680D01*
X111530663Y-47929551D01*
X111547578Y-47960528D01*
X111596647Y-48092088D01*
X111596650Y-48092093D01*
X111682810Y-48207187D01*
X111682813Y-48207190D01*
X111797907Y-48293350D01*
X111797914Y-48293354D01*
X111932621Y-48343596D01*
X111932628Y-48343598D01*
X111992156Y-48349999D01*
X111992173Y-48350000D01*
X112640001Y-48350000D01*
X112640001Y-47433012D01*
X112697008Y-47465925D01*
X112824175Y-47500000D01*
X112955827Y-47500000D01*
X113082994Y-47465925D01*
X113140001Y-47433012D01*
X113140001Y-48350000D01*
X113787829Y-48350000D01*
X113787845Y-48349999D01*
X113847373Y-48343598D01*
X113847380Y-48343596D01*
X113982087Y-48293354D01*
X113982094Y-48293350D01*
X114097188Y-48207190D01*
X114097191Y-48207187D01*
X114183351Y-48092093D01*
X114183355Y-48092086D01*
X114233597Y-47957379D01*
X114233599Y-47957372D01*
X114240000Y-47897844D01*
X114240001Y-47897827D01*
X114240001Y-47250000D01*
X113323013Y-47250000D01*
X113355926Y-47192993D01*
X113390001Y-47065826D01*
X113390001Y-46934174D01*
X113355926Y-46807007D01*
X113323013Y-46750000D01*
X114240001Y-46750000D01*
X114240001Y-46102172D01*
X114240000Y-46102160D01*
X114238377Y-46087064D01*
X114238377Y-46087062D01*
X114237310Y-46077135D01*
X130764500Y-46077135D01*
X130764500Y-47872870D01*
X130764501Y-47872876D01*
X130770908Y-47932483D01*
X130821202Y-48067328D01*
X130821206Y-48067335D01*
X130907452Y-48182544D01*
X130907455Y-48182547D01*
X131022664Y-48268793D01*
X131022671Y-48268797D01*
X131067618Y-48285561D01*
X131157517Y-48319091D01*
X131217127Y-48325500D01*
X131227685Y-48325499D01*
X131294723Y-48345179D01*
X131315372Y-48361818D01*
X131985591Y-49032037D01*
X131922007Y-49049075D01*
X131807993Y-49114901D01*
X131714901Y-49207993D01*
X131649075Y-49322007D01*
X131632037Y-49385591D01*
X130999728Y-48753282D01*
X130999727Y-48753282D01*
X130960380Y-48807439D01*
X130863904Y-48996782D01*
X130798242Y-49198869D01*
X130798242Y-49198872D01*
X130765000Y-49408753D01*
X130765000Y-49621246D01*
X130798242Y-49831127D01*
X130798242Y-49831130D01*
X130863904Y-50033217D01*
X130960375Y-50222550D01*
X130999728Y-50276716D01*
X131632037Y-49644408D01*
X131649075Y-49707993D01*
X131714901Y-49822007D01*
X131807993Y-49915099D01*
X131922007Y-49980925D01*
X131985590Y-49997962D01*
X131353282Y-50630269D01*
X131353282Y-50630270D01*
X131407449Y-50669624D01*
X131596782Y-50766095D01*
X131798870Y-50831757D01*
X132008754Y-50865000D01*
X132221246Y-50865000D01*
X132431127Y-50831757D01*
X132431130Y-50831757D01*
X132633217Y-50766095D01*
X132822554Y-50669622D01*
X132876716Y-50630270D01*
X132876717Y-50630270D01*
X132244408Y-49997962D01*
X132307993Y-49980925D01*
X132422007Y-49915099D01*
X132515099Y-49822007D01*
X132580925Y-49707993D01*
X132597962Y-49644408D01*
X133230270Y-50276717D01*
X133230270Y-50276716D01*
X133269622Y-50222554D01*
X133366095Y-50033217D01*
X133431757Y-49831130D01*
X133431757Y-49831127D01*
X133465000Y-49621246D01*
X133465000Y-49408753D01*
X133431757Y-49198872D01*
X133431757Y-49198869D01*
X133366095Y-48996782D01*
X133269624Y-48807449D01*
X133230270Y-48753282D01*
X133230269Y-48753282D01*
X132597962Y-49385590D01*
X132580925Y-49322007D01*
X132515099Y-49207993D01*
X132422007Y-49114901D01*
X132307993Y-49049075D01*
X132244409Y-49032037D01*
X132914627Y-48361818D01*
X132975950Y-48328333D01*
X133002307Y-48325499D01*
X133012872Y-48325499D01*
X133072483Y-48319091D01*
X133207331Y-48268796D01*
X133322546Y-48182546D01*
X133408796Y-48067331D01*
X133459091Y-47932483D01*
X133465500Y-47872873D01*
X133465499Y-46077128D01*
X133459091Y-46017517D01*
X133441327Y-45969890D01*
X133408797Y-45882671D01*
X133408793Y-45882664D01*
X133322547Y-45767455D01*
X133322544Y-45767452D01*
X133207335Y-45681206D01*
X133207328Y-45681202D01*
X133072482Y-45630908D01*
X133072483Y-45630908D01*
X133012883Y-45624501D01*
X133012881Y-45624500D01*
X133012873Y-45624500D01*
X133012864Y-45624500D01*
X131217129Y-45624500D01*
X131217123Y-45624501D01*
X131157516Y-45630908D01*
X131022671Y-45681202D01*
X131022664Y-45681206D01*
X130907455Y-45767452D01*
X130907452Y-45767455D01*
X130821206Y-45882664D01*
X130821202Y-45882671D01*
X130770908Y-46017517D01*
X130768209Y-46042627D01*
X130764501Y-46077123D01*
X130764500Y-46077135D01*
X114237310Y-46077135D01*
X114233599Y-46042627D01*
X114233597Y-46042620D01*
X114183355Y-45907913D01*
X114183351Y-45907906D01*
X114097191Y-45792812D01*
X114097188Y-45792809D01*
X113982094Y-45706649D01*
X113982087Y-45706645D01*
X113847380Y-45656403D01*
X113847373Y-45656401D01*
X113787845Y-45650000D01*
X113140001Y-45650000D01*
X113140001Y-46566988D01*
X113082994Y-46534075D01*
X112955827Y-46500000D01*
X112824175Y-46500000D01*
X112697008Y-46534075D01*
X112640001Y-46566988D01*
X112640001Y-45650000D01*
X111992156Y-45650000D01*
X111932628Y-45656401D01*
X111932621Y-45656403D01*
X111797914Y-45706645D01*
X111797907Y-45706649D01*
X111682813Y-45792809D01*
X111682810Y-45792812D01*
X111596650Y-45907906D01*
X111596647Y-45907912D01*
X111547578Y-46039471D01*
X111505706Y-46095404D01*
X111440242Y-46119821D01*
X111371969Y-46104969D01*
X111343715Y-46083818D01*
X111229787Y-45969890D01*
X111057821Y-45844951D01*
X110868415Y-45748444D01*
X110868414Y-45748443D01*
X110868413Y-45748443D01*
X110666244Y-45682754D01*
X110666242Y-45682753D01*
X110666241Y-45682753D01*
X110504958Y-45657208D01*
X110456288Y-45649500D01*
X110243714Y-45649500D01*
X110195043Y-45657208D01*
X110033761Y-45682753D01*
X109831586Y-45748444D01*
X109642180Y-45844951D01*
X109470214Y-45969890D01*
X109319891Y-46120213D01*
X109194951Y-46292181D01*
X109190202Y-46301501D01*
X109142224Y-46352294D01*
X109074403Y-46369086D01*
X109008269Y-46346545D01*
X108969233Y-46301491D01*
X108964626Y-46292449D01*
X108925272Y-46238282D01*
X108925271Y-46238282D01*
X108292964Y-46870590D01*
X108275927Y-46807007D01*
X108210101Y-46692993D01*
X108117009Y-46599901D01*
X108002995Y-46534075D01*
X107939411Y-46517037D01*
X108571718Y-45884728D01*
X108517552Y-45845375D01*
X108328219Y-45748904D01*
X108126131Y-45683242D01*
X107916248Y-45650000D01*
X107703756Y-45650000D01*
X107493874Y-45683242D01*
X107493871Y-45683242D01*
X107291784Y-45748904D01*
X107102441Y-45845380D01*
X107048284Y-45884727D01*
X107048284Y-45884728D01*
X107680593Y-46517037D01*
X107617009Y-46534075D01*
X107502995Y-46599901D01*
X107409903Y-46692993D01*
X107344077Y-46807007D01*
X107327039Y-46870591D01*
X106694730Y-46238282D01*
X106694729Y-46238282D01*
X106655382Y-46292440D01*
X106650764Y-46301503D01*
X106602786Y-46352296D01*
X106534965Y-46369088D01*
X106468831Y-46346547D01*
X106429797Y-46301496D01*
X106425051Y-46292182D01*
X106300110Y-46120213D01*
X106149787Y-45969890D01*
X105977821Y-45844951D01*
X105788415Y-45748444D01*
X105788414Y-45748443D01*
X105788413Y-45748443D01*
X105586244Y-45682754D01*
X105586242Y-45682753D01*
X105586241Y-45682753D01*
X105424958Y-45657208D01*
X105376288Y-45649500D01*
X105163714Y-45649500D01*
X105115043Y-45657208D01*
X104953761Y-45682753D01*
X104751586Y-45748444D01*
X104562180Y-45844951D01*
X104390214Y-45969890D01*
X104239891Y-46120213D01*
X104114950Y-46292182D01*
X104110485Y-46300946D01*
X104062510Y-46351742D01*
X103994689Y-46368536D01*
X103928554Y-46345998D01*
X103889517Y-46300946D01*
X103885051Y-46292182D01*
X103760110Y-46120213D01*
X103609787Y-45969890D01*
X103437821Y-45844951D01*
X103248415Y-45748444D01*
X103248414Y-45748443D01*
X103248413Y-45748443D01*
X103046244Y-45682754D01*
X103046242Y-45682753D01*
X103046241Y-45682753D01*
X102884958Y-45657208D01*
X102836288Y-45649500D01*
X102623714Y-45649500D01*
X102575043Y-45657208D01*
X102413761Y-45682753D01*
X102211586Y-45748444D01*
X102022180Y-45844951D01*
X101850214Y-45969890D01*
X101699891Y-46120213D01*
X101574950Y-46292182D01*
X101570485Y-46300946D01*
X101522510Y-46351742D01*
X101454689Y-46368536D01*
X101388554Y-46345998D01*
X101349517Y-46300946D01*
X101345051Y-46292182D01*
X101220110Y-46120213D01*
X101069787Y-45969890D01*
X100897821Y-45844951D01*
X100708415Y-45748444D01*
X100708414Y-45748443D01*
X100708413Y-45748443D01*
X100506244Y-45682754D01*
X100506242Y-45682753D01*
X100506241Y-45682753D01*
X100344958Y-45657208D01*
X100296288Y-45649500D01*
X100083714Y-45649500D01*
X100035043Y-45657208D01*
X99873761Y-45682753D01*
X99671586Y-45748444D01*
X99482180Y-45844951D01*
X99310214Y-45969890D01*
X99159891Y-46120213D01*
X99034950Y-46292182D01*
X99030485Y-46300946D01*
X98982510Y-46351742D01*
X98914689Y-46368536D01*
X98848554Y-46345998D01*
X98809517Y-46300946D01*
X98805051Y-46292182D01*
X98680110Y-46120213D01*
X98529787Y-45969890D01*
X98357821Y-45844951D01*
X98168415Y-45748444D01*
X98168414Y-45748443D01*
X98168413Y-45748443D01*
X97966244Y-45682754D01*
X97966242Y-45682753D01*
X97966241Y-45682753D01*
X97804958Y-45657208D01*
X97756288Y-45649500D01*
X97543714Y-45649500D01*
X97495043Y-45657208D01*
X97333761Y-45682753D01*
X97131586Y-45748444D01*
X96942180Y-45844951D01*
X96770214Y-45969890D01*
X96619891Y-46120213D01*
X96494949Y-46292184D01*
X96494947Y-46292187D01*
X96490482Y-46300950D01*
X96442506Y-46351744D01*
X96374684Y-46368537D01*
X96308550Y-46345997D01*
X96269514Y-46300944D01*
X96265181Y-46292440D01*
X96265051Y-46292184D01*
X96265049Y-46292181D01*
X96265048Y-46292179D01*
X96140109Y-46120213D01*
X95989786Y-45969890D01*
X95817820Y-45844951D01*
X95628414Y-45748444D01*
X95628413Y-45748443D01*
X95628412Y-45748443D01*
X95426243Y-45682754D01*
X95426241Y-45682753D01*
X95426240Y-45682753D01*
X95264957Y-45657208D01*
X95216287Y-45649500D01*
X95003713Y-45649500D01*
X94955042Y-45657208D01*
X94793760Y-45682753D01*
X94591585Y-45748444D01*
X94402179Y-45844951D01*
X94230213Y-45969890D01*
X94079890Y-46120213D01*
X93954951Y-46292179D01*
X93858444Y-46481585D01*
X93792753Y-46683760D01*
X93791291Y-46692993D01*
X93759500Y-46893713D01*
X77500500Y-46893713D01*
X77500500Y-43637648D01*
X116199500Y-43637648D01*
X116199500Y-43842351D01*
X116231522Y-44044534D01*
X116294781Y-44239223D01*
X116337248Y-44322567D01*
X116387585Y-44421359D01*
X116387715Y-44421613D01*
X116508028Y-44587213D01*
X116652786Y-44731971D01*
X116773226Y-44819474D01*
X116818390Y-44852287D01*
X116934607Y-44911503D01*
X117000776Y-44945218D01*
X117000778Y-44945218D01*
X117000781Y-44945220D01*
X117105137Y-44979127D01*
X117195465Y-45008477D01*
X117296557Y-45024488D01*
X117397648Y-45040500D01*
X117397649Y-45040500D01*
X117602351Y-45040500D01*
X117602352Y-45040500D01*
X117804534Y-45008477D01*
X117999219Y-44945220D01*
X118181610Y-44852287D01*
X118274590Y-44784732D01*
X118347213Y-44731971D01*
X118347215Y-44731968D01*
X118347219Y-44731966D01*
X118491966Y-44587219D01*
X118491968Y-44587215D01*
X118491971Y-44587213D01*
X118612286Y-44421611D01*
X118612415Y-44421359D01*
X118639795Y-44367621D01*
X118687769Y-44316826D01*
X118755589Y-44300030D01*
X118821725Y-44322567D01*
X118860765Y-44367621D01*
X118888141Y-44421350D01*
X118888147Y-44421359D01*
X118920523Y-44465921D01*
X118920524Y-44465922D01*
X119600000Y-43786446D01*
X119600000Y-43792661D01*
X119627259Y-43894394D01*
X119679920Y-43985606D01*
X119754394Y-44060080D01*
X119845606Y-44112741D01*
X119947339Y-44140000D01*
X119953553Y-44140000D01*
X119274076Y-44819474D01*
X119318650Y-44851859D01*
X119500968Y-44944755D01*
X119695582Y-45007990D01*
X119897683Y-45040000D01*
X120102317Y-45040000D01*
X120304417Y-45007990D01*
X120499031Y-44944755D01*
X120681349Y-44851859D01*
X120725921Y-44819474D01*
X120046447Y-44140000D01*
X120052661Y-44140000D01*
X120154394Y-44112741D01*
X120245606Y-44060080D01*
X120320080Y-43985606D01*
X120372741Y-43894394D01*
X120400000Y-43792661D01*
X120400000Y-43786447D01*
X121079474Y-44465921D01*
X121111859Y-44421349D01*
X121204755Y-44239031D01*
X121267990Y-44044417D01*
X121300000Y-43842317D01*
X121300000Y-43637682D01*
X121267990Y-43435582D01*
X121204755Y-43240968D01*
X121111859Y-43058650D01*
X121079474Y-43014077D01*
X121079474Y-43014076D01*
X120400000Y-43693551D01*
X120400000Y-43687339D01*
X120372741Y-43585606D01*
X120320080Y-43494394D01*
X120245606Y-43419920D01*
X120154394Y-43367259D01*
X120052661Y-43340000D01*
X120046446Y-43340000D01*
X120725922Y-42660524D01*
X120725921Y-42660523D01*
X120681359Y-42628147D01*
X120681350Y-42628141D01*
X120499031Y-42535244D01*
X120304417Y-42472009D01*
X120102317Y-42440000D01*
X119897683Y-42440000D01*
X119695582Y-42472009D01*
X119500968Y-42535244D01*
X119318644Y-42628143D01*
X119274077Y-42660523D01*
X119274077Y-42660524D01*
X119953554Y-43340000D01*
X119947339Y-43340000D01*
X119845606Y-43367259D01*
X119754394Y-43419920D01*
X119679920Y-43494394D01*
X119627259Y-43585606D01*
X119600000Y-43687339D01*
X119600000Y-43693553D01*
X118920524Y-43014077D01*
X118920523Y-43014077D01*
X118888143Y-43058644D01*
X118860765Y-43112378D01*
X118812790Y-43163174D01*
X118744969Y-43179969D01*
X118678834Y-43157431D01*
X118639795Y-43112378D01*
X118612284Y-43058385D01*
X118491971Y-42892786D01*
X118347213Y-42748028D01*
X118181613Y-42627715D01*
X118181612Y-42627714D01*
X118181610Y-42627713D01*
X118124653Y-42598691D01*
X117999223Y-42534781D01*
X117804534Y-42471522D01*
X117629995Y-42443878D01*
X117602352Y-42439500D01*
X117397648Y-42439500D01*
X117373329Y-42443351D01*
X117195465Y-42471522D01*
X117000776Y-42534781D01*
X116818386Y-42627715D01*
X116652786Y-42748028D01*
X116508028Y-42892786D01*
X116387715Y-43058386D01*
X116294781Y-43240776D01*
X116231522Y-43435465D01*
X116199500Y-43637648D01*
X77500500Y-43637648D01*
X77500500Y-42124000D01*
X77520185Y-42056961D01*
X77572989Y-42011206D01*
X77624500Y-42000000D01*
X89000000Y-42000000D01*
X89000000Y-32307135D01*
X130810998Y-32307135D01*
X130810998Y-34102870D01*
X130810999Y-34102876D01*
X130817406Y-34162483D01*
X130867700Y-34297328D01*
X130867704Y-34297335D01*
X130953950Y-34412544D01*
X130953953Y-34412547D01*
X131069162Y-34498793D01*
X131069169Y-34498797D01*
X131200580Y-34547810D01*
X131256514Y-34589681D01*
X131280931Y-34655145D01*
X131266080Y-34723418D01*
X131244929Y-34751673D01*
X131131387Y-34865215D01*
X131006449Y-35037179D01*
X130909942Y-35226585D01*
X130844251Y-35428760D01*
X130810998Y-35638713D01*
X130810998Y-35851286D01*
X130844251Y-36061239D01*
X130909942Y-36263414D01*
X131006449Y-36452820D01*
X131131388Y-36624786D01*
X131281711Y-36775109D01*
X131453680Y-36900050D01*
X131462444Y-36904516D01*
X131513240Y-36952491D01*
X131530034Y-37020312D01*
X131507496Y-37086447D01*
X131462444Y-37125484D01*
X131453680Y-37129949D01*
X131281711Y-37254890D01*
X131131388Y-37405213D01*
X131006449Y-37577179D01*
X130909942Y-37766585D01*
X130844251Y-37968760D01*
X130810998Y-38178713D01*
X130810998Y-38391286D01*
X130844251Y-38601239D01*
X130909942Y-38803414D01*
X131006449Y-38992820D01*
X131131388Y-39164786D01*
X131281711Y-39315109D01*
X131453680Y-39440050D01*
X131462444Y-39444516D01*
X131513240Y-39492491D01*
X131530034Y-39560312D01*
X131507496Y-39626447D01*
X131462444Y-39665484D01*
X131453680Y-39669949D01*
X131281711Y-39794890D01*
X131131388Y-39945213D01*
X131006449Y-40117179D01*
X130909942Y-40306585D01*
X130844251Y-40508760D01*
X130810998Y-40718713D01*
X130810998Y-40931286D01*
X130844251Y-41141239D01*
X130909942Y-41343414D01*
X131006449Y-41532820D01*
X131131388Y-41704786D01*
X131281711Y-41855109D01*
X131453677Y-41980048D01*
X131453679Y-41980049D01*
X131453682Y-41980051D01*
X131643086Y-42076557D01*
X131845255Y-42142246D01*
X132055211Y-42175500D01*
X132055212Y-42175500D01*
X132267784Y-42175500D01*
X132267785Y-42175500D01*
X132477741Y-42142246D01*
X132679910Y-42076557D01*
X132869314Y-41980051D01*
X132891287Y-41964086D01*
X133041284Y-41855109D01*
X133041286Y-41855106D01*
X133041290Y-41855104D01*
X133191602Y-41704792D01*
X133191604Y-41704788D01*
X133191607Y-41704786D01*
X133316546Y-41532820D01*
X133316545Y-41532820D01*
X133316549Y-41532816D01*
X133413055Y-41343412D01*
X133478744Y-41141243D01*
X133511998Y-40931287D01*
X133511998Y-40718713D01*
X133478744Y-40508757D01*
X133413055Y-40306588D01*
X133316549Y-40117184D01*
X133316547Y-40117181D01*
X133316546Y-40117179D01*
X133191607Y-39945213D01*
X133041284Y-39794890D01*
X132869318Y-39669951D01*
X132868613Y-39669591D01*
X132860552Y-39665485D01*
X132809757Y-39617512D01*
X132792961Y-39549692D01*
X132815497Y-39483556D01*
X132860552Y-39444515D01*
X132869314Y-39440051D01*
X132891287Y-39424086D01*
X133041284Y-39315109D01*
X133041286Y-39315106D01*
X133041290Y-39315104D01*
X133191602Y-39164792D01*
X133191604Y-39164788D01*
X133191607Y-39164786D01*
X133316546Y-38992820D01*
X133316545Y-38992820D01*
X133316549Y-38992816D01*
X133413055Y-38803412D01*
X133478744Y-38601243D01*
X133511998Y-38391287D01*
X133511998Y-38178713D01*
X133478744Y-37968757D01*
X133413055Y-37766588D01*
X133316549Y-37577184D01*
X133316547Y-37577181D01*
X133316546Y-37577179D01*
X133191607Y-37405213D01*
X133041284Y-37254890D01*
X132869318Y-37129951D01*
X132868613Y-37129591D01*
X132860552Y-37125485D01*
X132809757Y-37077512D01*
X132792961Y-37009692D01*
X132815497Y-36943556D01*
X132860552Y-36904515D01*
X132869314Y-36900051D01*
X132891287Y-36884086D01*
X133041284Y-36775109D01*
X133041286Y-36775106D01*
X133041290Y-36775104D01*
X133191602Y-36624792D01*
X133191604Y-36624788D01*
X133191607Y-36624786D01*
X133316546Y-36452820D01*
X133316545Y-36452820D01*
X133316549Y-36452816D01*
X133413055Y-36263412D01*
X133478744Y-36061243D01*
X133511998Y-35851287D01*
X133511998Y-35638713D01*
X133478744Y-35428757D01*
X133413055Y-35226588D01*
X133316549Y-35037184D01*
X133316547Y-35037181D01*
X133316546Y-35037179D01*
X133191607Y-34865213D01*
X133078067Y-34751673D01*
X133044582Y-34690350D01*
X133049566Y-34620658D01*
X133091438Y-34564725D01*
X133122413Y-34547810D01*
X133253829Y-34498796D01*
X133369044Y-34412546D01*
X133455294Y-34297331D01*
X133505589Y-34162483D01*
X133511998Y-34102873D01*
X133511997Y-32307128D01*
X133505589Y-32247517D01*
X133455294Y-32112669D01*
X133455293Y-32112668D01*
X133455291Y-32112664D01*
X133369045Y-31997455D01*
X133369042Y-31997452D01*
X133253833Y-31911206D01*
X133253826Y-31911202D01*
X133118980Y-31860908D01*
X133118981Y-31860908D01*
X133059381Y-31854501D01*
X133059379Y-31854500D01*
X133059371Y-31854500D01*
X133059362Y-31854500D01*
X131263627Y-31854500D01*
X131263621Y-31854501D01*
X131204014Y-31860908D01*
X131069169Y-31911202D01*
X131069162Y-31911206D01*
X130953953Y-31997452D01*
X130953950Y-31997455D01*
X130867704Y-32112664D01*
X130867700Y-32112671D01*
X130817406Y-32247517D01*
X130810999Y-32307116D01*
X130810999Y-32307123D01*
X130810998Y-32307135D01*
X89000000Y-32307135D01*
X89000000Y-30624500D01*
X89019685Y-30557461D01*
X89072489Y-30511706D01*
X89124000Y-30500500D01*
X142375500Y-30500500D01*
X142442539Y-30520185D01*
G37*
%TD.AperFunction*%
%TD*%
M02*
