%TF.GenerationSoftware,KiCad,Pcbnew,9.0.4*%
%TF.CreationDate,2026-03-08T23:27:07+08:00*%
%TF.ProjectId,Potentiometer+MUX,506f7465-6e74-4696-9f6d-657465722b4d,rev?*%
%TF.SameCoordinates,Original*%
%TF.FileFunction,Copper,L1,Top*%
%TF.FilePolarity,Positive*%
%FSLAX46Y46*%
G04 Gerber Fmt 4.6, Leading zero omitted, Abs format (unit mm)*
G04 Created by KiCad (PCBNEW 9.0.4) date 2026-03-08 23:27:07*
%MOMM*%
%LPD*%
G01*
G04 APERTURE LIST*
%TA.AperFunction,ComponentPad*%
%ADD10R,1.700000X1.700000*%
%TD*%
%TA.AperFunction,ComponentPad*%
%ADD11C,1.700000*%
%TD*%
%TA.AperFunction,ComponentPad*%
%ADD12C,2.340000*%
%TD*%
%TA.AperFunction,ComponentPad*%
%ADD13C,3.600000*%
%TD*%
%TA.AperFunction,ConnectorPad*%
%ADD14C,5.700000*%
%TD*%
%TA.AperFunction,ComponentPad*%
%ADD15C,1.600000*%
%TD*%
%TA.AperFunction,Conductor*%
%ADD16C,0.800000*%
%TD*%
%TA.AperFunction,Conductor*%
%ADD17C,0.500000*%
%TD*%
%TA.AperFunction,Conductor*%
%ADD18C,0.250000*%
%TD*%
%TA.AperFunction,Conductor*%
%ADD19C,0.200000*%
%TD*%
G04 APERTURE END LIST*
D10*
%TO.P,J3,1,Pin_1*%
%TO.N,GND*%
X112890001Y-47000000D03*
D11*
%TO.P,J3,2,Pin_2*%
%TO.N,+3.3V*%
X110350001Y-47000000D03*
%TO.P,J3,3,Pin_3*%
%TO.N,GND*%
X107810002Y-47000000D03*
%TO.P,J3,4,Pin_4*%
%TO.N,Net-(J1-Pin_4)*%
X105270001Y-47000000D03*
%TO.P,J3,5,Pin_5*%
%TO.N,Net-(J1-Pin_3)*%
X102730001Y-47000000D03*
%TO.P,J3,6,Pin_6*%
%TO.N,Net-(J1-Pin_2)*%
X100190001Y-47000000D03*
%TO.P,J3,7,Pin_7*%
%TO.N,unconnected-(J3-Pin_7-Pad7)*%
X97650001Y-47000000D03*
%TO.P,J3,8,Pin_8*%
%TO.N,Net-(J1-Pin_1)*%
X95110000Y-47000000D03*
%TD*%
D10*
%TO.P,J1,1,Pin_1*%
%TO.N,Net-(J1-Pin_1)*%
X132161498Y-33205000D03*
D11*
%TO.P,J1,2,Pin_2*%
%TO.N,Net-(J1-Pin_2)*%
X132161498Y-35745000D03*
%TO.P,J1,3,Pin_3*%
%TO.N,Net-(J1-Pin_3)*%
X132161498Y-38285000D03*
%TO.P,J1,4,Pin_4*%
%TO.N,Net-(J1-Pin_4)*%
X132161498Y-40825000D03*
%TD*%
D12*
%TO.P,RV2,1,1*%
%TO.N,+3.3V*%
X125975430Y-97953503D03*
%TO.P,RV2,2,2*%
%TO.N,Net-(J4-Pin_15)*%
X129510964Y-101489037D03*
%TO.P,RV2,3,3*%
%TO.N,GND*%
X133046498Y-105024571D03*
%TD*%
%TO.P,RV6,1,1*%
%TO.N,+3.3V*%
X96021928Y-127978074D03*
%TO.P,RV6,2,2*%
%TO.N,Net-(J4-Pin_11)*%
X99557462Y-131513608D03*
%TO.P,RV6,3,3*%
%TO.N,GND*%
X103092996Y-135049142D03*
%TD*%
%TO.P,RV4,1,1*%
%TO.N,+3.3V*%
X125975430Y-157953503D03*
%TO.P,RV4,2,2*%
%TO.N,Net-(J4-Pin_13)*%
X129510964Y-161489037D03*
%TO.P,RV4,3,3*%
%TO.N,GND*%
X133046498Y-165024571D03*
%TD*%
D13*
%TO.P,REF\u002A\u002A,1*%
%TO.N,N/C*%
X83000000Y-181000000D03*
D14*
X83000000Y-181000000D03*
%TD*%
D12*
%TO.P,RV5,1,1*%
%TO.N,+3.3V*%
X95975430Y-157953503D03*
%TO.P,RV5,2,2*%
%TO.N,Net-(J4-Pin_12)*%
X99510964Y-161489037D03*
%TO.P,RV5,3,3*%
%TO.N,GND*%
X103046498Y-165024571D03*
%TD*%
D15*
%TO.P,C1,1*%
%TO.N,+3.3V*%
X117500000Y-43740000D03*
%TO.P,C1,2*%
%TO.N,GND*%
X120000000Y-43740000D03*
%TD*%
D12*
%TO.P,RV7,1,1*%
%TO.N,+3.3V*%
X96021928Y-97978074D03*
%TO.P,RV7,2,2*%
%TO.N,Net-(J4-Pin_10)*%
X99557462Y-101513608D03*
%TO.P,RV7,3,3*%
%TO.N,GND*%
X103092996Y-105049142D03*
%TD*%
D10*
%TO.P,J2,1,Pin_1*%
%TO.N,+3.3V*%
X132115000Y-46975000D03*
D11*
%TO.P,J2,2,Pin_2*%
%TO.N,GND*%
X132115000Y-49515000D03*
%TD*%
D13*
%TO.P,REF\u002A\u002A,1*%
%TO.N,N/C*%
X83000000Y-36000000D03*
D14*
X83000000Y-36000000D03*
%TD*%
D12*
%TO.P,RV8,1,1*%
%TO.N,+3.3V*%
X96021928Y-67978074D03*
%TO.P,RV8,2,2*%
%TO.N,Net-(J4-Pin_9)*%
X99557462Y-71513608D03*
%TO.P,RV8,3,3*%
%TO.N,GND*%
X103092996Y-75049142D03*
%TD*%
%TO.P,RV3,1,1*%
%TO.N,+3.3V*%
X125975430Y-127953503D03*
%TO.P,RV3,2,2*%
%TO.N,Net-(J4-Pin_14)*%
X129510964Y-131489037D03*
%TO.P,RV3,3,3*%
%TO.N,GND*%
X133046498Y-135024571D03*
%TD*%
D10*
%TO.P,J4,1,Pin_1*%
%TO.N,unconnected-(J4-Pin_1-Pad1)*%
X84950000Y-62215000D03*
D11*
%TO.P,J4,2,Pin_2*%
%TO.N,unconnected-(J4-Pin_2-Pad2)*%
X87490000Y-62215000D03*
%TO.P,J4,3,Pin_3*%
%TO.N,unconnected-(J4-Pin_3-Pad3)*%
X90029999Y-62215000D03*
%TO.P,J4,4,Pin_4*%
%TO.N,unconnected-(J4-Pin_4-Pad4)*%
X92570000Y-62215000D03*
%TO.P,J4,5,Pin_5*%
%TO.N,unconnected-(J4-Pin_5-Pad5)*%
X95110000Y-62215000D03*
%TO.P,J4,6,Pin_6*%
%TO.N,unconnected-(J4-Pin_6-Pad6)*%
X97650000Y-62215000D03*
%TO.P,J4,7,Pin_7*%
%TO.N,unconnected-(J4-Pin_7-Pad7)*%
X100190000Y-62215000D03*
%TO.P,J4,8,Pin_8*%
%TO.N,unconnected-(J4-Pin_8-Pad8)*%
X102730001Y-62215000D03*
%TO.P,J4,9,Pin_9*%
%TO.N,Net-(J4-Pin_9)*%
X105270000Y-62215000D03*
%TO.P,J4,10,Pin_10*%
%TO.N,Net-(J4-Pin_10)*%
X107810000Y-62215000D03*
%TO.P,J4,11,Pin_11*%
%TO.N,Net-(J4-Pin_11)*%
X110350000Y-62215000D03*
%TO.P,J4,12,Pin_12*%
%TO.N,Net-(J4-Pin_12)*%
X112889999Y-62215000D03*
%TO.P,J4,13,Pin_13*%
%TO.N,Net-(J4-Pin_13)*%
X115430000Y-62215000D03*
%TO.P,J4,14,Pin_14*%
%TO.N,Net-(J4-Pin_14)*%
X117970000Y-62215000D03*
%TO.P,J4,15,Pin_15*%
%TO.N,Net-(J4-Pin_15)*%
X120510000Y-62215000D03*
%TO.P,J4,16,Pin_16*%
%TO.N,Net-(J4-Pin_16)*%
X123049999Y-62215000D03*
%TD*%
D13*
%TO.P,REF\u002A\u002A,1*%
%TO.N,N/C*%
X137000000Y-181000000D03*
D14*
X137000000Y-181000000D03*
%TD*%
D12*
%TO.P,RV1,1,1*%
%TO.N,+3.3V*%
X126021928Y-67978074D03*
%TO.P,RV1,2,2*%
%TO.N,Net-(J4-Pin_16)*%
X129557462Y-71513608D03*
%TO.P,RV1,3,3*%
%TO.N,GND*%
X133092996Y-75049142D03*
%TD*%
D16*
%TO.N,+3.3V*%
X125975430Y-157953503D02*
X126271497Y-157953503D01*
X120720000Y-46960000D02*
X120735000Y-46975000D01*
X136500000Y-87500000D02*
X136500000Y-117500000D01*
X117500000Y-43740000D02*
X112407920Y-43740000D01*
X83449000Y-115000000D02*
X83449000Y-145427073D01*
D17*
X126021928Y-70341224D02*
X128865312Y-73184608D01*
D16*
X120720000Y-46960000D02*
X114180000Y-53500000D01*
D17*
X125975430Y-127953503D02*
X136428933Y-117500000D01*
D16*
X83449000Y-60714000D02*
X90663000Y-53500000D01*
X120735000Y-46975000D02*
X132115000Y-46975000D01*
D17*
X96010964Y-127989037D02*
X83449000Y-115427073D01*
D16*
X90663000Y-53500000D02*
X114180000Y-53500000D01*
X120720000Y-46960000D02*
X117500000Y-43740000D01*
X83449000Y-145427073D02*
X95975430Y-157953503D01*
X83449000Y-85500000D02*
X83449000Y-86000000D01*
D17*
X96021928Y-97978074D02*
X83543854Y-85500000D01*
X125975430Y-97953503D02*
X136428933Y-87500000D01*
D16*
X136500000Y-117500000D02*
X136500000Y-147428933D01*
D17*
X83543854Y-85500000D02*
X83449000Y-85500000D01*
D16*
X136500000Y-70500000D02*
X136500000Y-51360000D01*
D17*
X128865312Y-73184608D02*
X133815392Y-73184608D01*
D16*
X83449000Y-63500000D02*
X83449000Y-60714000D01*
X110350001Y-45797919D02*
X110350001Y-47000000D01*
D17*
X133815392Y-73184608D02*
X136500000Y-70500000D01*
D16*
X136500000Y-70500000D02*
X136500000Y-87500000D01*
X136500000Y-51360000D02*
X132115000Y-46975000D01*
D17*
X83449000Y-115427073D02*
X83449000Y-115000000D01*
D16*
X112407920Y-43740000D02*
X110350001Y-45797919D01*
D17*
X87927074Y-67978074D02*
X83449000Y-63500000D01*
X136428933Y-87500000D02*
X136500000Y-87500000D01*
X136428933Y-117500000D02*
X136500000Y-117500000D01*
D16*
X83449000Y-86000000D02*
X83449000Y-115000000D01*
X136500000Y-147428933D02*
X125975430Y-157953503D01*
D17*
X96021928Y-67978074D02*
X87927074Y-67978074D01*
D16*
X83449000Y-86000000D02*
X83449000Y-63500000D01*
D17*
X126021928Y-67978074D02*
X126021928Y-70341224D01*
D18*
%TO.N,Net-(J1-Pin_3)*%
X132161498Y-38285000D02*
X111445001Y-38285000D01*
X111445001Y-38285000D02*
X102730001Y-47000000D01*
%TO.N,Net-(J1-Pin_2)*%
X111445001Y-35745000D02*
X100190001Y-47000000D01*
X132161498Y-35745000D02*
X111445001Y-35745000D01*
%TO.N,Net-(J1-Pin_1)*%
X108905000Y-33205000D02*
X95110000Y-47000000D01*
X132161498Y-33205000D02*
X108905000Y-33205000D01*
%TO.N,Net-(J1-Pin_4)*%
X132161498Y-40825000D02*
X111445001Y-40825000D01*
X111445001Y-40825000D02*
X105270001Y-47000000D01*
%TO.N,Net-(J4-Pin_10)*%
X107810000Y-93261070D02*
X99557462Y-101513608D01*
X107810000Y-62215000D02*
X107810000Y-93261070D01*
%TO.N,Net-(J4-Pin_16)*%
X129557462Y-68722463D02*
X129557462Y-71513608D01*
X123049999Y-62215000D02*
X129557462Y-68722463D01*
%TO.N,Net-(J4-Pin_12)*%
X112889999Y-148110001D02*
X112889999Y-62215000D01*
X99510964Y-161489036D02*
X112889999Y-148110001D01*
D19*
X99510964Y-161489036D02*
X99510964Y-161489037D01*
D18*
%TO.N,Net-(J4-Pin_11)*%
X110350000Y-62215000D02*
X110350000Y-120721069D01*
X110350000Y-120721069D02*
X99546498Y-131524571D01*
%TO.N,Net-(J4-Pin_13)*%
X126935681Y-161489037D02*
X129510964Y-161489037D01*
X115430000Y-149983356D02*
X126935681Y-161489037D01*
X115430000Y-62215000D02*
X115430000Y-149983356D01*
%TO.N,Net-(J4-Pin_15)*%
X120510000Y-62215000D02*
X120510000Y-94674448D01*
X129510964Y-101489037D02*
X127324589Y-101489037D01*
X127324589Y-101489037D02*
X120510000Y-94674448D01*
%TO.N,Net-(J4-Pin_9)*%
X105270000Y-65801070D02*
X99557462Y-71513608D01*
X105270000Y-62215000D02*
X105270000Y-65801070D01*
%TO.N,Net-(J4-Pin_14)*%
X127324589Y-131489037D02*
X129510964Y-131489037D01*
X117970000Y-62215000D02*
X117970000Y-122134448D01*
X117970000Y-122134448D02*
X127324589Y-131489037D01*
%TD*%
M02*
