M48
; DRILL file {KiCad 9.0.4} date 2026-03-18T20:26:04+0800
; FORMAT={-:-/ absolute / metric / decimal}
; #@! TF.CreationDate,2026-03-18T20:26:04+08:00
; #@! TF.GenerationSoftware,Kicad,Pcbnew,9.0.4
; #@! TF.FileFunction,Plated,1,2,PTH
FMAT,2
METRIC
; #@! TA.AperFunction,Plated,PTH,ViaDrill
T1C0.300
; #@! TA.AperFunction,Plated,PTH,ViaDrill
T2C0.500
; #@! TA.AperFunction,Plated,PTH,ComponentDrill
T3C0.800
; #@! TA.AperFunction,Plated,PTH,ComponentDrill
T4C0.850
; #@! TA.AperFunction,Plated,PTH,ComponentDrill
T5C0.920
; #@! TA.AperFunction,Plated,PTH,ComponentDrill
T6C1.000
; #@! TA.AperFunction,Plated,PTH,ComponentDrill
T7C1.200
; #@! TA.AperFunction,Plated,PTH,ComponentDrill
T8C1.500
; #@! TA.AperFunction,Plated,PTH,ComponentDrill
T9C2.300
; #@! TA.AperFunction,Plated,PTH,ComponentDrill
T10C3.200
%
G90
G05
T1
X117.348Y-70.866
X120.904Y-67.31
T2
X176.53Y-67.31
T3
X135.128Y-84.622
X135.128Y-87.122
X138.176Y-86.654
X138.176Y-89.154
X164.24Y-29.94
X164.24Y-32.44
X170.74Y-29.94
X170.74Y-33.44
T4
X184.548Y-39.674
X184.548Y-43.874
X184.548Y-48.074
X184.548Y-52.274
T5
X119.944Y-37.994
X122.444Y-37.994
X124.444Y-37.994
X126.944Y-37.994
T6
X101.063Y-40.513
X101.063Y-43.053
X101.063Y-45.593
X101.063Y-48.133
X101.063Y-50.673
X101.063Y-53.213
X101.063Y-55.753
X101.063Y-58.293
X101.063Y-60.833
X101.063Y-63.373
X101.063Y-65.913
X101.063Y-68.453
X101.063Y-70.993
X101.063Y-73.533
X109.0Y-101.0
X109.0Y-106.0
X123.5Y-101.0
X123.5Y-103.5
X123.5Y-106.0
X137.385Y-52.735
X137.385Y-55.275
X141.5Y-27.36
X141.5Y-29.9
X141.5Y-32.44
X141.5Y-34.98
X141.5Y-37.52
X141.5Y-40.06
X141.5Y-42.6
X141.5Y-45.14
X141.5Y-47.68
X141.5Y-50.22
X141.5Y-52.76
X141.5Y-55.3
X141.5Y-57.84
X141.5Y-60.38
X141.5Y-62.92
X141.5Y-65.46
X141.5Y-68.0
X141.5Y-70.54
X141.5Y-73.08
X141.5Y-75.62
X141.5Y-78.16
X141.5Y-80.7
X141.5Y-83.24
X141.5Y-85.78
X144.339Y-93.472
X144.339Y-96.012
X144.339Y-98.552
X144.339Y-101.092
X144.339Y-103.632
X144.339Y-106.172
X144.49Y-33.7
X144.49Y-36.24
X144.49Y-38.78
X144.49Y-41.32
X144.49Y-43.86
X156.74Y-27.36
X156.74Y-29.9
X156.74Y-32.44
X156.74Y-34.98
X156.74Y-37.52
X156.74Y-40.06
X156.74Y-42.6
X156.74Y-45.14
X156.74Y-47.68
X156.74Y-50.22
X156.74Y-52.76
X156.74Y-55.3
X156.74Y-57.84
X156.74Y-60.38
X156.74Y-62.92
X156.74Y-65.46
X156.74Y-68.0
X156.74Y-70.54
X156.74Y-73.08
X156.74Y-75.62
X156.74Y-78.16
X156.74Y-80.7
X156.74Y-83.24
X156.74Y-85.78
X160.365Y-49.975
X160.365Y-52.515
X179.807Y-53.213
X179.807Y-55.753
X179.807Y-58.293
X179.807Y-60.833
X194.49Y-60.1
X194.49Y-62.64
T7
X171.45Y-40.894
X173.99Y-40.894
X176.53Y-40.894
T8
X164.846Y-101.092
X164.846Y-120.142
X171.196Y-103.632
X171.196Y-122.682
X183.896Y-101.092
X183.896Y-120.142
X190.246Y-103.632
X190.246Y-122.682
T9
X116.874Y-35.284
X130.014Y-35.284
T10
X89.0Y-31.5
X89.0Y-134.5
X195.0Y-31.5
X195.0Y-134.5
T8
G00X116.65Y-97.9
M15
G01X115.35Y-97.9
M16
G05
G00X116.65Y-109.1
M15
G01X115.35Y-109.1
M16
G05
M30
