%TF.GenerationSoftware,KiCad,Pcbnew,9.0.4*%
%TF.CreationDate,2026-03-18T20:26:03+08:00*%
%TF.ProjectId,Compact Keyboard,436f6d70-6163-4742-904b-6579626f6172,rev?*%
%TF.SameCoordinates,Original*%
%TF.FileFunction,Legend,Top*%
%TF.FilePolarity,Positive*%
%FSLAX46Y46*%
G04 Gerber Fmt 4.6, Leading zero omitted, Abs format (unit mm)*
G04 Created by KiCad (PCBNEW 9.0.4) date 2026-03-18 20:26:03*
%MOMM*%
%LPD*%
G01*
G04 APERTURE LIST*
%ADD10C,0.100000*%
%ADD11C,0.150000*%
%ADD12C,0.120000*%
G04 APERTURE END LIST*
D10*
X136098646Y-49164419D02*
X136717693Y-49164419D01*
X136717693Y-49164419D02*
X136384360Y-49545371D01*
X136384360Y-49545371D02*
X136527217Y-49545371D01*
X136527217Y-49545371D02*
X136622455Y-49592990D01*
X136622455Y-49592990D02*
X136670074Y-49640609D01*
X136670074Y-49640609D02*
X136717693Y-49735847D01*
X136717693Y-49735847D02*
X136717693Y-49973942D01*
X136717693Y-49973942D02*
X136670074Y-50069180D01*
X136670074Y-50069180D02*
X136622455Y-50116800D01*
X136622455Y-50116800D02*
X136527217Y-50164419D01*
X136527217Y-50164419D02*
X136241503Y-50164419D01*
X136241503Y-50164419D02*
X136146265Y-50116800D01*
X136146265Y-50116800D02*
X136098646Y-50069180D01*
X137146265Y-50069180D02*
X137193884Y-50116800D01*
X137193884Y-50116800D02*
X137146265Y-50164419D01*
X137146265Y-50164419D02*
X137098646Y-50116800D01*
X137098646Y-50116800D02*
X137146265Y-50069180D01*
X137146265Y-50069180D02*
X137146265Y-50164419D01*
X137527217Y-49164419D02*
X138146264Y-49164419D01*
X138146264Y-49164419D02*
X137812931Y-49545371D01*
X137812931Y-49545371D02*
X137955788Y-49545371D01*
X137955788Y-49545371D02*
X138051026Y-49592990D01*
X138051026Y-49592990D02*
X138098645Y-49640609D01*
X138098645Y-49640609D02*
X138146264Y-49735847D01*
X138146264Y-49735847D02*
X138146264Y-49973942D01*
X138146264Y-49973942D02*
X138098645Y-50069180D01*
X138098645Y-50069180D02*
X138051026Y-50116800D01*
X138051026Y-50116800D02*
X137955788Y-50164419D01*
X137955788Y-50164419D02*
X137670074Y-50164419D01*
X137670074Y-50164419D02*
X137574836Y-50116800D01*
X137574836Y-50116800D02*
X137527217Y-50069180D01*
X138431979Y-49164419D02*
X138765312Y-50164419D01*
X138765312Y-50164419D02*
X139098645Y-49164419D01*
D11*
X146085160Y-103962200D02*
X146228017Y-104009819D01*
X146228017Y-104009819D02*
X146466112Y-104009819D01*
X146466112Y-104009819D02*
X146561350Y-103962200D01*
X146561350Y-103962200D02*
X146608969Y-103914580D01*
X146608969Y-103914580D02*
X146656588Y-103819342D01*
X146656588Y-103819342D02*
X146656588Y-103724104D01*
X146656588Y-103724104D02*
X146608969Y-103628866D01*
X146608969Y-103628866D02*
X146561350Y-103581247D01*
X146561350Y-103581247D02*
X146466112Y-103533628D01*
X146466112Y-103533628D02*
X146275636Y-103486009D01*
X146275636Y-103486009D02*
X146180398Y-103438390D01*
X146180398Y-103438390D02*
X146132779Y-103390771D01*
X146132779Y-103390771D02*
X146085160Y-103295533D01*
X146085160Y-103295533D02*
X146085160Y-103200295D01*
X146085160Y-103200295D02*
X146132779Y-103105057D01*
X146132779Y-103105057D02*
X146180398Y-103057438D01*
X146180398Y-103057438D02*
X146275636Y-103009819D01*
X146275636Y-103009819D02*
X146513731Y-103009819D01*
X146513731Y-103009819D02*
X146656588Y-103057438D01*
X147275636Y-103009819D02*
X147370874Y-103009819D01*
X147370874Y-103009819D02*
X147466112Y-103057438D01*
X147466112Y-103057438D02*
X147513731Y-103105057D01*
X147513731Y-103105057D02*
X147561350Y-103200295D01*
X147561350Y-103200295D02*
X147608969Y-103390771D01*
X147608969Y-103390771D02*
X147608969Y-103628866D01*
X147608969Y-103628866D02*
X147561350Y-103819342D01*
X147561350Y-103819342D02*
X147513731Y-103914580D01*
X147513731Y-103914580D02*
X147466112Y-103962200D01*
X147466112Y-103962200D02*
X147370874Y-104009819D01*
X147370874Y-104009819D02*
X147275636Y-104009819D01*
X147275636Y-104009819D02*
X147180398Y-103962200D01*
X147180398Y-103962200D02*
X147132779Y-103914580D01*
X147132779Y-103914580D02*
X147085160Y-103819342D01*
X147085160Y-103819342D02*
X147037541Y-103628866D01*
X147037541Y-103628866D02*
X147037541Y-103390771D01*
X147037541Y-103390771D02*
X147085160Y-103200295D01*
X147085160Y-103200295D02*
X147132779Y-103105057D01*
X147132779Y-103105057D02*
X147180398Y-103057438D01*
X147180398Y-103057438D02*
X147275636Y-103009819D01*
X146085160Y-98882200D02*
X146228017Y-98929819D01*
X146228017Y-98929819D02*
X146466112Y-98929819D01*
X146466112Y-98929819D02*
X146561350Y-98882200D01*
X146561350Y-98882200D02*
X146608969Y-98834580D01*
X146608969Y-98834580D02*
X146656588Y-98739342D01*
X146656588Y-98739342D02*
X146656588Y-98644104D01*
X146656588Y-98644104D02*
X146608969Y-98548866D01*
X146608969Y-98548866D02*
X146561350Y-98501247D01*
X146561350Y-98501247D02*
X146466112Y-98453628D01*
X146466112Y-98453628D02*
X146275636Y-98406009D01*
X146275636Y-98406009D02*
X146180398Y-98358390D01*
X146180398Y-98358390D02*
X146132779Y-98310771D01*
X146132779Y-98310771D02*
X146085160Y-98215533D01*
X146085160Y-98215533D02*
X146085160Y-98120295D01*
X146085160Y-98120295D02*
X146132779Y-98025057D01*
X146132779Y-98025057D02*
X146180398Y-97977438D01*
X146180398Y-97977438D02*
X146275636Y-97929819D01*
X146275636Y-97929819D02*
X146513731Y-97929819D01*
X146513731Y-97929819D02*
X146656588Y-97977438D01*
X147037541Y-98025057D02*
X147085160Y-97977438D01*
X147085160Y-97977438D02*
X147180398Y-97929819D01*
X147180398Y-97929819D02*
X147418493Y-97929819D01*
X147418493Y-97929819D02*
X147513731Y-97977438D01*
X147513731Y-97977438D02*
X147561350Y-98025057D01*
X147561350Y-98025057D02*
X147608969Y-98120295D01*
X147608969Y-98120295D02*
X147608969Y-98215533D01*
X147608969Y-98215533D02*
X147561350Y-98358390D01*
X147561350Y-98358390D02*
X146989922Y-98929819D01*
X146989922Y-98929819D02*
X147608969Y-98929819D01*
D10*
X159561884Y-55625466D02*
X160323789Y-55625466D01*
X159942836Y-56006419D02*
X159942836Y-55244514D01*
X161276169Y-55006419D02*
X160799979Y-55006419D01*
X160799979Y-55006419D02*
X160752360Y-55482609D01*
X160752360Y-55482609D02*
X160799979Y-55434990D01*
X160799979Y-55434990D02*
X160895217Y-55387371D01*
X160895217Y-55387371D02*
X161133312Y-55387371D01*
X161133312Y-55387371D02*
X161228550Y-55434990D01*
X161228550Y-55434990D02*
X161276169Y-55482609D01*
X161276169Y-55482609D02*
X161323788Y-55577847D01*
X161323788Y-55577847D02*
X161323788Y-55815942D01*
X161323788Y-55815942D02*
X161276169Y-55911180D01*
X161276169Y-55911180D02*
X161228550Y-55958800D01*
X161228550Y-55958800D02*
X161133312Y-56006419D01*
X161133312Y-56006419D02*
X160895217Y-56006419D01*
X160895217Y-56006419D02*
X160799979Y-55958800D01*
X160799979Y-55958800D02*
X160752360Y-55911180D01*
X161609503Y-55006419D02*
X161942836Y-56006419D01*
X161942836Y-56006419D02*
X162276169Y-55006419D01*
D11*
X146085160Y-101422200D02*
X146228017Y-101469819D01*
X146228017Y-101469819D02*
X146466112Y-101469819D01*
X146466112Y-101469819D02*
X146561350Y-101422200D01*
X146561350Y-101422200D02*
X146608969Y-101374580D01*
X146608969Y-101374580D02*
X146656588Y-101279342D01*
X146656588Y-101279342D02*
X146656588Y-101184104D01*
X146656588Y-101184104D02*
X146608969Y-101088866D01*
X146608969Y-101088866D02*
X146561350Y-101041247D01*
X146561350Y-101041247D02*
X146466112Y-100993628D01*
X146466112Y-100993628D02*
X146275636Y-100946009D01*
X146275636Y-100946009D02*
X146180398Y-100898390D01*
X146180398Y-100898390D02*
X146132779Y-100850771D01*
X146132779Y-100850771D02*
X146085160Y-100755533D01*
X146085160Y-100755533D02*
X146085160Y-100660295D01*
X146085160Y-100660295D02*
X146132779Y-100565057D01*
X146132779Y-100565057D02*
X146180398Y-100517438D01*
X146180398Y-100517438D02*
X146275636Y-100469819D01*
X146275636Y-100469819D02*
X146513731Y-100469819D01*
X146513731Y-100469819D02*
X146656588Y-100517438D01*
X147608969Y-101469819D02*
X147037541Y-101469819D01*
X147323255Y-101469819D02*
X147323255Y-100469819D01*
X147323255Y-100469819D02*
X147228017Y-100612676D01*
X147228017Y-100612676D02*
X147132779Y-100707914D01*
X147132779Y-100707914D02*
X147037541Y-100755533D01*
X146085160Y-96342200D02*
X146228017Y-96389819D01*
X146228017Y-96389819D02*
X146466112Y-96389819D01*
X146466112Y-96389819D02*
X146561350Y-96342200D01*
X146561350Y-96342200D02*
X146608969Y-96294580D01*
X146608969Y-96294580D02*
X146656588Y-96199342D01*
X146656588Y-96199342D02*
X146656588Y-96104104D01*
X146656588Y-96104104D02*
X146608969Y-96008866D01*
X146608969Y-96008866D02*
X146561350Y-95961247D01*
X146561350Y-95961247D02*
X146466112Y-95913628D01*
X146466112Y-95913628D02*
X146275636Y-95866009D01*
X146275636Y-95866009D02*
X146180398Y-95818390D01*
X146180398Y-95818390D02*
X146132779Y-95770771D01*
X146132779Y-95770771D02*
X146085160Y-95675533D01*
X146085160Y-95675533D02*
X146085160Y-95580295D01*
X146085160Y-95580295D02*
X146132779Y-95485057D01*
X146132779Y-95485057D02*
X146180398Y-95437438D01*
X146180398Y-95437438D02*
X146275636Y-95389819D01*
X146275636Y-95389819D02*
X146513731Y-95389819D01*
X146513731Y-95389819D02*
X146656588Y-95437438D01*
X147085160Y-96389819D02*
X147085160Y-95389819D01*
X148085159Y-95437438D02*
X147989921Y-95389819D01*
X147989921Y-95389819D02*
X147847064Y-95389819D01*
X147847064Y-95389819D02*
X147704207Y-95437438D01*
X147704207Y-95437438D02*
X147608969Y-95532676D01*
X147608969Y-95532676D02*
X147561350Y-95627914D01*
X147561350Y-95627914D02*
X147513731Y-95818390D01*
X147513731Y-95818390D02*
X147513731Y-95961247D01*
X147513731Y-95961247D02*
X147561350Y-96151723D01*
X147561350Y-96151723D02*
X147608969Y-96246961D01*
X147608969Y-96246961D02*
X147704207Y-96342200D01*
X147704207Y-96342200D02*
X147847064Y-96389819D01*
X147847064Y-96389819D02*
X147942302Y-96389819D01*
X147942302Y-96389819D02*
X148085159Y-96342200D01*
X148085159Y-96342200D02*
X148132778Y-96294580D01*
X148132778Y-96294580D02*
X148132778Y-95961247D01*
X148132778Y-95961247D02*
X147942302Y-95961247D01*
X123110666Y-39708819D02*
X123110666Y-40423104D01*
X123110666Y-40423104D02*
X123063047Y-40565961D01*
X123063047Y-40565961D02*
X122967809Y-40661200D01*
X122967809Y-40661200D02*
X122824952Y-40708819D01*
X122824952Y-40708819D02*
X122729714Y-40708819D01*
X124015428Y-39708819D02*
X123824952Y-39708819D01*
X123824952Y-39708819D02*
X123729714Y-39756438D01*
X123729714Y-39756438D02*
X123682095Y-39804057D01*
X123682095Y-39804057D02*
X123586857Y-39946914D01*
X123586857Y-39946914D02*
X123539238Y-40137390D01*
X123539238Y-40137390D02*
X123539238Y-40518342D01*
X123539238Y-40518342D02*
X123586857Y-40613580D01*
X123586857Y-40613580D02*
X123634476Y-40661200D01*
X123634476Y-40661200D02*
X123729714Y-40708819D01*
X123729714Y-40708819D02*
X123920190Y-40708819D01*
X123920190Y-40708819D02*
X124015428Y-40661200D01*
X124015428Y-40661200D02*
X124063047Y-40613580D01*
X124063047Y-40613580D02*
X124110666Y-40518342D01*
X124110666Y-40518342D02*
X124110666Y-40280247D01*
X124110666Y-40280247D02*
X124063047Y-40185009D01*
X124063047Y-40185009D02*
X124015428Y-40137390D01*
X124015428Y-40137390D02*
X123920190Y-40089771D01*
X123920190Y-40089771D02*
X123729714Y-40089771D01*
X123729714Y-40089771D02*
X123634476Y-40137390D01*
X123634476Y-40137390D02*
X123586857Y-40185009D01*
X123586857Y-40185009D02*
X123539238Y-40280247D01*
X146376819Y-83923238D02*
X146376819Y-84494666D01*
X146376819Y-84208952D02*
X145376819Y-84208952D01*
X145376819Y-84208952D02*
X145519676Y-84304190D01*
X145519676Y-84304190D02*
X145614914Y-84399428D01*
X145614914Y-84399428D02*
X145662533Y-84494666D01*
X145376819Y-83304190D02*
X145376819Y-83208952D01*
X145376819Y-83208952D02*
X145424438Y-83113714D01*
X145424438Y-83113714D02*
X145472057Y-83066095D01*
X145472057Y-83066095D02*
X145567295Y-83018476D01*
X145567295Y-83018476D02*
X145757771Y-82970857D01*
X145757771Y-82970857D02*
X145995866Y-82970857D01*
X145995866Y-82970857D02*
X146186342Y-83018476D01*
X146186342Y-83018476D02*
X146281580Y-83066095D01*
X146281580Y-83066095D02*
X146329200Y-83113714D01*
X146329200Y-83113714D02*
X146376819Y-83208952D01*
X146376819Y-83208952D02*
X146376819Y-83304190D01*
X146376819Y-83304190D02*
X146329200Y-83399428D01*
X146329200Y-83399428D02*
X146281580Y-83447047D01*
X146281580Y-83447047D02*
X146186342Y-83494666D01*
X146186342Y-83494666D02*
X145995866Y-83542285D01*
X145995866Y-83542285D02*
X145757771Y-83542285D01*
X145757771Y-83542285D02*
X145567295Y-83494666D01*
X145567295Y-83494666D02*
X145472057Y-83447047D01*
X145472057Y-83447047D02*
X145424438Y-83399428D01*
X145424438Y-83399428D02*
X145376819Y-83304190D01*
X146376819Y-82542285D02*
X145376819Y-82542285D01*
X145995866Y-82447047D02*
X146376819Y-82161333D01*
X145710152Y-82161333D02*
X146091104Y-82542285D01*
X138009333Y-84687580D02*
X137961714Y-84735200D01*
X137961714Y-84735200D02*
X137818857Y-84782819D01*
X137818857Y-84782819D02*
X137723619Y-84782819D01*
X137723619Y-84782819D02*
X137580762Y-84735200D01*
X137580762Y-84735200D02*
X137485524Y-84639961D01*
X137485524Y-84639961D02*
X137437905Y-84544723D01*
X137437905Y-84544723D02*
X137390286Y-84354247D01*
X137390286Y-84354247D02*
X137390286Y-84211390D01*
X137390286Y-84211390D02*
X137437905Y-84020914D01*
X137437905Y-84020914D02*
X137485524Y-83925676D01*
X137485524Y-83925676D02*
X137580762Y-83830438D01*
X137580762Y-83830438D02*
X137723619Y-83782819D01*
X137723619Y-83782819D02*
X137818857Y-83782819D01*
X137818857Y-83782819D02*
X137961714Y-83830438D01*
X137961714Y-83830438D02*
X138009333Y-83878057D01*
X138342667Y-83782819D02*
X138961714Y-83782819D01*
X138961714Y-83782819D02*
X138628381Y-84163771D01*
X138628381Y-84163771D02*
X138771238Y-84163771D01*
X138771238Y-84163771D02*
X138866476Y-84211390D01*
X138866476Y-84211390D02*
X138914095Y-84259009D01*
X138914095Y-84259009D02*
X138961714Y-84354247D01*
X138961714Y-84354247D02*
X138961714Y-84592342D01*
X138961714Y-84592342D02*
X138914095Y-84687580D01*
X138914095Y-84687580D02*
X138866476Y-84735200D01*
X138866476Y-84735200D02*
X138771238Y-84782819D01*
X138771238Y-84782819D02*
X138485524Y-84782819D01*
X138485524Y-84782819D02*
X138390286Y-84735200D01*
X138390286Y-84735200D02*
X138342667Y-84687580D01*
X164697580Y-35218666D02*
X164745200Y-35266285D01*
X164745200Y-35266285D02*
X164792819Y-35409142D01*
X164792819Y-35409142D02*
X164792819Y-35504380D01*
X164792819Y-35504380D02*
X164745200Y-35647237D01*
X164745200Y-35647237D02*
X164649961Y-35742475D01*
X164649961Y-35742475D02*
X164554723Y-35790094D01*
X164554723Y-35790094D02*
X164364247Y-35837713D01*
X164364247Y-35837713D02*
X164221390Y-35837713D01*
X164221390Y-35837713D02*
X164030914Y-35790094D01*
X164030914Y-35790094D02*
X163935676Y-35742475D01*
X163935676Y-35742475D02*
X163840438Y-35647237D01*
X163840438Y-35647237D02*
X163792819Y-35504380D01*
X163792819Y-35504380D02*
X163792819Y-35409142D01*
X163792819Y-35409142D02*
X163840438Y-35266285D01*
X163840438Y-35266285D02*
X163888057Y-35218666D01*
X163888057Y-34837713D02*
X163840438Y-34790094D01*
X163840438Y-34790094D02*
X163792819Y-34694856D01*
X163792819Y-34694856D02*
X163792819Y-34456761D01*
X163792819Y-34456761D02*
X163840438Y-34361523D01*
X163840438Y-34361523D02*
X163888057Y-34313904D01*
X163888057Y-34313904D02*
X163983295Y-34266285D01*
X163983295Y-34266285D02*
X164078533Y-34266285D01*
X164078533Y-34266285D02*
X164221390Y-34313904D01*
X164221390Y-34313904D02*
X164792819Y-34885332D01*
X164792819Y-34885332D02*
X164792819Y-34266285D01*
X164416666Y-47159819D02*
X164416666Y-47874104D01*
X164416666Y-47874104D02*
X164369047Y-48016961D01*
X164369047Y-48016961D02*
X164273809Y-48112200D01*
X164273809Y-48112200D02*
X164130952Y-48159819D01*
X164130952Y-48159819D02*
X164035714Y-48159819D01*
X165321428Y-47493152D02*
X165321428Y-48159819D01*
X165083333Y-47112200D02*
X164845238Y-47826485D01*
X164845238Y-47826485D02*
X165464285Y-47826485D01*
X133130952Y-67510819D02*
X132559524Y-67510819D01*
X132845238Y-67510819D02*
X132845238Y-66510819D01*
X132845238Y-66510819D02*
X132750000Y-66653676D01*
X132750000Y-66653676D02*
X132654762Y-66748914D01*
X132654762Y-66748914D02*
X132559524Y-66796533D01*
X133559524Y-67510819D02*
X133559524Y-66510819D01*
X133654762Y-67129866D02*
X133940476Y-67510819D01*
X133940476Y-66844152D02*
X133559524Y-67225104D01*
X129269261Y-65500057D02*
X129174023Y-65452438D01*
X129174023Y-65452438D02*
X129078785Y-65357200D01*
X129078785Y-65357200D02*
X128935928Y-65214342D01*
X128935928Y-65214342D02*
X128840690Y-65166723D01*
X128840690Y-65166723D02*
X128745452Y-65166723D01*
X128793071Y-65404819D02*
X128697833Y-65357200D01*
X128697833Y-65357200D02*
X128602595Y-65261961D01*
X128602595Y-65261961D02*
X128554976Y-65071485D01*
X128554976Y-65071485D02*
X128554976Y-64738152D01*
X128554976Y-64738152D02*
X128602595Y-64547676D01*
X128602595Y-64547676D02*
X128697833Y-64452438D01*
X128697833Y-64452438D02*
X128793071Y-64404819D01*
X128793071Y-64404819D02*
X128983547Y-64404819D01*
X128983547Y-64404819D02*
X129078785Y-64452438D01*
X129078785Y-64452438D02*
X129174023Y-64547676D01*
X129174023Y-64547676D02*
X129221642Y-64738152D01*
X129221642Y-64738152D02*
X129221642Y-65071485D01*
X129221642Y-65071485D02*
X129174023Y-65261961D01*
X129174023Y-65261961D02*
X129078785Y-65357200D01*
X129078785Y-65357200D02*
X128983547Y-65404819D01*
X128983547Y-65404819D02*
X128793071Y-65404819D01*
X129602595Y-64500057D02*
X129650214Y-64452438D01*
X129650214Y-64452438D02*
X129745452Y-64404819D01*
X129745452Y-64404819D02*
X129983547Y-64404819D01*
X129983547Y-64404819D02*
X130078785Y-64452438D01*
X130078785Y-64452438D02*
X130126404Y-64500057D01*
X130126404Y-64500057D02*
X130174023Y-64595295D01*
X130174023Y-64595295D02*
X130174023Y-64690533D01*
X130174023Y-64690533D02*
X130126404Y-64833390D01*
X130126404Y-64833390D02*
X129554976Y-65404819D01*
X129554976Y-65404819D02*
X130174023Y-65404819D01*
X139620666Y-107896820D02*
X139620666Y-108611105D01*
X139620666Y-108611105D02*
X139573047Y-108753962D01*
X139573047Y-108753962D02*
X139477809Y-108849201D01*
X139477809Y-108849201D02*
X139334952Y-108896820D01*
X139334952Y-108896820D02*
X139239714Y-108896820D01*
X140620666Y-108896820D02*
X140049238Y-108896820D01*
X140334952Y-108896820D02*
X140334952Y-107896820D01*
X140334952Y-107896820D02*
X140239714Y-108039677D01*
X140239714Y-108039677D02*
X140144476Y-108134915D01*
X140144476Y-108134915D02*
X140049238Y-108182534D01*
X132666666Y-56999819D02*
X132666666Y-57714104D01*
X132666666Y-57714104D02*
X132619047Y-57856961D01*
X132619047Y-57856961D02*
X132523809Y-57952200D01*
X132523809Y-57952200D02*
X132380952Y-57999819D01*
X132380952Y-57999819D02*
X132285714Y-57999819D01*
X133095238Y-57095057D02*
X133142857Y-57047438D01*
X133142857Y-57047438D02*
X133238095Y-56999819D01*
X133238095Y-56999819D02*
X133476190Y-56999819D01*
X133476190Y-56999819D02*
X133571428Y-57047438D01*
X133571428Y-57047438D02*
X133619047Y-57095057D01*
X133619047Y-57095057D02*
X133666666Y-57190295D01*
X133666666Y-57190295D02*
X133666666Y-57285533D01*
X133666666Y-57285533D02*
X133619047Y-57428390D01*
X133619047Y-57428390D02*
X133047619Y-57999819D01*
X133047619Y-57999819D02*
X133666666Y-57999819D01*
D10*
X144787619Y-23677419D02*
X145359047Y-23677419D01*
X145073333Y-24677419D02*
X145073333Y-23677419D01*
X146073333Y-24629800D02*
X145978095Y-24677419D01*
X145978095Y-24677419D02*
X145787619Y-24677419D01*
X145787619Y-24677419D02*
X145692381Y-24629800D01*
X145692381Y-24629800D02*
X145644762Y-24534561D01*
X145644762Y-24534561D02*
X145644762Y-24153609D01*
X145644762Y-24153609D02*
X145692381Y-24058371D01*
X145692381Y-24058371D02*
X145787619Y-24010752D01*
X145787619Y-24010752D02*
X145978095Y-24010752D01*
X145978095Y-24010752D02*
X146073333Y-24058371D01*
X146073333Y-24058371D02*
X146120952Y-24153609D01*
X146120952Y-24153609D02*
X146120952Y-24248847D01*
X146120952Y-24248847D02*
X145644762Y-24344085D01*
X146930476Y-24629800D02*
X146835238Y-24677419D01*
X146835238Y-24677419D02*
X146644762Y-24677419D01*
X146644762Y-24677419D02*
X146549524Y-24629800D01*
X146549524Y-24629800D02*
X146501905Y-24534561D01*
X146501905Y-24534561D02*
X146501905Y-24153609D01*
X146501905Y-24153609D02*
X146549524Y-24058371D01*
X146549524Y-24058371D02*
X146644762Y-24010752D01*
X146644762Y-24010752D02*
X146835238Y-24010752D01*
X146835238Y-24010752D02*
X146930476Y-24058371D01*
X146930476Y-24058371D02*
X146978095Y-24153609D01*
X146978095Y-24153609D02*
X146978095Y-24248847D01*
X146978095Y-24248847D02*
X146501905Y-24344085D01*
X147406667Y-24010752D02*
X147406667Y-24677419D01*
X147406667Y-24105990D02*
X147454286Y-24058371D01*
X147454286Y-24058371D02*
X147549524Y-24010752D01*
X147549524Y-24010752D02*
X147692381Y-24010752D01*
X147692381Y-24010752D02*
X147787619Y-24058371D01*
X147787619Y-24058371D02*
X147835238Y-24153609D01*
X147835238Y-24153609D02*
X147835238Y-24677419D01*
X148263810Y-24629800D02*
X148359048Y-24677419D01*
X148359048Y-24677419D02*
X148549524Y-24677419D01*
X148549524Y-24677419D02*
X148644762Y-24629800D01*
X148644762Y-24629800D02*
X148692381Y-24534561D01*
X148692381Y-24534561D02*
X148692381Y-24486942D01*
X148692381Y-24486942D02*
X148644762Y-24391704D01*
X148644762Y-24391704D02*
X148549524Y-24344085D01*
X148549524Y-24344085D02*
X148406667Y-24344085D01*
X148406667Y-24344085D02*
X148311429Y-24296466D01*
X148311429Y-24296466D02*
X148263810Y-24201228D01*
X148263810Y-24201228D02*
X148263810Y-24153609D01*
X148263810Y-24153609D02*
X148311429Y-24058371D01*
X148311429Y-24058371D02*
X148406667Y-24010752D01*
X148406667Y-24010752D02*
X148549524Y-24010752D01*
X148549524Y-24010752D02*
X148644762Y-24058371D01*
X149025715Y-24010752D02*
X149263810Y-24677419D01*
X149501905Y-24010752D02*
X149263810Y-24677419D01*
X149263810Y-24677419D02*
X149168572Y-24915514D01*
X149168572Y-24915514D02*
X149120953Y-24963133D01*
X149120953Y-24963133D02*
X149025715Y-25010752D01*
X149644763Y-24772657D02*
X150406667Y-24772657D01*
X151073334Y-24010752D02*
X151073334Y-24677419D01*
X150835239Y-23629800D02*
X150597144Y-24344085D01*
X150597144Y-24344085D02*
X151216191Y-24344085D01*
X151597144Y-24582180D02*
X151644763Y-24629800D01*
X151644763Y-24629800D02*
X151597144Y-24677419D01*
X151597144Y-24677419D02*
X151549525Y-24629800D01*
X151549525Y-24629800D02*
X151597144Y-24582180D01*
X151597144Y-24582180D02*
X151597144Y-24677419D01*
X152597143Y-24677419D02*
X152025715Y-24677419D01*
X152311429Y-24677419D02*
X152311429Y-23677419D01*
X152311429Y-23677419D02*
X152216191Y-23820276D01*
X152216191Y-23820276D02*
X152120953Y-23915514D01*
X152120953Y-23915514D02*
X152025715Y-23963133D01*
D11*
X146376819Y-80145238D02*
X146376819Y-80716666D01*
X146376819Y-80430952D02*
X145376819Y-80430952D01*
X145376819Y-80430952D02*
X145519676Y-80526190D01*
X145519676Y-80526190D02*
X145614914Y-80621428D01*
X145614914Y-80621428D02*
X145662533Y-80716666D01*
X145376819Y-79526190D02*
X145376819Y-79430952D01*
X145376819Y-79430952D02*
X145424438Y-79335714D01*
X145424438Y-79335714D02*
X145472057Y-79288095D01*
X145472057Y-79288095D02*
X145567295Y-79240476D01*
X145567295Y-79240476D02*
X145757771Y-79192857D01*
X145757771Y-79192857D02*
X145995866Y-79192857D01*
X145995866Y-79192857D02*
X146186342Y-79240476D01*
X146186342Y-79240476D02*
X146281580Y-79288095D01*
X146281580Y-79288095D02*
X146329200Y-79335714D01*
X146329200Y-79335714D02*
X146376819Y-79430952D01*
X146376819Y-79430952D02*
X146376819Y-79526190D01*
X146376819Y-79526190D02*
X146329200Y-79621428D01*
X146329200Y-79621428D02*
X146281580Y-79669047D01*
X146281580Y-79669047D02*
X146186342Y-79716666D01*
X146186342Y-79716666D02*
X145995866Y-79764285D01*
X145995866Y-79764285D02*
X145757771Y-79764285D01*
X145757771Y-79764285D02*
X145567295Y-79716666D01*
X145567295Y-79716666D02*
X145472057Y-79669047D01*
X145472057Y-79669047D02*
X145424438Y-79621428D01*
X145424438Y-79621428D02*
X145376819Y-79526190D01*
X146376819Y-78764285D02*
X145376819Y-78764285D01*
X145995866Y-78669047D02*
X146376819Y-78383333D01*
X145710152Y-78383333D02*
X146091104Y-78764285D01*
X180018057Y-43410094D02*
X179970438Y-43362475D01*
X179970438Y-43362475D02*
X179922819Y-43267237D01*
X179922819Y-43267237D02*
X179922819Y-43029142D01*
X179922819Y-43029142D02*
X179970438Y-42933904D01*
X179970438Y-42933904D02*
X180018057Y-42886285D01*
X180018057Y-42886285D02*
X180113295Y-42838666D01*
X180113295Y-42838666D02*
X180208533Y-42838666D01*
X180208533Y-42838666D02*
X180351390Y-42886285D01*
X180351390Y-42886285D02*
X180922819Y-43457713D01*
X180922819Y-43457713D02*
X180922819Y-42838666D01*
X180018057Y-42457713D02*
X179970438Y-42410094D01*
X179970438Y-42410094D02*
X179922819Y-42314856D01*
X179922819Y-42314856D02*
X179922819Y-42076761D01*
X179922819Y-42076761D02*
X179970438Y-41981523D01*
X179970438Y-41981523D02*
X180018057Y-41933904D01*
X180018057Y-41933904D02*
X180113295Y-41886285D01*
X180113295Y-41886285D02*
X180208533Y-41886285D01*
X180208533Y-41886285D02*
X180351390Y-41933904D01*
X180351390Y-41933904D02*
X180922819Y-42505332D01*
X180922819Y-42505332D02*
X180922819Y-41886285D01*
X179922819Y-41267237D02*
X179922819Y-41171999D01*
X179922819Y-41171999D02*
X179970438Y-41076761D01*
X179970438Y-41076761D02*
X180018057Y-41029142D01*
X180018057Y-41029142D02*
X180113295Y-40981523D01*
X180113295Y-40981523D02*
X180303771Y-40933904D01*
X180303771Y-40933904D02*
X180541866Y-40933904D01*
X180541866Y-40933904D02*
X180732342Y-40981523D01*
X180732342Y-40981523D02*
X180827580Y-41029142D01*
X180827580Y-41029142D02*
X180875200Y-41076761D01*
X180875200Y-41076761D02*
X180922819Y-41171999D01*
X180922819Y-41171999D02*
X180922819Y-41267237D01*
X180922819Y-41267237D02*
X180875200Y-41362475D01*
X180875200Y-41362475D02*
X180827580Y-41410094D01*
X180827580Y-41410094D02*
X180732342Y-41457713D01*
X180732342Y-41457713D02*
X180541866Y-41505332D01*
X180541866Y-41505332D02*
X180303771Y-41505332D01*
X180303771Y-41505332D02*
X180113295Y-41457713D01*
X180113295Y-41457713D02*
X180018057Y-41410094D01*
X180018057Y-41410094D02*
X179970438Y-41362475D01*
X179970438Y-41362475D02*
X179922819Y-41267237D01*
X180922819Y-39933904D02*
X180446628Y-40267237D01*
X180922819Y-40505332D02*
X179922819Y-40505332D01*
X179922819Y-40505332D02*
X179922819Y-40124380D01*
X179922819Y-40124380D02*
X179970438Y-40029142D01*
X179970438Y-40029142D02*
X180018057Y-39981523D01*
X180018057Y-39981523D02*
X180113295Y-39933904D01*
X180113295Y-39933904D02*
X180256152Y-39933904D01*
X180256152Y-39933904D02*
X180351390Y-39981523D01*
X180351390Y-39981523D02*
X180399009Y-40029142D01*
X180399009Y-40029142D02*
X180446628Y-40124380D01*
X180446628Y-40124380D02*
X180446628Y-40505332D01*
X132654761Y-62054819D02*
X132083333Y-62054819D01*
X132369047Y-62054819D02*
X132369047Y-61054819D01*
X132369047Y-61054819D02*
X132273809Y-61197676D01*
X132273809Y-61197676D02*
X132178571Y-61292914D01*
X132178571Y-61292914D02*
X132083333Y-61340533D01*
X133273809Y-61054819D02*
X133369047Y-61054819D01*
X133369047Y-61054819D02*
X133464285Y-61102438D01*
X133464285Y-61102438D02*
X133511904Y-61150057D01*
X133511904Y-61150057D02*
X133559523Y-61245295D01*
X133559523Y-61245295D02*
X133607142Y-61435771D01*
X133607142Y-61435771D02*
X133607142Y-61673866D01*
X133607142Y-61673866D02*
X133559523Y-61864342D01*
X133559523Y-61864342D02*
X133511904Y-61959580D01*
X133511904Y-61959580D02*
X133464285Y-62007200D01*
X133464285Y-62007200D02*
X133369047Y-62054819D01*
X133369047Y-62054819D02*
X133273809Y-62054819D01*
X133273809Y-62054819D02*
X133178571Y-62007200D01*
X133178571Y-62007200D02*
X133130952Y-61959580D01*
X133130952Y-61959580D02*
X133083333Y-61864342D01*
X133083333Y-61864342D02*
X133035714Y-61673866D01*
X133035714Y-61673866D02*
X133035714Y-61435771D01*
X133035714Y-61435771D02*
X133083333Y-61245295D01*
X133083333Y-61245295D02*
X133130952Y-61150057D01*
X133130952Y-61150057D02*
X133178571Y-61102438D01*
X133178571Y-61102438D02*
X133273809Y-61054819D01*
X134035714Y-62054819D02*
X134035714Y-61054819D01*
X134130952Y-61673866D02*
X134416666Y-62054819D01*
X134416666Y-61388152D02*
X134035714Y-61769104D01*
X134961333Y-82655580D02*
X134913714Y-82703200D01*
X134913714Y-82703200D02*
X134770857Y-82750819D01*
X134770857Y-82750819D02*
X134675619Y-82750819D01*
X134675619Y-82750819D02*
X134532762Y-82703200D01*
X134532762Y-82703200D02*
X134437524Y-82607961D01*
X134437524Y-82607961D02*
X134389905Y-82512723D01*
X134389905Y-82512723D02*
X134342286Y-82322247D01*
X134342286Y-82322247D02*
X134342286Y-82179390D01*
X134342286Y-82179390D02*
X134389905Y-81988914D01*
X134389905Y-81988914D02*
X134437524Y-81893676D01*
X134437524Y-81893676D02*
X134532762Y-81798438D01*
X134532762Y-81798438D02*
X134675619Y-81750819D01*
X134675619Y-81750819D02*
X134770857Y-81750819D01*
X134770857Y-81750819D02*
X134913714Y-81798438D01*
X134913714Y-81798438D02*
X134961333Y-81846057D01*
X135818476Y-82084152D02*
X135818476Y-82750819D01*
X135580381Y-81703200D02*
X135342286Y-82417485D01*
X135342286Y-82417485D02*
X135961333Y-82417485D01*
X144156666Y-30774819D02*
X144156666Y-31489104D01*
X144156666Y-31489104D02*
X144109047Y-31631961D01*
X144109047Y-31631961D02*
X144013809Y-31727200D01*
X144013809Y-31727200D02*
X143870952Y-31774819D01*
X143870952Y-31774819D02*
X143775714Y-31774819D01*
X144775714Y-31203390D02*
X144680476Y-31155771D01*
X144680476Y-31155771D02*
X144632857Y-31108152D01*
X144632857Y-31108152D02*
X144585238Y-31012914D01*
X144585238Y-31012914D02*
X144585238Y-30965295D01*
X144585238Y-30965295D02*
X144632857Y-30870057D01*
X144632857Y-30870057D02*
X144680476Y-30822438D01*
X144680476Y-30822438D02*
X144775714Y-30774819D01*
X144775714Y-30774819D02*
X144966190Y-30774819D01*
X144966190Y-30774819D02*
X145061428Y-30822438D01*
X145061428Y-30822438D02*
X145109047Y-30870057D01*
X145109047Y-30870057D02*
X145156666Y-30965295D01*
X145156666Y-30965295D02*
X145156666Y-31012914D01*
X145156666Y-31012914D02*
X145109047Y-31108152D01*
X145109047Y-31108152D02*
X145061428Y-31155771D01*
X145061428Y-31155771D02*
X144966190Y-31203390D01*
X144966190Y-31203390D02*
X144775714Y-31203390D01*
X144775714Y-31203390D02*
X144680476Y-31251009D01*
X144680476Y-31251009D02*
X144632857Y-31298628D01*
X144632857Y-31298628D02*
X144585238Y-31393866D01*
X144585238Y-31393866D02*
X144585238Y-31584342D01*
X144585238Y-31584342D02*
X144632857Y-31679580D01*
X144632857Y-31679580D02*
X144680476Y-31727200D01*
X144680476Y-31727200D02*
X144775714Y-31774819D01*
X144775714Y-31774819D02*
X144966190Y-31774819D01*
X144966190Y-31774819D02*
X145061428Y-31727200D01*
X145061428Y-31727200D02*
X145109047Y-31679580D01*
X145109047Y-31679580D02*
X145156666Y-31584342D01*
X145156666Y-31584342D02*
X145156666Y-31393866D01*
X145156666Y-31393866D02*
X145109047Y-31298628D01*
X145109047Y-31298628D02*
X145061428Y-31251009D01*
X145061428Y-31251009D02*
X144966190Y-31203390D01*
X176127580Y-31916666D02*
X176175200Y-31964285D01*
X176175200Y-31964285D02*
X176222819Y-32107142D01*
X176222819Y-32107142D02*
X176222819Y-32202380D01*
X176222819Y-32202380D02*
X176175200Y-32345237D01*
X176175200Y-32345237D02*
X176079961Y-32440475D01*
X176079961Y-32440475D02*
X175984723Y-32488094D01*
X175984723Y-32488094D02*
X175794247Y-32535713D01*
X175794247Y-32535713D02*
X175651390Y-32535713D01*
X175651390Y-32535713D02*
X175460914Y-32488094D01*
X175460914Y-32488094D02*
X175365676Y-32440475D01*
X175365676Y-32440475D02*
X175270438Y-32345237D01*
X175270438Y-32345237D02*
X175222819Y-32202380D01*
X175222819Y-32202380D02*
X175222819Y-32107142D01*
X175222819Y-32107142D02*
X175270438Y-31964285D01*
X175270438Y-31964285D02*
X175318057Y-31916666D01*
X176222819Y-30964285D02*
X176222819Y-31535713D01*
X176222819Y-31249999D02*
X175222819Y-31249999D01*
X175222819Y-31249999D02*
X175365676Y-31345237D01*
X175365676Y-31345237D02*
X175460914Y-31440475D01*
X175460914Y-31440475D02*
X175508533Y-31535713D01*
X173894762Y-37444057D02*
X173799524Y-37396438D01*
X173799524Y-37396438D02*
X173704286Y-37301200D01*
X173704286Y-37301200D02*
X173561429Y-37158342D01*
X173561429Y-37158342D02*
X173466191Y-37110723D01*
X173466191Y-37110723D02*
X173370953Y-37110723D01*
X173418572Y-37348819D02*
X173323334Y-37301200D01*
X173323334Y-37301200D02*
X173228096Y-37205961D01*
X173228096Y-37205961D02*
X173180477Y-37015485D01*
X173180477Y-37015485D02*
X173180477Y-36682152D01*
X173180477Y-36682152D02*
X173228096Y-36491676D01*
X173228096Y-36491676D02*
X173323334Y-36396438D01*
X173323334Y-36396438D02*
X173418572Y-36348819D01*
X173418572Y-36348819D02*
X173609048Y-36348819D01*
X173609048Y-36348819D02*
X173704286Y-36396438D01*
X173704286Y-36396438D02*
X173799524Y-36491676D01*
X173799524Y-36491676D02*
X173847143Y-36682152D01*
X173847143Y-36682152D02*
X173847143Y-37015485D01*
X173847143Y-37015485D02*
X173799524Y-37205961D01*
X173799524Y-37205961D02*
X173704286Y-37301200D01*
X173704286Y-37301200D02*
X173609048Y-37348819D01*
X173609048Y-37348819D02*
X173418572Y-37348819D01*
X174180477Y-36348819D02*
X174799524Y-36348819D01*
X174799524Y-36348819D02*
X174466191Y-36729771D01*
X174466191Y-36729771D02*
X174609048Y-36729771D01*
X174609048Y-36729771D02*
X174704286Y-36777390D01*
X174704286Y-36777390D02*
X174751905Y-36825009D01*
X174751905Y-36825009D02*
X174799524Y-36920247D01*
X174799524Y-36920247D02*
X174799524Y-37158342D01*
X174799524Y-37158342D02*
X174751905Y-37253580D01*
X174751905Y-37253580D02*
X174704286Y-37301200D01*
X174704286Y-37301200D02*
X174609048Y-37348819D01*
X174609048Y-37348819D02*
X174323334Y-37348819D01*
X174323334Y-37348819D02*
X174228096Y-37301200D01*
X174228096Y-37301200D02*
X174180477Y-37253580D01*
X194156665Y-56784819D02*
X194156665Y-57499104D01*
X194156665Y-57499104D02*
X194109046Y-57641961D01*
X194109046Y-57641961D02*
X194013808Y-57737200D01*
X194013808Y-57737200D02*
X193870951Y-57784819D01*
X193870951Y-57784819D02*
X193775713Y-57784819D01*
X194680475Y-57784819D02*
X194870951Y-57784819D01*
X194870951Y-57784819D02*
X194966189Y-57737200D01*
X194966189Y-57737200D02*
X195013808Y-57689580D01*
X195013808Y-57689580D02*
X195109046Y-57546723D01*
X195109046Y-57546723D02*
X195156665Y-57356247D01*
X195156665Y-57356247D02*
X195156665Y-56975295D01*
X195156665Y-56975295D02*
X195109046Y-56880057D01*
X195109046Y-56880057D02*
X195061427Y-56832438D01*
X195061427Y-56832438D02*
X194966189Y-56784819D01*
X194966189Y-56784819D02*
X194775713Y-56784819D01*
X194775713Y-56784819D02*
X194680475Y-56832438D01*
X194680475Y-56832438D02*
X194632856Y-56880057D01*
X194632856Y-56880057D02*
X194585237Y-56975295D01*
X194585237Y-56975295D02*
X194585237Y-57213390D01*
X194585237Y-57213390D02*
X194632856Y-57308628D01*
X194632856Y-57308628D02*
X194680475Y-57356247D01*
X194680475Y-57356247D02*
X194775713Y-57403866D01*
X194775713Y-57403866D02*
X194966189Y-57403866D01*
X194966189Y-57403866D02*
X195061427Y-57356247D01*
X195061427Y-57356247D02*
X195109046Y-57308628D01*
X195109046Y-57308628D02*
X195156665Y-57213390D01*
X146377819Y-76312638D02*
X146377819Y-76884066D01*
X146377819Y-76598352D02*
X145377819Y-76598352D01*
X145377819Y-76598352D02*
X145520676Y-76693590D01*
X145520676Y-76693590D02*
X145615914Y-76788828D01*
X145615914Y-76788828D02*
X145663533Y-76884066D01*
X145377819Y-75693590D02*
X145377819Y-75598352D01*
X145377819Y-75598352D02*
X145425438Y-75503114D01*
X145425438Y-75503114D02*
X145473057Y-75455495D01*
X145473057Y-75455495D02*
X145568295Y-75407876D01*
X145568295Y-75407876D02*
X145758771Y-75360257D01*
X145758771Y-75360257D02*
X145996866Y-75360257D01*
X145996866Y-75360257D02*
X146187342Y-75407876D01*
X146187342Y-75407876D02*
X146282580Y-75455495D01*
X146282580Y-75455495D02*
X146330200Y-75503114D01*
X146330200Y-75503114D02*
X146377819Y-75598352D01*
X146377819Y-75598352D02*
X146377819Y-75693590D01*
X146377819Y-75693590D02*
X146330200Y-75788828D01*
X146330200Y-75788828D02*
X146282580Y-75836447D01*
X146282580Y-75836447D02*
X146187342Y-75884066D01*
X146187342Y-75884066D02*
X145996866Y-75931685D01*
X145996866Y-75931685D02*
X145758771Y-75931685D01*
X145758771Y-75931685D02*
X145568295Y-75884066D01*
X145568295Y-75884066D02*
X145473057Y-75836447D01*
X145473057Y-75836447D02*
X145425438Y-75788828D01*
X145425438Y-75788828D02*
X145377819Y-75693590D01*
X146377819Y-74931685D02*
X145377819Y-74931685D01*
X145996866Y-74836447D02*
X146377819Y-74550733D01*
X145711152Y-74550733D02*
X146092104Y-74931685D01*
D12*
%TO.C,J6*%
X116194000Y-25004000D02*
X116194000Y-25504000D01*
X116194000Y-25504000D02*
X117194000Y-25504000D01*
X117194000Y-25504000D02*
X117194000Y-33504000D01*
X117194000Y-37004000D02*
X117194000Y-39004000D01*
X117194000Y-39004000D02*
X129694000Y-39004000D01*
X127444000Y-39254000D02*
X126444000Y-39254000D01*
X129694000Y-25504000D02*
X130694000Y-25504000D01*
X129694000Y-33504000D02*
X129694000Y-25504000D01*
X129694000Y-39004000D02*
X129694000Y-37004000D01*
X130694000Y-25004000D02*
X116194000Y-25004000D01*
X130694000Y-25504000D02*
X130694000Y-25004000D01*
%TO.C,10k*%
X143537000Y-83100936D02*
X143537000Y-83555064D01*
X145007000Y-83100936D02*
X145007000Y-83555064D01*
%TO.C,C3*%
X136806000Y-85284000D02*
X139546000Y-85284000D01*
X136806000Y-90524000D02*
X136806000Y-85284000D01*
X139546000Y-85284000D02*
X139546000Y-90524000D01*
X139546000Y-90524000D02*
X136806000Y-90524000D01*
%TO.C,C2*%
X162870000Y-28570000D02*
X165610000Y-28570000D01*
X162870000Y-33810000D02*
X162870000Y-28570000D01*
X165610000Y-28570000D02*
X165610000Y-33810000D01*
X165610000Y-33810000D02*
X162870000Y-33810000D01*
%TO.C,J4*%
X159095000Y-48705000D02*
X160365000Y-48705000D01*
X159095000Y-49975000D02*
X159095000Y-48705000D01*
X161442358Y-52085000D02*
X161755000Y-52085000D01*
X161442358Y-52945000D02*
X161755000Y-52945000D01*
X161525000Y-49545000D02*
X161755000Y-49545000D01*
X161525000Y-50405000D02*
X161755000Y-50405000D01*
X161755000Y-48595000D02*
X161755000Y-53895000D01*
X161755000Y-51245000D02*
X164515000Y-51245000D01*
X161755000Y-53895000D02*
X164515000Y-53895000D01*
X164515000Y-48595000D02*
X161755000Y-48595000D01*
X164515000Y-52085000D02*
X170515000Y-52085000D01*
X164515000Y-53895000D02*
X164515000Y-48595000D01*
X170515000Y-52085000D02*
X170515000Y-52945000D01*
X170515000Y-52945000D02*
X164515000Y-52945000D01*
X164515000Y-49545000D02*
X170515000Y-49545000D01*
X170515000Y-50405000D01*
X164515000Y-50405000D01*
X164515000Y-49545000D01*
G36*
X164515000Y-49545000D02*
G01*
X170515000Y-49545000D01*
X170515000Y-50405000D01*
X164515000Y-50405000D01*
X164515000Y-49545000D01*
G37*
%TO.C,1k*%
X133022936Y-64515000D02*
X133477064Y-64515000D01*
X133022936Y-65985000D02*
X133477064Y-65985000D01*
%TO.C,Q2*%
X129364500Y-60990000D02*
X128714500Y-60990000D01*
X129364500Y-60990000D02*
X130014500Y-60990000D01*
X129364500Y-64110000D02*
X128714500Y-64110000D01*
X129364500Y-64110000D02*
X130014500Y-64110000D01*
X130767000Y-64390000D02*
X130287000Y-64390000D01*
X130527000Y-64060000D01*
X130767000Y-64390000D01*
G36*
X130767000Y-64390000D02*
G01*
X130287000Y-64390000D01*
X130527000Y-64060000D01*
X130767000Y-64390000D01*
G37*
%TO.C,J1*%
X134189000Y-93042001D02*
X140189000Y-93042001D01*
X134189000Y-93902001D02*
X134189000Y-93042001D01*
X134189000Y-95582001D02*
X140189000Y-95582001D01*
X134189000Y-96442001D02*
X134189000Y-95582001D01*
X134189000Y-98122001D02*
X140189000Y-98122001D01*
X134189000Y-98982001D02*
X134189000Y-98122001D01*
X134189000Y-100662001D02*
X140189000Y-100662001D01*
X134189000Y-101522001D02*
X134189000Y-100662001D01*
X134189000Y-103202001D02*
X140189000Y-103202001D01*
X134189000Y-104062001D02*
X134189000Y-103202001D01*
X140189000Y-92092001D02*
X140189000Y-107552001D01*
X140189000Y-93902001D02*
X134189000Y-93902001D01*
X140189000Y-96442001D02*
X134189000Y-96442001D01*
X140189000Y-98982001D02*
X134189000Y-98982001D01*
X140189000Y-101522001D02*
X134189000Y-101522001D01*
X140189000Y-104062001D02*
X134189000Y-104062001D01*
X140189000Y-107552001D02*
X142949000Y-107552001D01*
X142949000Y-92092001D02*
X140189000Y-92092001D01*
X142949000Y-94742001D02*
X140189000Y-94742001D01*
X142949000Y-97282001D02*
X140189000Y-97282001D01*
X142949000Y-99822001D02*
X140189000Y-99822001D01*
X142949000Y-102362001D02*
X140189000Y-102362001D01*
X142949000Y-104902001D02*
X140189000Y-104902001D01*
X142949000Y-107552001D02*
X142949000Y-92092001D01*
X143179000Y-105742001D02*
X142949000Y-105742001D01*
X143179000Y-106602001D02*
X142949000Y-106602001D01*
X143261642Y-93042001D02*
X142949000Y-93042001D01*
X143261642Y-93902001D02*
X142949000Y-93902001D01*
X143261642Y-95582001D02*
X142949000Y-95582001D01*
X143261642Y-96442001D02*
X142949000Y-96442001D01*
X143261642Y-98122001D02*
X142949000Y-98122001D01*
X143261642Y-98982001D02*
X142949000Y-98982001D01*
X143261642Y-100662001D02*
X142949000Y-100662001D01*
X143261642Y-101522001D02*
X142949000Y-101522001D01*
X143261642Y-103202001D02*
X142949000Y-103202001D01*
X143261642Y-104062001D02*
X142949000Y-104062001D01*
X145609000Y-106172001D02*
X145609000Y-107442001D01*
X145609000Y-107442001D02*
X144339000Y-107442001D01*
X140189000Y-106602001D02*
X134189000Y-106602001D01*
X134189000Y-105742001D01*
X140189000Y-105742001D01*
X140189000Y-106602001D01*
G36*
X140189000Y-106602001D02*
G01*
X134189000Y-106602001D01*
X134189000Y-105742001D01*
X140189000Y-105742001D01*
X140189000Y-106602001D01*
G37*
%TO.C,J2*%
X127235000Y-52305000D02*
X133235000Y-52305000D01*
X127235000Y-53165000D02*
X127235000Y-52305000D01*
X133235000Y-51355000D02*
X133235000Y-56655000D01*
X133235000Y-53165000D02*
X127235000Y-53165000D01*
X133235000Y-56655000D02*
X135995000Y-56655000D01*
X135995000Y-51355000D02*
X133235000Y-51355000D01*
X135995000Y-54005000D02*
X133235000Y-54005000D01*
X135995000Y-56655000D02*
X135995000Y-51355000D01*
X136225000Y-54845000D02*
X135995000Y-54845000D01*
X136225000Y-55705000D02*
X135995000Y-55705000D01*
X136307642Y-52305000D02*
X135995000Y-52305000D01*
X136307642Y-53165000D02*
X135995000Y-53165000D01*
X138655000Y-55275000D02*
X138655000Y-56545000D01*
X138655000Y-56545000D02*
X137385000Y-56545000D01*
X133235000Y-55705000D02*
X127235000Y-55705000D01*
X127235000Y-54845000D01*
X133235000Y-54845000D01*
X133235000Y-55705000D01*
G36*
X133235000Y-55705000D02*
G01*
X127235000Y-55705000D01*
X127235000Y-54845000D01*
X133235000Y-54845000D01*
X133235000Y-55705000D01*
G37*
%TO.C,Teensy_4.1*%
X140120000Y-26020000D02*
X140120000Y-87160000D01*
X140120000Y-87160000D02*
X158120000Y-87160000D01*
X140160000Y-26020000D02*
X158120000Y-26020000D01*
X142880000Y-26070000D02*
X142880000Y-87160000D01*
X155360000Y-26020000D02*
X155360000Y-87160000D01*
X158120000Y-26020000D02*
X158120000Y-87160000D01*
%TO.C,10k*%
X143537000Y-79322936D02*
X143537000Y-79777064D01*
X145007000Y-79322936D02*
X145007000Y-79777064D01*
%TO.C,220R*%
X181383000Y-41899064D02*
X181383000Y-41444936D01*
X182853000Y-41899064D02*
X182853000Y-41444936D01*
%TO.C,10k*%
X133022936Y-62515000D02*
X133477064Y-62515000D01*
X133022936Y-63985000D02*
X133477064Y-63985000D01*
%TO.C,C4*%
X133758000Y-83252000D02*
X136498000Y-83252000D01*
X133758000Y-88492000D02*
X133758000Y-83252000D01*
X136498000Y-83252000D02*
X136498000Y-88492000D01*
X136498000Y-88492000D02*
X133758000Y-88492000D01*
%TO.C,J8*%
X143110000Y-32320000D02*
X144490000Y-32320000D01*
X143110000Y-33700000D02*
X143110000Y-32320000D01*
X143110000Y-34970000D02*
X143110000Y-45240000D01*
X143110000Y-34970000D02*
X145870000Y-34970000D01*
X143110000Y-45240000D02*
X145870000Y-45240000D01*
X145870000Y-34970000D02*
X145870000Y-45240000D01*
%TO.C,C1*%
X169700000Y-32410000D02*
X166723000Y-32410000D01*
X169700000Y-32450000D02*
X166731000Y-32450000D01*
X169700000Y-32490000D02*
X166738000Y-32490000D01*
X169700000Y-32530000D02*
X166747000Y-32530000D01*
X169700000Y-32570000D02*
X166755000Y-32570000D01*
X169700000Y-32610000D02*
X166764000Y-32610000D01*
X169700000Y-32650000D02*
X166773000Y-32650000D01*
X169700000Y-32690000D02*
X166783000Y-32690000D01*
X169700000Y-32730000D02*
X166793000Y-32730000D01*
X169700000Y-32770000D02*
X166804000Y-32770000D01*
X169700000Y-32810000D02*
X166815000Y-32810000D01*
X169700000Y-32850000D02*
X166827000Y-32850000D01*
X169700000Y-32890000D02*
X166839000Y-32890000D01*
X169700000Y-32930000D02*
X166851000Y-32930000D01*
X169700000Y-32970000D02*
X166864000Y-32970000D01*
X169700000Y-33010000D02*
X166877000Y-33010000D01*
X169700000Y-33050000D02*
X166891000Y-33050000D01*
X169700000Y-33090000D02*
X166905000Y-33090000D01*
X169700000Y-33130000D02*
X166920000Y-33130000D01*
X169700000Y-33170000D02*
X166935000Y-33170000D01*
X169700000Y-33210000D02*
X166951000Y-33210000D01*
X169700000Y-33250000D02*
X166967000Y-33250000D01*
X169700000Y-33290000D02*
X166983000Y-33290000D01*
X169700000Y-33330000D02*
X167000000Y-33330000D01*
X169700000Y-33370000D02*
X167018000Y-33370000D01*
X169700000Y-33410000D02*
X167036000Y-33410000D01*
X169700000Y-33450000D02*
X167055000Y-33450000D01*
X169700000Y-33490000D02*
X167074000Y-33490000D01*
X169700000Y-33530000D02*
X167094000Y-33530000D01*
X169700000Y-33570000D02*
X167114000Y-33570000D01*
X169700000Y-33610000D02*
X167135000Y-33610000D01*
X169700000Y-33650000D02*
X167156000Y-33650000D01*
X169700000Y-33690000D02*
X167178000Y-33690000D01*
X169700000Y-33730000D02*
X167201000Y-33730000D01*
X169700000Y-33770000D02*
X167224000Y-33770000D01*
X169700000Y-33810000D02*
X167247000Y-33810000D01*
X169700000Y-33850000D02*
X167272000Y-33850000D01*
X169700000Y-33890000D02*
X167297000Y-33890000D01*
X169700000Y-33930000D02*
X167322000Y-33930000D01*
X169700000Y-33970000D02*
X167348000Y-33970000D01*
X169700000Y-34010000D02*
X167375000Y-34010000D01*
X169700000Y-34050000D02*
X167403000Y-34050000D01*
X169700000Y-34090000D02*
X167431000Y-34090000D01*
X169700000Y-34130000D02*
X167460000Y-34130000D01*
X169700000Y-34170000D02*
X167490000Y-34170000D01*
X169700000Y-34210000D02*
X167521000Y-34210000D01*
X169700000Y-34250000D02*
X167552000Y-34250000D01*
X169700000Y-34290000D02*
X167584000Y-34290000D01*
X169700000Y-34330000D02*
X167617000Y-34330000D01*
X169700000Y-34370000D02*
X167651000Y-34370000D01*
X169700000Y-34410000D02*
X167685000Y-34410000D01*
X169700000Y-34450000D02*
X167721000Y-34450000D01*
X171273000Y-35770000D02*
X170207000Y-35770000D01*
X171508000Y-35730000D02*
X169972000Y-35730000D01*
X171687000Y-35690000D02*
X169793000Y-35690000D01*
X171837000Y-35650000D02*
X169643000Y-35650000D01*
X171968000Y-35610000D02*
X169512000Y-35610000D01*
X172086000Y-35570000D02*
X169394000Y-35570000D01*
X172193000Y-35530000D02*
X169287000Y-35530000D01*
X172292000Y-35490000D02*
X169188000Y-35490000D01*
X172384000Y-35450000D02*
X169096000Y-35450000D01*
X172471000Y-35410000D02*
X169009000Y-35410000D01*
X172553000Y-35370000D02*
X168927000Y-35370000D01*
X172630000Y-35330000D02*
X168850000Y-35330000D01*
X172704000Y-35290000D02*
X168776000Y-35290000D01*
X172774000Y-35250000D02*
X168706000Y-35250000D01*
X172841000Y-35210000D02*
X168639000Y-35210000D01*
X172905000Y-35170000D02*
X168575000Y-35170000D01*
X172967000Y-35130000D02*
X168513000Y-35130000D01*
X173027000Y-35090000D02*
X168453000Y-35090000D01*
X173055000Y-27280302D02*
X173055000Y-28080302D01*
X173084000Y-35050000D02*
X168396000Y-35050000D01*
X173140000Y-35010000D02*
X168340000Y-35010000D01*
X173193000Y-34970000D02*
X168287000Y-34970000D01*
X173245000Y-34930000D02*
X168235000Y-34930000D01*
X173295000Y-34890000D02*
X168185000Y-34890000D01*
X173344000Y-34850000D02*
X168136000Y-34850000D01*
X173391000Y-34810000D02*
X168089000Y-34810000D01*
X173436000Y-34770000D02*
X168044000Y-34770000D01*
X173455000Y-27680302D02*
X172655000Y-27680302D01*
X173481000Y-34730000D02*
X167999000Y-34730000D01*
X173524000Y-34690000D02*
X167956000Y-34690000D01*
X173566000Y-34650000D02*
X167914000Y-34650000D01*
X173607000Y-34610000D02*
X167873000Y-34610000D01*
X173646000Y-34570000D02*
X167834000Y-34570000D01*
X173685000Y-34530000D02*
X167795000Y-34530000D01*
X173722000Y-34490000D02*
X167758000Y-34490000D01*
X173759000Y-34450000D02*
X171780000Y-34450000D01*
X173795000Y-34410000D02*
X171780000Y-34410000D01*
X173829000Y-34370000D02*
X171780000Y-34370000D01*
X173863000Y-34330000D02*
X171780000Y-34330000D01*
X173896000Y-34290000D02*
X171780000Y-34290000D01*
X173928000Y-34250000D02*
X171780000Y-34250000D01*
X173959000Y-34210000D02*
X171780000Y-34210000D01*
X173990000Y-34170000D02*
X171780000Y-34170000D01*
X174020000Y-34130000D02*
X171780000Y-34130000D01*
X174049000Y-34090000D02*
X171780000Y-34090000D01*
X174077000Y-34050000D02*
X171780000Y-34050000D01*
X174105000Y-34010000D02*
X171780000Y-34010000D01*
X174132000Y-33970000D02*
X171780000Y-33970000D01*
X174158000Y-33930000D02*
X171780000Y-33930000D01*
X174183000Y-33890000D02*
X171780000Y-33890000D01*
X174208000Y-33850000D02*
X171780000Y-33850000D01*
X174233000Y-33810000D02*
X171780000Y-33810000D01*
X174256000Y-33770000D02*
X171780000Y-33770000D01*
X174279000Y-33730000D02*
X171780000Y-33730000D01*
X174302000Y-33690000D02*
X171780000Y-33690000D01*
X174324000Y-33650000D02*
X171780000Y-33650000D01*
X174345000Y-33610000D02*
X171780000Y-33610000D01*
X174366000Y-33570000D02*
X171780000Y-33570000D01*
X174386000Y-33530000D02*
X171780000Y-33530000D01*
X174406000Y-33490000D02*
X171780000Y-33490000D01*
X174425000Y-33450000D02*
X171780000Y-33450000D01*
X174444000Y-33410000D02*
X171780000Y-33410000D01*
X174462000Y-33370000D02*
X171780000Y-33370000D01*
X174480000Y-33330000D02*
X171780000Y-33330000D01*
X174497000Y-33290000D02*
X171780000Y-33290000D01*
X174513000Y-33250000D02*
X171780000Y-33250000D01*
X174529000Y-33210000D02*
X171780000Y-33210000D01*
X174545000Y-33170000D02*
X171780000Y-33170000D01*
X174560000Y-33130000D02*
X171780000Y-33130000D01*
X174575000Y-33090000D02*
X171780000Y-33090000D01*
X174589000Y-33050000D02*
X171780000Y-33050000D01*
X174603000Y-33010000D02*
X171780000Y-33010000D01*
X174616000Y-32970000D02*
X171780000Y-32970000D01*
X174629000Y-32930000D02*
X171780000Y-32930000D01*
X174641000Y-32890000D02*
X171780000Y-32890000D01*
X174653000Y-32850000D02*
X171780000Y-32850000D01*
X174665000Y-32810000D02*
X171780000Y-32810000D01*
X174676000Y-32770000D02*
X171780000Y-32770000D01*
X174687000Y-32730000D02*
X171780000Y-32730000D01*
X174697000Y-32690000D02*
X171780000Y-32690000D01*
X174707000Y-32650000D02*
X171780000Y-32650000D01*
X174716000Y-32610000D02*
X171780000Y-32610000D01*
X174725000Y-32570000D02*
X171780000Y-32570000D01*
X174733000Y-32530000D02*
X171780000Y-32530000D01*
X174742000Y-32490000D02*
X171780000Y-32490000D01*
X174749000Y-32450000D02*
X171780000Y-32450000D01*
X174757000Y-32410000D02*
X171780000Y-32410000D01*
X174763000Y-32370000D02*
X166717000Y-32370000D01*
X174770000Y-32330000D02*
X166710000Y-32330000D01*
X174776000Y-32290000D02*
X166704000Y-32290000D01*
X174782000Y-32250000D02*
X166698000Y-32250000D01*
X174787000Y-32210000D02*
X166693000Y-32210000D01*
X174792000Y-32170000D02*
X166688000Y-32170000D01*
X174796000Y-32130000D02*
X166684000Y-32130000D01*
X174801000Y-32090000D02*
X166679000Y-32090000D01*
X174804000Y-32050000D02*
X166676000Y-32050000D01*
X174808000Y-32010000D02*
X166672000Y-32010000D01*
X174810000Y-31970000D02*
X166670000Y-31970000D01*
X174813000Y-31930000D02*
X166667000Y-31930000D01*
X174815000Y-31890000D02*
X166665000Y-31890000D01*
X174817000Y-31850000D02*
X166663000Y-31850000D01*
X174818000Y-31810000D02*
X166662000Y-31810000D01*
X174819000Y-31770000D02*
X166661000Y-31770000D01*
X174820000Y-31690000D02*
X166660000Y-31690000D01*
X174820000Y-31730000D02*
X166660000Y-31730000D01*
X174860000Y-31690000D02*
G75*
G02*
X166620000Y-31690000I-4120000J0D01*
G01*
X166620000Y-31690000D02*
G75*
G02*
X174860000Y-31690000I4120000J0D01*
G01*
%TO.C,Q3*%
X168750001Y-37737000D02*
X179230001Y-37737000D01*
X168750001Y-40367000D02*
X170238001Y-40367000D01*
X168750001Y-42657000D02*
X168750001Y-37737000D01*
X172140001Y-37737000D02*
X172140001Y-39634000D01*
X172662001Y-40367000D02*
X172777001Y-40366000D01*
X175202001Y-40366000D02*
X175317001Y-40366000D01*
X175840001Y-37737000D02*
X175840001Y-39634000D01*
X177742001Y-40366000D02*
X179230001Y-40367000D01*
X179230001Y-37737000D02*
X179230001Y-42657000D01*
X179230001Y-42657000D02*
X168750001Y-42657000D01*
%TO.C,J9*%
X193159999Y-61370000D02*
X193159999Y-63970000D01*
X193159999Y-61370000D02*
X195819999Y-61370000D01*
X193159999Y-63970000D02*
X195819999Y-63970000D01*
X194489999Y-58770000D02*
X195819999Y-58770000D01*
X195819999Y-58770000D02*
X195819999Y-60100000D01*
X195819999Y-61370000D02*
X195819999Y-63970000D01*
%TO.C,10k*%
X143537000Y-75967064D02*
X143537000Y-75512936D01*
X145007000Y-75967064D02*
X145007000Y-75512936D01*
%TD*%
M02*
