%TF.GenerationSoftware,KiCad,Pcbnew,9.0.4*%
%TF.CreationDate,2026-03-18T20:26:03+08:00*%
%TF.ProjectId,Compact Keyboard,436f6d70-6163-4742-904b-6579626f6172,rev?*%
%TF.SameCoordinates,Original*%
%TF.FileFunction,Soldermask,Top*%
%TF.FilePolarity,Negative*%
%FSLAX46Y46*%
G04 Gerber Fmt 4.6, Leading zero omitted, Abs format (unit mm)*
G04 Created by KiCad (PCBNEW 9.0.4) date 2026-03-18 20:26:03*
%MOMM*%
%LPD*%
G01*
G04 APERTURE LIST*
G04 Aperture macros list*
%AMRoundRect*
0 Rectangle with rounded corners*
0 $1 Rounding radius*
0 $2 $3 $4 $5 $6 $7 $8 $9 X,Y pos of 4 corners*
0 Add a 4 corners polygon primitive as box body*
4,1,4,$2,$3,$4,$5,$6,$7,$8,$9,$2,$3,0*
0 Add four circle primitives for the rounded corners*
1,1,$1+$1,$2,$3*
1,1,$1+$1,$4,$5*
1,1,$1+$1,$6,$7*
1,1,$1+$1,$8,$9*
0 Add four rect primitives between the rounded corners*
20,1,$1+$1,$2,$3,$4,$5,0*
20,1,$1+$1,$4,$5,$6,$7,0*
20,1,$1+$1,$6,$7,$8,$9,0*
20,1,$1+$1,$8,$9,$2,$3,0*%
G04 Aperture macros list end*
%ADD10R,1.600000X1.600000*%
%ADD11C,1.600000*%
%ADD12C,3.000000*%
%ADD13RoundRect,0.250000X-0.450000X0.350000X-0.450000X-0.350000X0.450000X-0.350000X0.450000X0.350000X0*%
%ADD14C,3.600000*%
%ADD15C,5.700000*%
%ADD16R,1.700000X1.700000*%
%ADD17C,1.700000*%
%ADD18RoundRect,0.250000X-0.350000X-0.450000X0.350000X-0.450000X0.350000X0.450000X-0.350000X0.450000X0*%
%ADD19RoundRect,0.150000X0.587500X0.150000X-0.587500X0.150000X-0.587500X-0.150000X0.587500X-0.150000X0*%
%ADD20RoundRect,0.250000X0.450000X-0.350000X0.450000X0.350000X-0.450000X0.350000X-0.450000X-0.350000X0*%
%ADD21RoundRect,0.250000X-0.550000X0.550000X-0.550000X-0.550000X0.550000X-0.550000X0.550000X0.550000X0*%
%ADD22R,1.905000X2.000000*%
%ADD23O,1.905000X2.000000*%
%ADD24C,4.000000*%
%ADD25C,2.200000*%
%ADD26R,2.000000X2.000000*%
%ADD27C,2.000000*%
%ADD28R,3.200000X2.000000*%
%ADD29RoundRect,0.250000X-0.675000X0.675000X-0.675000X-0.675000X0.675000X-0.675000X0.675000X0.675000X0*%
%ADD30C,1.850000*%
G04 APERTURE END LIST*
D10*
%TO.C,J6*%
X126944000Y-37994000D03*
D11*
X124444000Y-37994000D03*
X122444000Y-37994000D03*
X119944000Y-37994000D03*
D12*
X130014000Y-35284000D03*
X116874000Y-35284000D03*
%TD*%
D13*
%TO.C,10k*%
X144272000Y-82328000D03*
X144272000Y-84328000D03*
%TD*%
D14*
%TO.C,REF\u002A\u002A*%
X89000000Y-31500000D03*
D15*
X89000000Y-31500000D03*
%TD*%
D11*
%TO.C,C3*%
X138176000Y-89154000D03*
X138176000Y-86654000D03*
%TD*%
%TO.C,C2*%
X164240000Y-29940000D03*
X164240000Y-32440000D03*
%TD*%
D16*
%TO.C,J4*%
X160365000Y-49975000D03*
D17*
X160365000Y-52515000D03*
%TD*%
D14*
%TO.C,REF\u002A\u002A*%
X89000000Y-134500000D03*
D15*
X89000000Y-134500000D03*
%TD*%
D14*
%TO.C,REF\u002A\u002A*%
X195000000Y-134500000D03*
D15*
X195000000Y-134500000D03*
%TD*%
D18*
%TO.C,1k*%
X132250000Y-65250000D03*
X134250000Y-65250000D03*
%TD*%
D19*
%TO.C,Q2*%
X130302000Y-63500000D03*
X130302000Y-61600000D03*
X128427000Y-62550000D03*
%TD*%
D16*
%TO.C,J1*%
X144339000Y-106172001D03*
D17*
X144339000Y-103632001D03*
X144339000Y-101092001D03*
X144339000Y-98552001D03*
X144339000Y-96012001D03*
X144339000Y-93472001D03*
%TD*%
D16*
%TO.C,J2*%
X137385000Y-55275000D03*
D17*
X137385000Y-52735000D03*
%TD*%
%TO.C,Teensy_4.1*%
X141500000Y-27360000D03*
X141500000Y-29900000D03*
X141500000Y-32440000D03*
X141500000Y-34980000D03*
X141500000Y-37520000D03*
X141500000Y-40060000D03*
X141500000Y-42600000D03*
X141500000Y-45140000D03*
X141500000Y-47680000D03*
X141500000Y-50220000D03*
X141500000Y-52760000D03*
X141500000Y-55300000D03*
X141500000Y-57840000D03*
X141500000Y-60380000D03*
X141500000Y-62920000D03*
X141500000Y-65460000D03*
X141500000Y-68000000D03*
X141500000Y-70540000D03*
X141500000Y-73080000D03*
X141500000Y-75620000D03*
X141500000Y-78160000D03*
X141500000Y-80700000D03*
X141500000Y-83240000D03*
X141500000Y-85780000D03*
X156740000Y-85780000D03*
X156740000Y-83240000D03*
X156740000Y-80700000D03*
X156740000Y-78160000D03*
X156740000Y-75620000D03*
X156740000Y-73080000D03*
X156740000Y-70540000D03*
X156740000Y-68000000D03*
X156740000Y-65460000D03*
X156740000Y-62920000D03*
X156740000Y-60380000D03*
X156740000Y-57840000D03*
X156740000Y-55300000D03*
X156740000Y-52760000D03*
X156740000Y-50220000D03*
X156740000Y-47680000D03*
X156740000Y-45140000D03*
X156740000Y-42600000D03*
X156740000Y-40060000D03*
X156740000Y-37520000D03*
X156740000Y-34980000D03*
X156740000Y-32440000D03*
X156740000Y-29900000D03*
X156740000Y-27360000D03*
%TD*%
D13*
%TO.C,10k*%
X144272000Y-78550000D03*
X144272000Y-80550000D03*
%TD*%
D20*
%TO.C,220R*%
X182118000Y-42672000D03*
X182118000Y-40672000D03*
%TD*%
D18*
%TO.C,10k*%
X132250000Y-63250000D03*
X134250000Y-63250000D03*
%TD*%
D11*
%TO.C,C4*%
X135128000Y-84622000D03*
X135128000Y-87122000D03*
%TD*%
D16*
%TO.C,J8*%
X144490000Y-33700000D03*
D17*
X144490000Y-36240000D03*
X144490000Y-38780000D03*
X144490000Y-41320000D03*
X144490000Y-43860000D03*
%TD*%
D21*
%TO.C,C1*%
X170740000Y-29940000D03*
D11*
X170740000Y-33440000D03*
%TD*%
D22*
%TO.C,Q3*%
X171450001Y-40894000D03*
D23*
X173990001Y-40894000D03*
X176530001Y-40894000D03*
%TD*%
D16*
%TO.C,J9*%
X194489999Y-60100000D03*
D17*
X194489999Y-62640000D03*
%TD*%
D14*
%TO.C,REF\u002A\u002A*%
X195000000Y-31500000D03*
D15*
X195000000Y-31500000D03*
%TD*%
D20*
%TO.C,10k*%
X144272000Y-76740000D03*
X144272000Y-74740000D03*
%TD*%
D17*
%TO.C,SW3*%
X182626000Y-117602000D03*
D24*
X187706000Y-117602000D03*
D17*
X192786000Y-117602000D03*
D25*
X190246000Y-122682000D03*
X183896000Y-120142000D03*
%TD*%
D26*
%TO.C,SW1*%
X123500000Y-101000000D03*
D27*
X123500000Y-106000000D03*
X123500000Y-103500000D03*
D28*
X116000000Y-109100000D03*
X116000000Y-97900000D03*
D27*
X109000000Y-106000000D03*
X109000000Y-101000000D03*
%TD*%
D16*
%TO.C,TFT_ILI1*%
X101063000Y-73533000D03*
D17*
X101063000Y-70993000D03*
X101063000Y-68453000D03*
X101063000Y-65913000D03*
X101063000Y-63373000D03*
X101063000Y-60833000D03*
X101063000Y-58293000D03*
X101063000Y-55753000D03*
X101063000Y-53213000D03*
X101063000Y-50673000D03*
X101063000Y-48133000D03*
X101063000Y-45593000D03*
X101063000Y-43053000D03*
X101063000Y-40513000D03*
X179806600Y-53213000D03*
X179806600Y-55753000D03*
X179806600Y-58293000D03*
X179806600Y-60833000D03*
%TD*%
%TO.C,SW2*%
X182626000Y-98552000D03*
D24*
X187706000Y-98552000D03*
D17*
X192786000Y-98552000D03*
D25*
X190246000Y-103632000D03*
X183896000Y-101092000D03*
%TD*%
%TO.C,J3*%
X194748001Y-39674000D03*
X194748001Y-43874000D03*
X194748001Y-48074000D03*
X194748001Y-52274000D03*
D29*
X184548001Y-39674000D03*
D30*
X184548001Y-43874000D03*
X184548001Y-48074000D03*
X184548001Y-52274000D03*
%TD*%
D17*
%TO.C,SW4*%
X163576000Y-117602000D03*
D24*
X168656000Y-117602000D03*
D17*
X173736000Y-117602000D03*
D25*
X171196000Y-122682000D03*
X164846000Y-120142000D03*
%TD*%
D17*
%TO.C,SW5*%
X163576000Y-98552000D03*
D24*
X168656000Y-98552000D03*
D17*
X173736000Y-98552000D03*
D25*
X171196000Y-103632000D03*
X164846000Y-101092000D03*
%TD*%
M02*
